<?xml version="1.0" standalone="no"?>
<!DOCTYPE svg PUBLIC "-//W3C//DTD SVG 1.1//EN" "http://www.w3.org/Graphics/SVG/1.1/DTD/svg11.dtd">
<svg xmlns="http://www.w3.org/2000/svg"><metadata>This SVG WebFont was generated by YouWorkForThem.
Copyright Â© 2020 by Flatface. All rights reserved.</metadata><defs><font horiz-adv-x="0" id="ywftsvg"><font-face ascent="1638" bbox="-1473 -617.143 3219 2054" cap-height="1434" descent="-410" font-family="" font-stretch="normal" font-weight="400" panose-1="0 0 5 0 0 0 0 0 0 0" underline-position="0" underline-thickness="0" unicode-range="U+0020-33C7" units-per-em="2048"/><missing-glyph horiz-adv-x="204"/><glyph glyph-name=".notdef" horiz-adv-x="204"/><glyph glyph-name="glyph1"/><glyph glyph-name="glyph2" horiz-adv-x="681"/><glyph glyph-name="space" horiz-adv-x="307" unicode=" "/><glyph d="M178 1434h266q45 0 73 -29t24 -76v-2l-70 -766v2q-4 -43 -30.5 -69.5t-69.5 -26.5h-119q-43 0 -69.5 26.5t-30.5 69.5v-2l-70 766v2q-4 47 23.5 76t72.5 29zM389 567v2l70 766q0 12 -2 14.5t-13 2.5h-266q-10 0 -12 -2t-2 -15l69 -766v-2q0 -18 19 -18h119q18 0 18 18z M311 410q88 0 151.5 -63.5t63.5 -152t-63.5 -151.5t-151.5 -63q-90 0 -152.5 63t-62.5 151.5t62.5 152t152.5 63.5zM311.5 61q55.5 0 94 39t38.5 94.5t-38.5 94.5t-94 39t-94.5 -39t-39 -94.5t39 -94.5t94.5 -39z" glyph-name="exclam" horiz-adv-x="622" unicode="!"/><glyph d="M127 963l-45 364q-4 49 22.5 78t73.5 29h166q47 0 72.5 -29t21.5 -78l-43 -364q-4 -41 -32.5 -66t-69.5 -25h-66q-41 0 -68.5 25t-31.5 66zM498 963l-43 364q-4 49 21.5 78t72.5 29h166q47 0 73.5 -29t22.5 -78l-45 -364q-4 -41 -31.5 -66t-68.5 -25h-66q-41 0 -69.5 25 t-32.5 66zM164 1335l45 -364q2 -16 18 -17h66q18 0 20 17l43 364q2 14 0 15.5t-12 1.5h-166q-10 0 -12 -2.5t-2 -14.5zM537 1335l43 -364q2 -16 20 -17h66q16 0 18 17l45 364q0 12 -2 14.5t-12 2.5h-166q-10 0 -12 -1.5t0 -15.5z" glyph-name="quotedbl" horiz-adv-x="892" unicode="&quot;"/><glyph d="M1241 1133q45 0 71.5 -27t26.5 -72v-145q0 -45 -26.5 -71.5t-71.5 -26.5h-65q-20 0 -25 -21l-27 -115q-2 -8 0 -10t11 -2h49q45 0 71.5 -26.5t26.5 -71.5v-146q0 -45 -26.5 -71.5t-71.5 -26.5h-123q-20 0 -25 -20l-47 -201q-18 -80 -102 -80h-164q-49 0 -75.5 34 t-12.5 81l39 172q2 8 2 10t-2 3t-10 1h-113q-18 0 -25 -20l-47 -201q-20 -80 -102 -80h-164q-51 0 -76.5 33t-11.5 82l39 172q0 14 -4 14q-45 0 -72 26.5t-27 71.5v146q0 45 27 71.5t72 26.5h67q18 0 25 21l27 114q2 12 -11 13h-51q-45 0 -71.5 26.5t-26.5 71.5v145 q0 45 26.5 72t71.5 27h125q18 0 25 20l47 201q18 80 102 80h164q49 0 75.5 -34t12.5 -81l-39 -172q-4 -10 -2 -12t12 -2h113q20 0 25 20l47 201q18 80 102 80h164q49 0 75.5 -34t12.5 -81l-39 -172q-2 -14 2 -14zM1257 889v145q0 10 -3 13.5t-13 3.5q-45 0 -68.5 32.5 t-13.5 81.5l41 174q2 8 1 10.5t-11 2.5h-164q-18 0 -25 -19l-47 -200q-20 -82 -102 -82h-113q-51 0 -75.5 32.5t-14.5 81.5l41 174q2 8 0 10.5t-10 2.5h-164q-18 0 -24 -19l-48 -200q-20 -82 -102 -82h-125q-10 0 -13 -3.5t-3 -13.5v-145q0 -10 3 -13.5t13 -3.5h51 q51 0 77 -33.5t11 -80.5l-26 -115q-20 -82 -103 -82h-67q-10 0 -13.5 -3t-3.5 -13v-146q0 -10 3.5 -13t13.5 -3q47 0 70.5 -32t13.5 -83l-41 -174q-2 -8 -1 -10t11 -2h164q18 0 24 18l48 201q20 82 102 82h113q51 0 75.5 -33t14.5 -82l-41 -174q-2 -8 -1 -10t11 -2h164 q18 0 24 18l47 201q20 82 103 82h123q10 0 13 3t3 13v146q0 10 -3 13t-13 3h-49q-51 0 -77 34t-11 81l26 115q20 82 103 81h65q10 0 13 3.5t3 13.5zM666 872h112q51 0 77 -33.5t11 -80.5l-26 -115q-20 -82 -103 -82h-112q-51 0 -77 34t-11 81l26 115q21 81 103 81zM762 664 l26 114q2 8 0 10.5t-10 2.5h-112q-18 0 -25 -21l-27 -115q-2 -8 -1 -10t12 -2h112q21 1 25 21z" glyph-name="numbersign" horiz-adv-x="1400" unicode="#"/><glyph d="M760 750q121 -94 121 -248q0 -242 -254 -326q-12 -4 -12.5 -14t6.5 -56q6 -47 -21 -76.5t-74 -29.5h-90q-49 0 -75.5 29.5t-18.5 79.5q8 39 6 48t-18 11q-121 23 -185 59q-51 33 -51 103v141q0 57 37 78.5t90 -6.5q106 -55 260 -56q43 0 43 15q0 25 -135 88 q-96 47 -168 92q-139 90 -139 250q0 123 66.5 208t187.5 117q2 2 5 3.5t4 4.5t1 6v7v10t-1 11.5t-2 13.5t-1 14q-4 47 21.5 77t72.5 30h90q49 0 76 -30t19 -79q-6 -31 -5.5 -44t19.5 -17q76 -14 141 -58q51 -33 51 -102v-139q0 -59 -38.5 -80t-90.5 10q-96 51 -217 51 q-43 0 -43 -14q0 -16 117 -68q144 -67 205 -114zM604 254q195 57 195 248q0 63 -19.5 103t-68.5 79q-47 39 -189 104q-92 41 -129 70t-37 74t34 70.5t91 25.5q147 0 258 -63l6 -4v4v139q0 23 -14 37q-59 33 -113 41q-96 23 -86 110v2l7 43q2 10 0 12.5t-13 2.5h-90 q-10 0 -12 -2t0 -13l6 -47v-2q4 -49 -11.5 -72.5t-62.5 -35.5q-193 -53 -192 -248q0 -63 21.5 -102t80.5 -78q66 -43 160 -88q100 -47 140 -81t40 -81q0 -45 -33.5 -70.5t-91.5 -25.5q-174 0 -297 63q-4 2 -8 6v-4v-141q0 -25 14 -33q53 -33 152 -47q98 -16 88 -111v-2 l-6 -41q-2 -10 0 -12t12 -2h90q10 0 12.5 2t0.5 12l-7 49q-6 49 8.5 72t63.5 37z" glyph-name="dollar" horiz-adv-x="962" unicode="$"/><glyph d="M410 676q-147 0 -237.5 107.5t-90.5 281.5q0 172 91 280.5t237 108.5q143 0 233 -108.5t90 -280.5q0 -174 -90 -281.5t-233 -107.5zM469 0h-88q-57 0 -79.5 40t5.5 91l717 1241l-2 -2q33 63 106 64h89q57 0 79.5 -40t-6.5 -91l-717 -1242l2 2q-32 -63 -106 -63zM410 758 q109 0 175 83t66 224q0 139 -66.5 223t-174.5 84q-111 0 -178.5 -84t-67.5 -223q0 -141 67.5 -224t178.5 -83zM381 82h88q23 0 33 18l2 2l717 1241q4 6 6 11q-4 -2 -10 -2h-89q-23 0 -32 -19l-2 -2l-717 -1241q-4 -6 -6 -10q4 2 10 2zM410 864q-66 0 -103 53.5t-37 147.5 q0 92 37 145.5t102.5 53.5t101.5 -53.5t36 -145.5t-37 -146.5t-100 -54.5zM410 946q55 0 55 119q0 117 -55 117q-57 0 -58 -117q1 -119 58 -119zM1190 -20q-145 0 -235.5 107.5t-90.5 281.5t90 281.5t235.5 107.5t236 -107.5t90.5 -281.5q0 -172 -91.5 -280.5t-234.5 -108.5 zM1189.5 61q108.5 0 176.5 84t68 223.5t-68 223.5t-176 84q-111 0 -177.5 -83t-66.5 -224q0 -139 67.5 -223.5t176 -84.5zM1189.5 170q-65.5 0 -102 53t-36.5 146q0 94 36.5 147t102.5 53q63 0 100 -54t37 -146.5t-36 -145.5t-101.5 -53zM1190 252q55 0 55 117 q0 119 -55 118q-57 0 -57 -118q0 -117 57 -117z" glyph-name="percent" horiz-adv-x="1597" unicode="%"/><glyph d="M1196 354l193 -215q41 -49 20.5 -94t-84.5 -45h-250q-59 0 -102 47l-17 16q-12 14 -28 5q-133 -88 -297 -88q-242 0 -375 111.5t-133 316.5q0 104 49 184t170 170q12 10 0 26q-109 164 -109 277q0 160 123 274.5t293 114.5q184 0 300 -107.5t116 -281.5q0 -203 -170 -340 q-12 -12 -4 -25l31 -34v2q6 -6 6 -11q12 20 33 66q2 6 7 19.5t9 19.5q27 74 104 74h170q53 0 78 -36t8 -87q-76 -197 -145 -326q-8 -17 4 -33zM1075 82h250h6l-4 4l-192 215q-49 61 -15 127q76 141 140 313q-4 12 -9 13h-170q-20 0 -26 -21q-4 -8 -10.5 -22.5t-8.5 -18.5 q-6 -10 -15 -30.5t-13 -30.5q-23 -47 -66 -53.5t-82 32.5v2l-31 35q-29 33 -25.5 72t38.5 67q78 63 109.5 127t31.5 152q0 139 -91 223t-243 84q-135 0 -234.5 -91t-99.5 -216q0 -92 95 -231q55 -80 -19 -138q-106 -80 -146 -142t-40 -146q0 -170 108.5 -258.5t317.5 -88.5 q139 0 252 76q76 45 135 -18l16 -19q16 -18 41 -18zM669.5 1163q55.5 0 90.5 -32.5t35 -86.5q0 -63 -78 -116q-39 -29 -78 -23t-64 45q-33 53 -32 94q0 51 35.5 85t91 34zM670 993q31 20 37 28.5t6 22.5q0 37 -43 37q-45 0 -45 -37q0 -18 20 -49q9 -12 25 -2zM645 543 q12 -16 27.5 -35t37 -42.5t33.5 -37.5q37 -41 25 -87t-63 -60q-41 -10 -74 -11q-82 0 -140.5 46t-58.5 110q0 51 49 104q39 43 84 47.5t80 -34.5zM684 358q10 2 -2 17q-51 53 -98 114q-16 16 -41 -14q-29 -29 -29 -49q0 -29 35 -51.5t82 -22.5q22 0 53 6z" glyph-name="ampersand" horiz-adv-x="1435" unicode="&amp;"/><glyph d="M125 963l-43 364q-4 49 21.5 78t72.5 29h166q47 0 73.5 -29t22.5 -78l-45 -364q-4 -41 -31.5 -66t-68.5 -25h-66q-41 0 -69.5 25t-32.5 66zM164 1335l43 -364q2 -16 20 -17h66q16 0 18 17l45 364q0 12 -2 14.5t-12 2.5h-166q-10 0 -12 -1.5t0 -15.5z" glyph-name="quotesingle" horiz-adv-x="520" unicode="'"/><glyph d="M514 717q0 -379 203 -703q31 -51 9.5 -91t-81.5 -40h-164q-66 0 -102 54q-133 186 -194.5 362t-61.5 417.5t61.5 418t194.5 360.5q37 55 102 55h164q59 0 81 -40t-9 -93q-203 -321 -203 -700zM481 -35h164h8l-6 6q-215 340 -215 746q0 408 215 743q4 8 6 10q-2 -2 -8 -2 h-164q-23 0 -37 -20q-133 -186 -186 -349t-53 -382t53 -382t186 -351q17 -19 37 -19z" glyph-name="parenleft" horiz-adv-x="815" unicode="("/><glyph d="M436 1495q133 -184 194.5 -360.5t61.5 -418t-61.5 -417.5t-194.5 -362q-37 -53 -102 -54h-164q-59 0 -80.5 40t8.5 91q203 324 203 703t-203 700q-31 53 -9 93t81 40h164q65 0 102 -55zM371 -16q133 188 186 351t53 382t-53 382t-186 349q-14 20 -37 20h-164q-6 0 -8 2 q2 -2 6 -10q215 -336 215 -743q0 -406 -215 -746l-6 -6h8h164q21 1 37 19z" glyph-name="parenright" horiz-adv-x="815" unicode=")"/><glyph d="M709 1024l-62 -16l-12 -2l10 -7l51 -49q33 -33 32 -73.5t-36 -69.5l-71 -59q-33 -27 -71 -21t-65 45l-53 80l2 -2q-8 12 -10 8q-2 -2 -6 -8l2 2l-55 -80q-25 -37 -62 -44t-72 20l-71 61q-35 29 -36 69t32 72l51 49l10 7l-14 2l-60 16q-37 14 -52 45t-3 68l29 86 q18 45 56 60t79 -7l39 -19l8 -8q-2 4 -2 15l-8 65q-4 47 22.5 77t73.5 30h82q47 0 73.5 -29t22.5 -76l-10 -80l4 2q2 4 4 4l39 19q41 23 79 7.5t56 -60.5l29 -86q12 -37 -3 -68t-52 -45zM569 809l70 59q12 10 0 25l-51 45q-41 41 -30 86t67 61l59 19q4 0 4 6l-31 84 q-6 14 -20 8l-39 -18q-51 -27 -89 0.5t-36 87.5l8 67q2 10 0 12.5t-14 2.5h-82q-12 0 -14 -2t0 -15l8 -65q4 -59 -34 -87t-91 -1l-39 18q-14 6 -20 -8l-31 -84q0 -6 4 -6l57 -19q57 -14 68.5 -61t-29.5 -86l-51 -45q-12 -14 0 -23l72 -59q6 -4 12 6l53 80l2 2q31 43 74 43 t74 -43l2 -2l51 -80q10 -10 16 -8z" glyph-name="asterisk" horiz-adv-x="851" unicode="*"/><glyph d="M399 543h-219q-45 0 -71.5 26.5t-26.5 71.5v156q0 45 26.5 71.5t71.5 26.5h219q10 0 13.5 3t3.5 13v238q0 45 26.5 72.5t71.5 27.5h156q45 0 71.5 -27.5t26.5 -72.5v-238q0 -10 3 -13t13 -3h217q45 0 72 -26.5t27 -71.5v-156q0 -45 -26.5 -71.5t-72.5 -26.5h-217 q-10 0 -13 -3t-3 -14v-235q0 -45 -26.5 -73t-71.5 -28h-156q-45 0 -71.5 28t-26.5 73v235q0 10 -3.5 13.5t-13.5 3.5zM180 625h219q45 0 72 -27t27 -72v-235q0 -18 16 -19h156q16 0 16 19v235q0 45 26.5 72t71.5 27h217q10 0 13.5 3t3.5 13v156q0 10 -3 13t-14 3h-217 q-45 0 -71.5 26.5t-26.5 71.5v238q0 18 -16 18h-156q-16 0 -16 -18v-238q0 -45 -27 -71.5t-72 -26.5h-219q-10 0 -13 -3t-3 -13v-156q0 -10 3 -13t13 -3z" glyph-name="plus" horiz-adv-x="1181" unicode="+"/><glyph d="M82 195q0 88 63.5 151.5t151.5 63.5q63 0 117.5 -35t79.5 -94q45 -111 -7.5 -249t-173.5 -235q-39 -31 -77.5 -25.5t-59.5 46.5q-35 68 10 129q20 31 22.5 37t-13.5 20q-113 66 -113 191zM164 195q0 -78 67 -117q90 -43 54 -125q-10 -29 -33 -55q-14 -23 -8 -33 q6 -12 18 -2q100 78 146.5 190.5t11.5 194.5q-37 80 -123 80q-55 0 -94 -39t-39 -94z" glyph-name="comma" horiz-adv-x="595" unicode=","/><glyph d="M82 631v172q0 45 27.5 72.5t72.5 27.5h666q45 0 72.5 -27.5t27.5 -72.5v-172q0 -45 -27.5 -73t-72.5 -28h-666q-45 0 -72.5 28t-27.5 73zM164 803v-172q0 -18 18 -19h666q18 0 18 19v172q0 18 -18 18h-666q-18 0 -18 -18z" glyph-name="hyphen" horiz-adv-x="1030" unicode="-"/><glyph d="M297 -20q-88 0 -151.5 63t-63.5 151.5t63.5 152t151.5 63.5t151.5 -63.5t63.5 -152t-63.5 -151.5t-151.5 -63zM297 61q55 0 94 39t39 94.5t-39 94.5t-94 39t-94 -39t-39 -94.5t39 -94.5t94 -39z" glyph-name="period" horiz-adv-x="593" unicode="."/><glyph d="M379 14v2q-23 -74 -107 -73h-141q-51 0 -75.5 34.5t-8.5 85.5l477 1356v-2q23 74 107 74h141q51 0 75.5 -35t8.5 -86zM301 41v2l477 1356q2 6 4 10v2q-4 -2 -10 -2h-141q-23 0 -29 -16v-2l-477 -1356q-2 -6 -4 -10v-2q4 2 10 2h141q23 0 29 16z" glyph-name="slash" horiz-adv-x="903" unicode="/"/><glyph d="M651.5 -20q-272.5 0 -441.5 203.5t-169 533.5t169 533.5t441.5 203.5t441.5 -203.5t169 -533.5t-169 -533.5t-441.5 -203.5zM651.5 61q239.5 0 384 179.5t144.5 476.5t-144.5 476t-384 179t-384 -179t-144.5 -476t144.5 -476.5t384 -179.5zM651 289q-133 0 -207.5 114.5 t-74.5 313t74.5 313.5t207.5 115t208 -115t75 -313.5t-75 -313t-208 -114.5zM651.5 371q96.5 0 148.5 90t52 256t-52 256t-148.5 90t-148.5 -90t-52 -256t52 -256t148.5 -90z" glyph-name="zero" horiz-adv-x="1302" unicode="0"/><glyph d="M168 1004h-29q-45 0 -71.5 27.5t-26.5 72.5v108q0 68 63 103l2 2l185 96q49 20 90 21h117q45 0 71.5 -27t26.5 -72v-1237q0 -45 -26.5 -71.5t-71.5 -26.5h-213q-45 0 -72 26.5t-27 71.5v889q0 17 -18 17zM139 1085h29q45 0 72.5 -26.5t27.5 -71.5v-889q0 -10 3 -13t14 -3 h213q10 0 13 3t3 13v1237q0 10 -3 13.5t-13 3.5h-117q-18 0 -55 -13l-183 -96l2 2q-23 -12 -22 -33v-108q0 -19 16 -19z" glyph-name="one" horiz-adv-x="677" unicode="1"/><glyph d="M573 391h340q45 0 72 -26.5t27 -71.5v-195q0 -45 -27 -71.5t-72 -26.5h-772q-47 0 -73.5 26.5t-26.5 73.5q2 207 36 298t146 196q98 84 137 117q147 121 204 181t57 95q0 94 -134 94q-121 0 -249 -104q-51 -41 -94.5 -21.5t-43.5 82.5v176q0 63 33 99q59 61 159.5 101 t194.5 40q250 0 397.5 -127t147.5 -340q0 -203 -198 -369q-174 -141 -263 -227h2zM930 98v195q0 10 -3 13t-14 3h-340q-63 0 -85.5 46t22.5 89q72 72 270 236q170 143 170 307q0 178 -124 281.5t-339 103.5q-78 0 -161.5 -32.5t-130.5 -84.5q-12 -12 -13 -41v-176v-2l4 4 q150 123 301 123q98 0 156.5 -47t58.5 -129q0 -59 -60 -130t-228 -210q-61 -49 -135 -115q-100 -90 -127 -164.5t-29 -267.5q0 -12 4 -15t14 -3h772q10 0 13.5 3t3.5 13z" glyph-name="two" horiz-adv-x="1093" unicode="2"/><glyph d="M805 913q106 -45 166.5 -155.5t60.5 -253.5q0 -231 -156.5 -377.5t-406.5 -146.5q-90 0 -207 41.5t-180 99.5q-41 39 -41 98v182q0 61 41 81t94 -19q135 -92 293 -92q68 0 110 36.5t42 96.5q0 145 -256 170q-63 4 -84 46t18 93l184 223l6 6h-6h-323q-45 0 -72 27t-27 72 v194q0 45 27 72t72 27h659q74 0 107 -70l53 -135q31 -70 -18 -123l-164 -186h2l-2 -2zM469 61q217 0 349 122t132 321q0 119 -48 209t-130 127q-49 20 -60.5 56t21.5 77h2l164 188q14 14 4 35l-53 135q-8 20 -31 21h-659q-10 0 -13.5 -3t-3.5 -14v-194q0 -10 3.5 -13.5 t13.5 -3.5h323q61 0 82 -44t-18 -95l-185 -223q-2 -6 -6 -6h17q158 -16 243.5 -81t85.5 -171q0 -92 -66.5 -153.5t-166.5 -61.5q-188 0 -342 108q-2 2 -4 2v-180q0 -25 12 -37q53 -47 154.5 -84t179.5 -37z" glyph-name="three" horiz-adv-x="1093" unicode="3"/><glyph d="M1153 504l2 -174q0 -45 -27.5 -72t-72.5 -27h-41q-18 0 -19 -16v-117q0 -45 -26.5 -71.5t-71.5 -26.5h-213q-45 0 -71.5 26.5t-26.5 71.5v117q0 16 -17 16h-350q-74 0 -98 60l-92 223q-20 63 10 115l465 747v-2q35 59 104 60h289q45 0 71.5 -27t26.5 -72v-714 q0 -16 19 -17h39q45 0 72.5 -27.5t27.5 -72.5zM1014 313h41q18 0 18 17l-2 174q0 12 -4 15t-14 3h-39q-45 0 -73 26.5t-28 72.5v714q0 10 -3 13.5t-13 3.5h-289q-25 0 -35 -19v-2l-464 -745q-10 -20 -3 -43l89 -219q6 -10 24 -11h350q45 0 72 -26.5t27 -71.5v-117 q0 -10 3 -13t13 -3h213q10 0 13 3t3 13v117q0 45 28 71.5t73 26.5zM367 651l155 254q37 63 91.5 48t54.5 -89v-243q0 -45 -27 -72t-72 -27h-129q-57 0 -79.5 41t6.5 88zM440 604h129q16 0 17 17v233l-150 -244l-4 -8q2 2 8 2z" glyph-name="four" horiz-adv-x="1216" unicode="4"/><glyph d="M473 942q279 31 437.5 -86t158.5 -352q0 -240 -152.5 -382t-408.5 -142q-100 0 -221 41.5t-187 99.5q-39 37 -39 98v180q0 61 41 81t95 -17q147 -111 311 -111q47 0 80 16.5t47 43t19 49t5 43.5q0 86 -108.5 110.5t-357.5 -6.5q-51 -8 -83 20.5t-28 80.5l51 645 q4 37 30.5 58.5t67.5 21.5h641q45 0 72 -27t27 -72v-194q0 -45 -26.5 -72t-72.5 -27h-391q-18 0 -18 -16v-2l-6 -70q-2 -10 0 -12t16 0zM508 61q223 0 351 119t128 324q0 197 -131 290t-373 66q-51 -6 -81.5 22.5t-26.5 80.5l6 69v-2q4 43 30.5 68.5t69.5 25.5h391 q10 0 13.5 3t3.5 14v194q0 10 -3 13.5t-14 3.5h-641q-16 0 -18 -9l-49 -643q-2 -10 1 -11t17 1q287 37 423 -7t136 -179q0 -27 -9 -60.5t-30.5 -75.5t-71.5 -70t-122 -28q-190 0 -361 127l-4 4v-2v-180q0 -27 11 -37q55 -47 161.5 -84t192.5 -37z" glyph-name="five" horiz-adv-x="1171" unicode="5"/><glyph d="M610 979q244 0 379 -131t135 -371q0 -211 -148.5 -354t-365.5 -143t-362.5 131t-184.5 360q-72 428 79 698.5t466 284.5q246 10 396 -123q41 -45 40 -100v-174q0 -63 -44 -83t-93 21q-129 106 -293 86q-115 -12 -165 -147q81 45 161 45zM610 61q184 0 308 119t124 297 q0 205 -110.5 312.5t-321.5 107.5q-86 0 -151 -55q-33 -27 -69 -9.5t-34 58.5q16 111 86 186.5t164 85.5q197 23 355 -104l2 -2v174q0 25 -17 39q-125 113 -334 102q-279 -12 -405.5 -255t-61.5 -634q33 -199 156 -310.5t309 -111.5zM406 903zM612.5 717q92.5 0 147.5 -64.5 t55 -173.5q0 -106 -56.5 -171.5t-146.5 -65.5t-145 65.5t-55 171.5q0 109 54 173.5t146.5 64.5zM612.5 324q55.5 0 88 42t32.5 113q0 74 -31.5 115t-89.5 41q-119 0 -118 -156q0 -74 31.5 -114.5t87 -40.5z" glyph-name="six" horiz-adv-x="1165" unicode="6"/><glyph d="M999 1114l-387 -1042q-29 -72 -104 -72h-229q-53 0 -79 37t-5 86l342 907q-4 12 -9 12h-368q-45 0 -72 28t-27 73v192q0 45 27 72t72 27h667q78 0 107 -72l-2 2l63 -143l2 -2q18 -48 2 -105zM535 100l387 1039q8 29 -2 51l2 -2l-64 143l-2 2q-6 18 -29 19h-667 q-10 0 -13.5 -3t-3.5 -14v-192q0 -18 17 -19h368q53 0 78 -35.5t8 -87.5l-342 -907q4 -12 7 -12h229q21 0 27 18z" glyph-name="seven" horiz-adv-x="1048" unicode="7"/><glyph d="M41 453q0 184 135 303q10 8 6 14l-6 6q-98 104 -98 240q0 193 150.5 315.5t384 122.5t384 -123t150.5 -315q0 -137 -105 -242q-10 -10 -6 -14q4 -2 6 -4q141 -125 142 -303q0 -213 -158 -343t-414 -130t-413.5 130t-157.5 343zM123 453q0 -176 133 -284t356.5 -108 t356.5 107.5t133 284.5q0 141 -113 241q-70 57 -8 133q84 84 84 189q0 158 -126 257t-326.5 99t-326.5 -99t-126 -257q0 -106 78 -185q61 -76 -7 -137q-108 -96 -108 -241zM612 848q-88 0 -146 47t-58 121t58 121t146 47t146.5 -47t58.5 -121t-58.5 -121t-146.5 -47z M612.5 930q55.5 0 89 24.5t33.5 61.5t-33.5 61.5t-89 24.5t-89.5 -24.5t-34 -61.5t34 -61.5t89.5 -24.5zM612.5 250q-102.5 0 -173 59.5t-70.5 143.5q0 86 68.5 142t175 56t175 -56t68.5 -142q0 -84 -70.5 -143.5t-173 -59.5zM612.5 332q69.5 0 115.5 34.5t46 86t-45 84 t-116.5 32.5t-116.5 -32.5t-45 -84t46 -86t115.5 -34.5z" glyph-name="eight" horiz-adv-x="1224" unicode="8"/><glyph d="M1079 965q72 -428 -78.5 -698.5t-465.5 -284.5q-246 -10 -396 122q-41 45 -41 101v174q0 63 44 82.5t94 -21.5q129 -106 292 -86q115 12 166 148q-82 -45 -162 -45q-244 0 -379 131t-135 370q0 211 148.5 354.5t366 143.5t362.5 -131t184 -360zM530 63q279 12 406 255 t61 634q-33 199 -155.5 310.5t-309.5 111.5q-184 0 -308 -118.5t-124 -297.5q0 -205 111 -312t321 -107q86 0 152 55q33 27 68.5 9.5t33.5 -58.5q-16 -111 -85.5 -186.5t-163.5 -86.5q-197 -23 -355 105l-2 2v-174q0 -25 17 -39q124 -113 333 -103zM530.5 1194 q90.5 0 145.5 -65.5t55 -172.5q0 -109 -54 -173t-146.5 -64t-147.5 64.5t-55 172.5q0 106 56 172t146.5 66zM530 801q119 0 119 155q0 74 -31.5 115t-87 41t-88 -42t-32.5 -114q0 -74 31.5 -114.5t88.5 -40.5zM737 532z" glyph-name="nine" horiz-adv-x="1142" unicode="9"/><glyph d="M297 653q-88 0 -151.5 62.5t-63.5 152.5t63.5 152.5t151.5 62.5t151.5 -63.5t63.5 -151.5t-63.5 -151.5t-151.5 -63.5zM297 735q55 0 94 39t39 94.5t-39 94t-94 38.5t-94 -38.5t-39 -94t39 -94.5t94 -39zM297 -20q-88 0 -151.5 63t-63.5 151.5t63.5 152t151.5 63.5 t151.5 -63.5t63.5 -152t-63.5 -151.5t-151.5 -63zM297 61q55 0 94 39t39 94.5t-39 94.5t-94 39t-94 -39t-39 -94.5t39 -94.5t94 -39z" glyph-name="colon" horiz-adv-x="593" unicode=":"/><glyph d="M297 653q-88 0 -151.5 62.5t-63.5 152.5t63.5 152.5t151.5 62.5t151.5 -63.5t63.5 -151.5t-63.5 -151.5t-151.5 -63.5zM297 735q55 0 94 39t39 94.5t-39 94t-94 38.5t-94 -38.5t-39 -94t39 -94.5t94 -39zM82 195q0 88 63.5 151.5t151.5 63.5q63 0 117.5 -35t79.5 -94 q45 -111 -7.5 -249t-173.5 -235q-39 -31 -77.5 -25.5t-59.5 46.5l-2 4q-33 61 12 125q20 31 22.5 37t-13.5 20q-113 66 -113 191zM164 195q0 -78 67 -117q90 -43 54 -125q-10 -29 -33 -55q-14 -23 -8 -33q6 -12 18 -2q100 78 146.5 190.5t11.5 194.5q-37 80 -123 80 q-55 0 -94 -39t-39 -94z" glyph-name="semicolon" horiz-adv-x="595" unicode=";"/><glyph d="M975 1126v-147q0 -76 -74 -105l-405 -157l2 2q-2 0 -6 -2h2q2 -2 4 -2l-2 2l405 -158q74 -27 74 -104v-148q0 -55 -37 -78.5t-88 -1.5l-713 340q-55 27 -55 99v98q0 76 68 106l698 336q51 23 89 -1t38 -79zM893 979v147q0 8 2 13q-2 -2 -12 -6l-699 -336q-20 -10 -20 -33 v-98q0 -18 10 -27l711 -338l10 -6q-2 4 -2 12v148q0 18 -21 26l-405 158l-2 2q-59 27 -59 76t59 76l2 2l405 157q21 9 21 27z" glyph-name="less" horiz-adv-x="1056" unicode="&lt;"/><glyph d="M82 864v135q0 45 26.5 72t71.5 27h821q45 0 72 -27t27 -72v-135q0 -45 -26.5 -72.5t-72.5 -27.5h-821q-45 0 -71.5 27.5t-26.5 72.5zM164 999v-135q0 -18 16 -18h821q16 0 17 18v135q0 10 -3 13.5t-14 3.5h-821q-10 0 -13 -3.5t-3 -13.5zM82 434v135q0 45 26.5 73 t71.5 28h821q45 0 72 -28t27 -73v-135q0 -45 -26.5 -71.5t-72.5 -26.5h-821q-45 0 -71.5 26.5t-26.5 71.5zM164 569v-135q0 -10 3 -13t13 -3h821q10 0 13.5 3t3.5 13v135q0 18 -17 19h-821q-16 -1 -16 -19z" glyph-name="equal" horiz-adv-x="1181" unicode="="/><glyph d="M209 1206l698 -336q68 -31 68 -106v-98q0 -72 -55 -99l-713 -340q-51 -23 -88 1t-37 79v148q0 78 74 104l405 158l-2 -2q2 0 6 2h-2q-2 2 -4 2l2 -2l-405 157q-74 29 -74 105v147q0 55 38 79t89 1zM893 666v98q0 23 -21 33l-698 336l-12 6q2 -4 2 -13v-147q0 -18 20 -27 l406 -157l2 -2q59 -27 59 -76t-59 -76l-2 -2l-406 -158q-20 -8 -20 -26v-148l-2 -12q2 2 10 6l711 338q10 9 10 27z" glyph-name="greater" horiz-adv-x="1056" unicode=">"/><glyph d="M432 1454q238 0 380 -116.5t142 -309.5q0 -68 -33.5 -131t-66.5 -97t-92 -85q-18 -16 -49 -41t-46.5 -38t-32 -35.5t-22.5 -47.5q-16 -86 -100 -86h-117q-47 0 -75.5 30.5t-22.5 77.5q4 41 16.5 79t21.5 60.5t33.5 54.5t33 42t39 41t32.5 33q72 74 72 104q0 41 -32 67.5 t-81 26.5q-117 0 -215 -79q-49 -45 -92 -28t-43 83v174q0 61 39 100q127 121 311 121zM709 776q55 47 83.5 77t54 77t25.5 98q0 158 -118.5 251t-321.5 93q-154 0 -254 -100q-14 -12 -14 -39v-168q119 100 268 100q84 0 139.5 -50t55.5 -126q0 -63 -95 -162 q-8 -8 -32.5 -31.5t-33.5 -34.5t-28.5 -36t-28 -45.5t-17.5 -51t-13 -65.5q-2 -8 1 -11t15 -3h117q16 0 18 20q8 35 30 67t39 48t56.5 48t53.5 44zM446 410q88 0 152 -63.5t64 -152t-63.5 -151.5t-152.5 -63q-90 0 -152.5 63t-62.5 151.5t62.5 152t152.5 63.5zM446.5 61 q55.5 0 94.5 39t39 94.5t-39 94.5t-94.5 39t-94.5 -39t-39 -94.5t39 -94.5t94.5 -39z" glyph-name="question" horiz-adv-x="1036" unicode="?"/><glyph d="M760 391l-6 -16q-33 -74 -107 -74h-98q147 -109 369 -108q139 0 239 43q82 41 131 -39l49 -93q18 -39 5 -74.5t-56 -52.5q-176 -68 -368 -67q-401 0 -637 238.5t-193 601.5q41 340 281.5 557t578.5 217q313 0 508 -179.5t199 -474.5q0 -57 -14.5 -127.5t-49.5 -149.5 t-86 -143.5t-134 -106.5t-181 -42h-201q-43 0 -70.5 26.5t-27.5 69.5q0 14 -17 15h-88q-18 -1 -26 -21zM1190 162q-115 -51 -272 -51q-305 0 -483.5 181t-143.5 458q29 240 220 406.5t437 166.5q74 0 154 -21.5t163 -68.5t137 -141.5t54 -221.5q2 -137 -82 -253.5 t-184 -116.5q-39 0 -62.5 27.5t-23.5 70.5v512q0 18 -17 18h-217q-20 0 -30 -20l-310 -715q-4 -10 -6 -12q12 2 15 2h108q20 0 29 20l6 17q27 74 104 74h88q45 0 72 -26t27 -71q0 -14 16 -14h201q100 0 179 52t121 131t62.5 158t20.5 146q-2 260 -173 416t-452 156 q-307 0 -525 -196.5t-253 -504.5q-39 -328 172 -538.5t576 -210.5q180 0 339 63q10 2 9 11l-49 90q-11 14 -27 6zM449 401q4 16 8 25l309 715q31 70 104 69h217q45 0 72 -27.5t27 -72.5v-512q0 -8 2 -12v-4h2q63 0 124.5 93t59.5 195q0 106 -43 183t-111.5 115t-136 55.5 t-135.5 17.5q-213 0 -381 -146.5t-194 -355.5q-24 -197 76 -338zM793 711l34 96q27 72 86.5 60.5t59.5 -87.5v-92q0 -45 -26.5 -71.5t-72.5 -26.5h-4q-51 0 -73 35t-4 86zM870 672h4q10 0 13.5 3t3.5 13v51l-21 -57q-2 -10 -6 -12q2 2 6 2z" glyph-name="at" horiz-adv-x="1736" unicode="@"/><glyph d="M901 1366l328 -1251q12 -49 -13.5 -82t-76.5 -33h-228q-84 0 -102 80l-18 78q-2 20 -23 20h-260q-20 0 -25 -20l-18 -78q-18 -80 -103 -80h-227q-51 0 -76.5 33t-13.5 82l330 1251q23 68 102 68h322q79 0 102 -68zM911 82h228h6q8 0 8 2t-2 6v4l-328 1247q-6 10 -24 11 h-322q-18 0 -24 -11l-330 -1247q-2 -10 -1 -11t13 -1h227q18 0 25 18l16 76q16 84 105 84h260q41 0 68.5 -23.5t35.5 -62.5l15 -74q6 -18 24 -18zM715 897l69 -317q10 -47 -16.5 -80t-77.5 -33h-104q-51 0 -79 34t-13 81l-2 -2l73 319q12 47 44 64.5t64 -1t42 -65.5z M586 549h104q12 0 14.5 2t-2.5 12l-63 291l-66 -291l-2 -2q-2 -8 0.5 -10t14.5 -2z" glyph-name="A" horiz-adv-x="1273" unicode="A"/><glyph d="M901 1366l328 -1251q12 -49 -13.5 -82t-76.5 -33h-228q-84 0 -102 80l-18 78q-2 20 -23 20h-260q-20 0 -25 -20l-18 -78q-18 -80 -103 -80h-227q-51 0 -76.5 33t-13.5 82l330 1251q23 68 102 68h322q79 0 102 -68zM911 82h228h6q8 0 8 2t-2 6v4l-328 1247q-6 10 -24 11 h-322q-18 0 -24 -11l-330 -1247q-2 -10 -1 -11t13 -1h227q18 0 25 18l16 76q16 84 105 84h260q41 0 68.5 -23.5t35.5 -62.5l15 -74q6 -18 24 -18zM715 897l69 -317q10 -47 -16.5 -80t-77.5 -33h-104q-51 0 -79 34t-13 81l-2 -2l73 319q12 47 44 64.5t64 -1t42 -65.5z M586 549h104q12 0 14.5 2t-2.5 12l-63 291l-66 -291l-2 -2q-2 -8 0.5 -10t14.5 -2z" glyph-name="A" horiz-adv-x="1273" unicode="a"/><glyph d="M1032 735q160 -104 160 -295q0 -207 -131 -323.5t-365 -116.5h-473q-45 0 -72.5 26.5t-27.5 71.5v1237q0 45 27.5 72t72.5 27h416q244 0 379 -115t135 -326q0 -166 -121 -258zM223 82h473q199 0 306.5 93t107.5 265q0 154 -131 232q-94 55 -6 121q98 68 98 200 q0 174 -110.5 266.5t-321.5 92.5h-416q-18 0 -18 -17v-1237q0 -16 18 -16zM618 801h-47q-45 0 -72.5 27.5t-27.5 72.5v107q0 45 27.5 71.5t72.5 26.5h47q186 0 187 -152q0 -74 -48.5 -113.5t-138.5 -39.5zM553 1008v-107q0 -18 18 -18h47q104 0 105 71q0 37 -23.5 53.5 t-81.5 16.5h-47q-18 0 -18 -16zM571 633h86q90 0 138.5 -40t48.5 -114q0 -152 -187 -151h-86q-45 0 -72.5 26.5t-27.5 71.5v106q0 45 27.5 73t72.5 28zM571 410h86q57 0 81 16t24 53q0 72 -105 72h-86q-18 0 -18 -19v-106q0 -16 18 -16z" glyph-name="B" horiz-adv-x="1253" unicode="B"/><glyph d="M1032 735q160 -104 160 -295q0 -207 -131 -323.5t-365 -116.5h-473q-45 0 -72.5 26.5t-27.5 71.5v1237q0 45 27.5 72t72.5 27h416q244 0 379 -115t135 -326q0 -166 -121 -258zM223 82h473q199 0 306.5 93t107.5 265q0 154 -131 232q-94 55 -6 121q98 68 98 200 q0 174 -110.5 266.5t-321.5 92.5h-416q-18 0 -18 -17v-1237q0 -16 18 -16zM618 801h-47q-45 0 -72.5 27.5t-27.5 72.5v107q0 45 27.5 71.5t72.5 26.5h47q186 0 187 -152q0 -74 -48.5 -113.5t-138.5 -39.5zM553 1008v-107q0 -18 18 -18h47q104 0 105 71q0 37 -23.5 53.5 t-81.5 16.5h-47q-18 0 -18 -16zM571 633h86q90 0 138.5 -40t48.5 -114q0 -152 -187 -151h-86q-45 0 -72.5 26.5t-27.5 71.5v106q0 45 27.5 73t72.5 28zM571 410h86q57 0 81 16t24 53q0 72 -105 72h-86q-18 0 -18 -19v-106q0 -16 18 -16z" glyph-name="B" horiz-adv-x="1253" unicode="b"/><glyph d="M791 1042q-131 0 -205 -87t-74 -238.5t73.5 -238.5t205.5 -87q152 0 229 76q47 45 89 27.5t42 -80.5v-213q0 -57 -33 -97q-115 -125 -366 -124q-297 0 -483.5 205.5t-186.5 531t186.5 531.5t483.5 206q252 0 366 -125q33 -39 33 -96v-213q0 -63 -42 -80.5t-89 27.5 q-77 75 -229 75zM430 716.5q0 186.5 98.5 297t262.5 110.5q172 0 278 -88v197q0 29 -12 43q-92 96 -305 96q-262 0 -425 -182t-163 -473t162.5 -473.5t425.5 -182.5q213 0 305 97q12 14 12 43v196q-106 -88 -278 -88q-164 0 -262.5 110.5t-98.5 297z" glyph-name="C" horiz-adv-x="1253" unicode="C"/><glyph d="M791 1042q-131 0 -205 -87t-74 -238.5t73.5 -238.5t205.5 -87q152 0 229 76q47 45 89 27.5t42 -80.5v-213q0 -57 -33 -97q-115 -125 -366 -124q-297 0 -483.5 205.5t-186.5 531t186.5 531.5t483.5 206q252 0 366 -125q33 -39 33 -96v-213q0 -63 -42 -80.5t-89 27.5 q-77 75 -229 75zM430 716.5q0 186.5 98.5 297t262.5 110.5q172 0 278 -88v197q0 29 -12 43q-92 96 -305 96q-262 0 -425 -182t-163 -473t162.5 -473.5t425.5 -182.5q213 0 305 97q12 14 12 43v196q-106 -88 -278 -88q-164 0 -262.5 110.5t-98.5 297z" glyph-name="C" horiz-adv-x="1253" unicode="c"/><glyph d="M618 0h-395q-45 0 -72.5 26.5t-27.5 71.5v1237q0 45 27.5 72t72.5 27h395q295 0 463 -191.5t168 -525.5t-168 -525.5t-463 -191.5zM223 82h395q260 0 404.5 167t144.5 468t-144 468t-405 167h-395q-18 0 -18 -17v-1237q0 -16 18 -16zM471 426v582q0 45 26.5 71.5 t71.5 26.5h49q137 0 210 -100.5t73 -289t-72.5 -288.5t-210.5 -100h-49q-45 0 -71.5 26.5t-26.5 71.5zM553 1008v-582q0 -16 16 -16h49q201 0 201 307t-201 307h-49q-16 0 -16 -16z" glyph-name="D" horiz-adv-x="1351" unicode="D"/><glyph d="M618 0h-395q-45 0 -72.5 26.5t-27.5 71.5v1237q0 45 27.5 72t72.5 27h395q295 0 463 -191.5t168 -525.5t-168 -525.5t-463 -191.5zM223 82h395q260 0 404.5 167t144.5 468t-144 468t-405 167h-395q-18 0 -18 -17v-1237q0 -16 18 -16zM471 426v582q0 45 26.5 71.5 t71.5 26.5h49q137 0 210 -100.5t73 -289t-72.5 -288.5t-210.5 -100h-49q-45 0 -71.5 26.5t-26.5 71.5zM553 1008v-582q0 -16 16 -16h49q201 0 201 307t-201 307h-49q-16 0 -16 -16z" glyph-name="D" horiz-adv-x="1351" unicode="d"/><glyph d="M1014 0h-791q-45 0 -72.5 26.5t-27.5 71.5v1237q0 45 27.5 72t72.5 27h791q45 0 72.5 -27t27.5 -72v-213q0 -45 -27.5 -71.5t-72.5 -26.5h-445q-16 0 -16 -16v-88q0 -10 3 -13.5t13 -3.5h271q45 0 72.5 -27.5t27.5 -72.5v-172q0 -45 -27.5 -73t-72.5 -28h-271 q-10 0 -13 -3t-3 -13v-88q0 -16 16 -16h445q45 0 72.5 -27t27.5 -72v-213q0 -45 -27.5 -71.5t-72.5 -26.5zM223 82h791q18 0 18 16v213q0 16 -18 17h-445q-45 0 -71.5 26.5t-26.5 71.5v88q0 45 26.5 71.5t71.5 26.5h271q18 0 18 19v172q0 18 -18 18h-271q-45 0 -71.5 26.5 t-26.5 72.5v88q0 45 26.5 71.5t71.5 26.5h445q18 0 18 16v213q0 16 -18 17h-791q-18 0 -18 -17v-1237q0 -16 18 -16z" glyph-name="E" horiz-adv-x="1236" unicode="E"/><glyph d="M1014 0h-791q-45 0 -72.5 26.5t-27.5 71.5v1237q0 45 27.5 72t72.5 27h791q45 0 72.5 -27t27.5 -72v-213q0 -45 -27.5 -71.5t-72.5 -26.5h-445q-16 0 -16 -16v-88q0 -10 3 -13.5t13 -3.5h271q45 0 72.5 -27.5t27.5 -72.5v-172q0 -45 -27.5 -73t-72.5 -28h-271 q-10 0 -13 -3t-3 -13v-88q0 -16 16 -16h445q45 0 72.5 -27t27.5 -72v-213q0 -45 -27.5 -71.5t-72.5 -26.5zM223 82h791q18 0 18 16v213q0 16 -18 17h-445q-45 0 -71.5 26.5t-26.5 71.5v88q0 45 26.5 71.5t71.5 26.5h271q18 0 18 19v172q0 18 -18 18h-271q-45 0 -71.5 26.5 t-26.5 72.5v88q0 45 26.5 71.5t71.5 26.5h445q18 0 18 16v213q0 16 -18 17h-791q-18 0 -18 -17v-1237q0 -16 18 -16z" glyph-name="E" horiz-adv-x="1236" unicode="e"/><glyph d="M455 0h-234q-45 0 -71.5 26.5t-26.5 71.5v1237q0 45 26.5 72t71.5 27h774q45 0 72 -27t27 -72v-213q0 -45 -27 -71.5t-72 -26.5h-426q-16 0 -16 -16v-156q0 -10 3 -13t13 -3h271q45 0 72.5 -28t27.5 -73v-192q0 -45 -27.5 -72t-72.5 -27h-271q-16 0 -16 -18v-328 q0 -45 -26.5 -71.5t-71.5 -26.5zM221 82h234q16 0 16 16v328q0 45 26.5 72.5t71.5 27.5h271q18 0 18 17v192q0 18 -18 19h-271q-45 0 -71.5 26.5t-26.5 71.5v156q0 45 26.5 71.5t71.5 26.5h426q10 0 13.5 3t3.5 13v213q0 10 -3 13.5t-14 3.5h-774q-10 0 -13 -3t-3 -14v-1237 q0 -10 3 -13t13 -3z" glyph-name="F" horiz-adv-x="1175" unicode="F"/><glyph d="M455 0h-234q-45 0 -71.5 26.5t-26.5 71.5v1237q0 45 26.5 72t71.5 27h774q45 0 72 -27t27 -72v-213q0 -45 -27 -71.5t-72 -26.5h-426q-16 0 -16 -16v-156q0 -10 3 -13t13 -3h271q45 0 72.5 -28t27.5 -73v-192q0 -45 -27.5 -72t-72.5 -27h-271q-16 0 -16 -18v-328 q0 -45 -26.5 -71.5t-71.5 -26.5zM221 82h234q16 0 16 16v328q0 45 26.5 72.5t71.5 27.5h271q18 0 18 17v192q0 18 -18 19h-271q-45 0 -71.5 26.5t-26.5 71.5v156q0 45 26.5 71.5t71.5 26.5h426q10 0 13.5 3t3.5 13v213q0 10 -3 13.5t-14 3.5h-774q-10 0 -13 -3t-3 -14v-1237 q0 -10 3 -13t13 -3z" glyph-name="F" horiz-adv-x="1175" unicode="f"/><glyph d="M754 874h432q45 0 72.5 -27.5t27.5 -72.5v-569q0 -70 -49 -103q-70 -53 -197 -87.5t-249 -34.5q-322 0 -515.5 201.5t-193.5 535.5q0 328 196.5 532.5t512.5 204.5q246 0 397 -86q59 -35 59 -102v-234q0 -61 -40 -80.5t-91 15.5q-111 76 -325 75q-135 0 -207 -85 t-72 -240q0 -326 279 -326q33 0 47 2q18 0 18 19v53q0 18 -18 18h-84q-45 0 -72 27t-27 72v192q0 45 27 72.5t72 27.5zM1204 205v569q0 18 -18 19h-432q-16 0 -17 -19v-192q0 -10 3 -13.5t14 -3.5h84q45 0 72.5 -27.5t27.5 -72.5v-53q0 -43 -25.5 -70t-66.5 -31 q-18 -2 -55 -2q-174 0 -267.5 105.5t-93.5 302.5q0 188 96.5 297.5t264.5 109.5q244 0 370 -90q2 -2 4 -2v234q0 20 -18 32q-131 74 -356 74q-283 0 -455 -180t-172 -475q0 -301 169 -478.5t458 -177.5q109 0 223 31t174 76q16 12 16 37z" glyph-name="G" horiz-adv-x="1388" unicode="G"/><glyph d="M754 874h432q45 0 72.5 -27.5t27.5 -72.5v-569q0 -70 -49 -103q-70 -53 -197 -87.5t-249 -34.5q-322 0 -515.5 201.5t-193.5 535.5q0 328 196.5 532.5t512.5 204.5q246 0 397 -86q59 -35 59 -102v-234q0 -61 -40 -80.5t-91 15.5q-111 76 -325 75q-135 0 -207 -85 t-72 -240q0 -326 279 -326q33 0 47 2q18 0 18 19v53q0 18 -18 18h-84q-45 0 -72 27t-27 72v192q0 45 27 72.5t72 27.5zM1204 205v569q0 18 -18 19h-432q-16 0 -17 -19v-192q0 -10 3 -13.5t14 -3.5h84q45 0 72.5 -27.5t27.5 -72.5v-53q0 -43 -25.5 -70t-66.5 -31 q-18 -2 -55 -2q-174 0 -267.5 105.5t-93.5 302.5q0 188 96.5 297.5t264.5 109.5q244 0 370 -90q2 -2 4 -2v234q0 20 -18 32q-131 74 -356 74q-283 0 -455 -180t-172 -475q0 -301 169 -478.5t458 -177.5q109 0 223 31t174 76q16 12 16 37z" glyph-name="G" horiz-adv-x="1388" unicode="g"/><glyph d="M453 0h-232q-45 0 -71.5 26.5t-26.5 71.5v1237q0 45 26.5 72t71.5 27h232q45 0 71.5 -27t26.5 -72v-397q0 -16 18 -16h250q18 0 19 16v397q0 45 26.5 72t71.5 27h231q45 0 72 -27t27 -72v-1237q0 -45 -27 -71.5t-72 -26.5h-231q-45 0 -71.5 26.5t-26.5 71.5v398 q0 16 -19 16h-250q-18 0 -18 -16v-398q0 -45 -26.5 -71.5t-71.5 -26.5zM221 82h232q10 0 13 3t3 13v398q0 45 27.5 71.5t72.5 26.5h250q45 0 73 -26.5t28 -71.5v-398q0 -10 3 -13t13 -3h231q10 0 13.5 3t3.5 13v1237q0 10 -3 13.5t-14 3.5h-231q-10 0 -13 -3t-3 -14v-397 q0 -45 -28 -71.5t-73 -26.5h-250q-45 0 -72.5 26.5t-27.5 71.5v397q0 10 -3 13.5t-13 3.5h-232q-10 0 -13 -3t-3 -14v-1237q0 -10 3 -13t13 -3z" glyph-name="H" horiz-adv-x="1388" unicode="H"/><glyph d="M453 0h-232q-45 0 -71.5 26.5t-26.5 71.5v1237q0 45 26.5 72t71.5 27h232q45 0 71.5 -27t26.5 -72v-397q0 -16 18 -16h250q18 0 19 16v397q0 45 26.5 72t71.5 27h231q45 0 72 -27t27 -72v-1237q0 -45 -27 -71.5t-72 -26.5h-231q-45 0 -71.5 26.5t-26.5 71.5v398 q0 16 -19 16h-250q-18 0 -18 -16v-398q0 -45 -26.5 -71.5t-71.5 -26.5zM221 82h232q10 0 13 3t3 13v398q0 45 27.5 71.5t72.5 26.5h250q45 0 73 -26.5t28 -71.5v-398q0 -10 3 -13t13 -3h231q10 0 13.5 3t3.5 13v1237q0 10 -3 13.5t-14 3.5h-231q-10 0 -13 -3t-3 -14v-397 q0 -45 -28 -71.5t-73 -26.5h-250q-45 0 -72.5 26.5t-27.5 71.5v397q0 10 -3 13.5t-13 3.5h-232q-10 0 -13 -3t-3 -14v-1237q0 -10 3 -13t13 -3z" glyph-name="H" horiz-adv-x="1388" unicode="h"/><glyph d="M123 98v1237q0 45 26.5 72t71.5 27h234q45 0 71.5 -27t26.5 -72v-1237q0 -45 -26.5 -71.5t-71.5 -26.5h-234q-45 0 -71.5 26.5t-26.5 71.5zM205 1335v-1237q0 -10 3 -13t13 -3h234q10 0 13 3t3 13v1237q0 10 -3 13.5t-13 3.5h-234q-10 0 -13 -3.5t-3 -13.5z" glyph-name="I" horiz-adv-x="675" unicode="I"/><glyph d="M123 98v1237q0 45 26.5 72t71.5 27h234q45 0 71.5 -27t26.5 -72v-1237q0 -45 -26.5 -71.5t-71.5 -26.5h-234q-45 0 -71.5 26.5t-26.5 71.5zM205 1335v-1237q0 -10 3 -13t13 -3h234q10 0 13 3t3 13v1237q0 10 -3 13.5t-13 3.5h-234q-10 0 -13 -3.5t-3 -13.5z" glyph-name="I" horiz-adv-x="675" unicode="i"/><glyph d="M580 1434h231q45 0 71.5 -27t26.5 -72v-618q0 -436 -135 -601t-467 -136q-55 4 -137 30q-68 27 -68 107v223q0 55 35 75.5t88 -1.5q41 -18 88 -25q111 -10 139.5 45t28.5 283v618q0 45 27 72t72 27zM827 717v618q0 16 -16 17h-231q-16 0 -17 -17v-618q0 -260 -50 -341 t-208 -69q-55 6 -112 33q-8 4 -9 4v-4v-223q0 -23 15 -29q70 -23 114 -27q293 -27 403.5 114t110.5 542z" glyph-name="J" horiz-adv-x="1032" unicode="J"/><glyph d="M580 1434h231q45 0 71.5 -27t26.5 -72v-618q0 -436 -135 -601t-467 -136q-55 4 -137 30q-68 27 -68 107v223q0 55 35 75.5t88 -1.5q41 -18 88 -25q111 -10 139.5 45t28.5 283v618q0 45 27 72t72 27zM827 717v618q0 16 -16 17h-231q-16 0 -17 -17v-618q0 -260 -50 -341 t-208 -69q-55 6 -112 33q-8 4 -9 4v-4v-223q0 -23 15 -29q70 -23 114 -27q293 -27 403.5 114t110.5 542z" glyph-name="J" horiz-adv-x="1032" unicode="j"/><glyph d="M1233 125l2 -2q20 -51 -5.5 -87t-78.5 -36h-225q-80 0 -105 70l-174 415q-2 4 -2 11q-2 0 -2 -4q0 -2 -2 -5h-2l-74 -106h2q-14 -23 -14 -49v-234q0 -45 -26.5 -71.5t-71.5 -26.5h-232q-45 0 -72.5 26.5t-27.5 71.5v1237q0 45 27.5 72t72.5 27h232q45 0 71.5 -27 t26.5 -72v-331l246 374v-2q33 57 104 58h217q59 0 82 -41t-10 -93l-274 -405q-12 -16 -5 -43zM926 82h225h12l-6 12l2 -2l-323 731q-20 66 12 117l274 406l6 6h-8h-217q-25 0 -35 -17v-2l-250 -381q-41 -61 -94 -44.5t-53 89.5v338q0 10 -3 13.5t-13 3.5h-232q-18 0 -18 -17 v-1237q0 -16 18 -16h232q10 0 13 3t3 13v234q0 53 27 94h2l73 106h-2q33 51 81 47t71 -61l174 -418q6 -18 29 -18z" glyph-name="K" horiz-adv-x="1366" unicode="K"/><glyph d="M1233 125l2 -2q20 -51 -5.5 -87t-78.5 -36h-225q-80 0 -105 70l-174 415q-2 4 -2 11q-2 0 -2 -4q0 -2 -2 -5h-2l-74 -106h2q-14 -23 -14 -49v-234q0 -45 -26.5 -71.5t-71.5 -26.5h-232q-45 0 -72.5 26.5t-27.5 71.5v1237q0 45 27.5 72t72.5 27h232q45 0 71.5 -27 t26.5 -72v-331l246 374v-2q33 57 104 58h217q59 0 82 -41t-10 -93l-274 -405q-12 -16 -5 -43zM926 82h225h12l-6 12l2 -2l-323 731q-20 66 12 117l274 406l6 6h-8h-217q-25 0 -35 -17v-2l-250 -381q-41 -61 -94 -44.5t-53 89.5v338q0 10 -3 13.5t-13 3.5h-232q-18 0 -18 -17 v-1237q0 -16 18 -16h232q10 0 13 3t3 13v234q0 53 27 94h2l73 106h-2q33 51 81 47t71 -61l174 -418q6 -18 29 -18z" glyph-name="K" horiz-adv-x="1366" unicode="k"/><glyph d="M938 0h-717q-45 0 -71.5 26.5t-26.5 71.5v1237q0 45 26.5 72t71.5 27h234q45 0 71.5 -27t26.5 -72v-909q0 -16 16 -16h369q45 0 71.5 -27t26.5 -72v-213q0 -45 -26.5 -71.5t-71.5 -26.5zM221 82h717q16 0 16 16v213q0 16 -16 17h-369q-45 0 -71.5 26.5t-26.5 71.5v909 q0 10 -3 13.5t-13 3.5h-234q-16 0 -16 -17v-1237q0 -16 16 -16z" glyph-name="L" horiz-adv-x="1138" unicode="L"/><glyph d="M938 0h-717q-45 0 -71.5 26.5t-26.5 71.5v1237q0 45 26.5 72t71.5 27h234q45 0 71.5 -27t26.5 -72v-909q0 -16 16 -16h369q45 0 71.5 -27t26.5 -72v-213q0 -45 -26.5 -71.5t-71.5 -26.5zM221 82h717q16 0 16 16v213q0 16 -16 17h-369q-45 0 -71.5 26.5t-26.5 71.5v909 q0 10 -3 13.5t-13 3.5h-234q-16 0 -16 -17v-1237q0 -16 16 -16z" glyph-name="L" horiz-adv-x="1138" unicode="l"/><glyph d="M1180 1434h336q45 0 71.5 -27t26.5 -72v-1237q0 -45 -26.5 -71.5t-71.5 -26.5h-232q-45 0 -71.5 26.5t-26.5 71.5v441l-113 -459q-18 -80 -102 -80h-205q-84 0 -102 80l-113 459v-441q0 -45 -26.5 -71.5t-71.5 -26.5h-232q-45 0 -71.5 26.5t-26.5 71.5v1237q0 45 26.5 72 t71.5 27h336q82 0 102 -78v2l209 -731l209 731v-2q21 78 103 78zM1532 98v1237q0 10 -3 13.5t-13 3.5h-336q-18 0 -25 -17v-2l-211 -737q-12 -45 -44 -62.5t-62.5 0t-44.5 62.5l-211 737v2q-6 16 -25 17h-336q-10 0 -13 -3t-3 -14v-1237q0 -10 3 -13t13 -3h232q10 0 13 3 t3 13v510q0 41 31.5 62.5t66.5 9.5t45 -53l129 -527q4 -18 25 -18h205q20 0 24 18l129 527q10 41 45 54t67 -8.5t32 -62.5v-512q0 -10 3 -13t13 -3h232q10 0 13 3t3 13z" glyph-name="M" horiz-adv-x="1736" unicode="M"/><glyph d="M1180 1434h336q45 0 71.5 -27t26.5 -72v-1237q0 -45 -26.5 -71.5t-71.5 -26.5h-232q-45 0 -71.5 26.5t-26.5 71.5v441l-113 -459q-18 -80 -102 -80h-205q-84 0 -102 80l-113 459v-441q0 -45 -26.5 -71.5t-71.5 -26.5h-232q-45 0 -71.5 26.5t-26.5 71.5v1237q0 45 26.5 72 t71.5 27h336q82 0 102 -78v2l209 -731l209 731v-2q21 78 103 78zM1532 98v1237q0 10 -3 13.5t-13 3.5h-336q-18 0 -25 -17v-2l-211 -737q-12 -45 -44 -62.5t-62.5 0t-44.5 62.5l-211 737v2q-6 16 -25 17h-336q-10 0 -13 -3t-3 -14v-1237q0 -10 3 -13t13 -3h232q10 0 13 3 t3 13v510q0 41 31.5 62.5t66.5 9.5t45 -53l129 -527q4 -18 25 -18h205q20 0 24 18l129 527q10 41 45 54t67 -8.5t32 -62.5v-512q0 -10 3 -13t13 -3h232q10 0 13 3t3 13z" glyph-name="M" horiz-adv-x="1736" unicode="m"/><glyph d="M956 1434h232q45 0 71.5 -27t26.5 -72v-1237q0 -45 -26.5 -71.5t-71.5 -26.5h-244q-68 0 -104 66l-287 555v-523q0 -45 -27.5 -71.5t-72.5 -26.5h-232q-45 0 -71.5 26.5t-26.5 71.5v1237q0 45 26.5 72t71.5 27h244q68 0 104 -66l287 -555v522q0 45 27.5 72t72.5 27z M1204 98v1237q0 10 -3 13.5t-13 3.5h-232q-18 0 -18 -17v-540q0 -76 -54.5 -89.5t-90.5 52.5l-2 2l-295 571q-10 20 -31 21h-244q-10 0 -13 -3t-3 -14v-1237q0 -10 3 -13t13 -3h232q18 0 18 16v541q0 76 54.5 89t90.5 -52l2 -2l295 -572q10 -20 31 -20h244q10 0 13 3t3 13z " glyph-name="N" horiz-adv-x="1409" unicode="N"/><glyph d="M956 1434h232q45 0 71.5 -27t26.5 -72v-1237q0 -45 -26.5 -71.5t-71.5 -26.5h-244q-68 0 -104 66l-287 555v-523q0 -45 -27.5 -71.5t-72.5 -26.5h-232q-45 0 -71.5 26.5t-26.5 71.5v1237q0 45 26.5 72t71.5 27h244q68 0 104 -66l287 -555v522q0 45 27.5 72t72.5 27z M1204 98v1237q0 10 -3 13.5t-13 3.5h-232q-18 0 -18 -17v-540q0 -76 -54.5 -89.5t-90.5 52.5l-2 2l-295 571q-10 20 -31 21h-244q-10 0 -13 -3t-3 -14v-1237q0 -10 3 -13t13 -3h232q18 0 18 16v541q0 76 54.5 89t90.5 -52l2 -2l295 -572q10 -20 31 -20h244q10 0 13 3t3 13z " glyph-name="N" horiz-adv-x="1409" unicode="n"/><glyph d="M772 -20q-295 0 -482.5 205.5t-187.5 531t187.5 531.5t482.5 206t482.5 -206t187.5 -531.5t-187.5 -531t-482.5 -205.5zM772 61q262 0 425 182.5t163 473.5t-163 473t-425 182t-425 -182t-163 -473t163 -473.5t425 -182.5zM772.5 309q-149.5 0 -235.5 108.5t-86 299 t86 299t235.5 108.5t235.5 -108.5t86 -299t-86 -299t-235.5 -108.5zM772 391q115 0 177.5 85t62.5 240.5t-62.5 240.5t-177.5 85t-177.5 -85t-62.5 -240.5t62.5 -240.5t177.5 -85z" glyph-name="O" horiz-adv-x="1544" unicode="O"/><glyph d="M772 -20q-295 0 -482.5 205.5t-187.5 531t187.5 531.5t482.5 206t482.5 -206t187.5 -531.5t-187.5 -531t-482.5 -205.5zM772 61q262 0 425 182.5t163 473.5t-163 473t-425 182t-425 -182t-163 -473t163 -473.5t425 -182.5zM772.5 309q-149.5 0 -235.5 108.5t-86 299 t86 299t235.5 108.5t235.5 -108.5t86 -299t-86 -299t-235.5 -108.5zM772 391q115 0 177.5 85t62.5 240.5t-62.5 240.5t-177.5 85t-177.5 -85t-62.5 -240.5t62.5 -240.5t177.5 -85z" glyph-name="O" horiz-adv-x="1544" unicode="o"/><glyph d="M455 0h-232q-45 0 -72.5 26.5t-27.5 71.5v1237q0 45 27.5 72t72.5 27h398q272 0 421.5 -131.5t149.5 -373t-149.5 -372.5t-421.5 -131h-50q-18 0 -18 -16v-312q0 -45 -26.5 -71.5t-71.5 -26.5zM223 82h232q10 0 13 3t3 13v312q0 45 27.5 71.5t72.5 26.5h50 q240 0 364.5 107.5t124.5 314.5t-125 314.5t-364 107.5h-398q-18 0 -18 -17v-1237q0 -16 18 -16zM471 836v190q0 45 27.5 71.5t72.5 26.5h50q106 0 164.5 -50t58.5 -144t-58.5 -144.5t-164.5 -50.5h-50q-45 0 -72.5 28t-27.5 73zM553 1026v-190q0 -18 18 -19h50 q141 0 141 112.5t-141 112.5h-50q-18 0 -18 -16z" glyph-name="P" horiz-adv-x="1314" unicode="P"/><glyph d="M455 0h-232q-45 0 -72.5 26.5t-27.5 71.5v1237q0 45 27.5 72t72.5 27h398q272 0 421.5 -131.5t149.5 -373t-149.5 -372.5t-421.5 -131h-50q-18 0 -18 -16v-312q0 -45 -26.5 -71.5t-71.5 -26.5zM223 82h232q10 0 13 3t3 13v312q0 45 27.5 71.5t72.5 26.5h50 q240 0 364.5 107.5t124.5 314.5t-125 314.5t-364 107.5h-398q-18 0 -18 -17v-1237q0 -16 18 -16zM471 836v190q0 45 27.5 71.5t72.5 26.5h50q106 0 164.5 -50t58.5 -144t-58.5 -144.5t-164.5 -50.5h-50q-45 0 -72.5 28t-27.5 73zM553 1026v-190q0 -18 18 -19h50 q141 0 141 112.5t-141 112.5h-50q-18 0 -18 -16z" glyph-name="P" horiz-adv-x="1314" unicode="p"/><glyph d="M1356 293l78 -76q31 -31 30.5 -68.5t-28.5 -70.5h-2l-121 -123q-66 -59 -133 8h2l-78 78q-16 14 -35 4q-137 -66 -297 -65q-295 0 -482.5 205.5t-187.5 529t187.5 530.5t482.5 207t482.5 -206t187.5 -531q0 -219 -90 -389q-8 -21 4 -33zM1376 135h-2q12 10 2 25l-78 76 q-55 55 -20 126q82 152 82 353q0 291 -163 473t-425 182q-260 0 -424 -182t-164 -473t164 -472.5t424 -181.5q145 0 262 58q74 35 127 -21l78 -78h2q8 -10 14 -8zM772.5 1124q149.5 0 235.5 -109.5t86 -299.5q0 -16 -4 -82q-8 -59 -56.5 -72.5t-91.5 29.5l-76 76 q-12 12 -20 0h-2l-113 -115h2q-12 -12 -2 -23l78 -77q29 -29 34 -63t-14.5 -57.5t-56.5 -23.5q-150 0 -235.5 109.5t-85.5 298.5q0 190 86 299.5t235.5 109.5zM1008 639q4 57 4 76q0 156 -62.5 241.5t-177.5 85.5t-177.5 -86t-62.5 -241q0 -150 58.5 -235t165.5 -91l-4 4 l-78 78q-66 66 -2 137h2l112 115h-2q31 33 69 33t71 -33l75 -76z" glyph-name="Q" horiz-adv-x="1525" unicode="Q"/><glyph d="M1356 293l78 -76q31 -31 30.5 -68.5t-28.5 -70.5h-2l-121 -123q-66 -59 -133 8h2l-78 78q-16 14 -35 4q-137 -66 -297 -65q-295 0 -482.5 205.5t-187.5 529t187.5 530.5t482.5 207t482.5 -206t187.5 -531q0 -219 -90 -389q-8 -21 4 -33zM1376 135h-2q12 10 2 25l-78 76 q-55 55 -20 126q82 152 82 353q0 291 -163 473t-425 182q-260 0 -424 -182t-164 -473t164 -472.5t424 -181.5q145 0 262 58q74 35 127 -21l78 -78h2q8 -10 14 -8zM772.5 1124q149.5 0 235.5 -109.5t86 -299.5q0 -16 -4 -82q-8 -59 -56.5 -72.5t-91.5 29.5l-76 76 q-12 12 -20 0h-2l-113 -115h2q-12 -12 -2 -23l78 -77q29 -29 34 -63t-14.5 -57.5t-56.5 -23.5q-150 0 -235.5 109.5t-85.5 298.5q0 190 86 299.5t235.5 109.5zM1008 639q4 57 4 76q0 156 -62.5 241.5t-177.5 85.5t-177.5 -86t-62.5 -241q0 -150 58.5 -235t165.5 -91l-4 4 l-78 78q-66 66 -2 137h2l112 115h-2q31 33 69 33t71 -33l75 -76z" glyph-name="Q" horiz-adv-x="1525" unicode="q"/><glyph d="M455 0h-232q-45 0 -72.5 26.5t-27.5 71.5v1237q0 45 27.5 72t72.5 27h379q283 0 436.5 -129t153.5 -367q0 -252 -182 -375q-18 -10 -11 -28l179 -410l2 -2q20 -51 -5.5 -87t-78.5 -36h-226q-72 0 -98 55l-158 391q-6 18 -26 19h-17q-18 0 -18 -16v-351q0 -45 -26.5 -71.5 t-71.5 -26.5zM223 82h232q10 0 13 3t3 13v351q0 45 27.5 71.5t72.5 26.5h17q76 0 104 -72l156 -385q6 -8 22 -8h226h12l-6 12l2 -2l-182 412q-29 82 43 129q145 96 145 305q0 203 -129 308.5t-379 105.5h-379q-18 0 -18 -17v-1237q0 -16 18 -16zM471 854v172q0 45 27.5 71.5 t72.5 26.5h31q129 0 185.5 -43t56.5 -143q0 -98 -56.5 -140t-185.5 -42h-31q-45 0 -72.5 26.5t-27.5 71.5zM553 1026v-172q0 -16 18 -16h31q96 0 128 20.5t32 79.5q0 63 -32 83.5t-128 20.5h-31q-18 0 -18 -16z" glyph-name="R" horiz-adv-x="1294" unicode="R"/><glyph d="M455 0h-232q-45 0 -72.5 26.5t-27.5 71.5v1237q0 45 27.5 72t72.5 27h379q283 0 436.5 -129t153.5 -367q0 -252 -182 -375q-18 -10 -11 -28l179 -410l2 -2q20 -51 -5.5 -87t-78.5 -36h-226q-72 0 -98 55l-158 391q-6 18 -26 19h-17q-18 0 -18 -16v-351q0 -45 -26.5 -71.5 t-71.5 -26.5zM223 82h232q10 0 13 3t3 13v351q0 45 27.5 71.5t72.5 26.5h17q76 0 104 -72l156 -385q6 -8 22 -8h226h12l-6 12l2 -2l-182 412q-29 82 43 129q145 96 145 305q0 203 -129 308.5t-379 105.5h-379q-18 0 -18 -17v-1237q0 -16 18 -16zM471 854v172q0 45 27.5 71.5 t72.5 26.5h31q129 0 185.5 -43t56.5 -143q0 -98 -56.5 -140t-185.5 -42h-31q-45 0 -72.5 26.5t-27.5 71.5zM553 1026v-172q0 -16 18 -16h31q96 0 128 20.5t32 79.5q0 63 -32 83.5t-128 20.5h-31q-18 0 -18 -16z" glyph-name="R" horiz-adv-x="1294" unicode="r"/><glyph d="M969 750q88 -66 124.5 -140.5t36.5 -183.5q0 -203 -143 -324.5t-381 -121.5q-135 0 -260 28.5t-194 73.5q-49 35 -50 104v203q0 57 39 77.5t90 -9.5q143 -86 375 -86q94 0 94 55q0 41 -194 129q-164 76 -242 127q-98 66 -140 140.5t-42 185.5q0 203 143.5 324.5 t380.5 121.5q276 0 404 -104q43 -35 43 -101v-200q0 -59 -41 -80t-92 12q-125 82 -314 82q-94 0 -94 -55q0 -35 174 -107q199 -85 283 -151zM606 61q203 0 323 98.5t120 266.5q0 90 -29 146.5t-100 111.5q-82 66 -265 141q-125 51 -175 89t-50 94q0 63 47 100t129 37 q213 0 359 -94q4 -4 6 -4v2v200q0 27 -15 37q-102 86 -350 86q-203 0 -322.5 -98t-119.5 -266q0 -90 31.5 -146.5t113.5 -109.5q80 -53 232 -123q80 -37 120.5 -58.5t80.5 -61.5t40 -83q0 -63 -47 -100t-129 -37q-256 0 -416 98l-6 4v-2v-203q0 -27 13 -34q59 -41 172.5 -66 t236.5 -25z" glyph-name="S" horiz-adv-x="1150" unicode="S"/><glyph d="M969 750q88 -66 124.5 -140.5t36.5 -183.5q0 -203 -143 -324.5t-381 -121.5q-135 0 -260 28.5t-194 73.5q-49 35 -50 104v203q0 57 39 77.5t90 -9.5q143 -86 375 -86q94 0 94 55q0 41 -194 129q-164 76 -242 127q-98 66 -140 140.5t-42 185.5q0 203 143.5 324.5 t380.5 121.5q276 0 404 -104q43 -35 43 -101v-200q0 -59 -41 -80t-92 12q-125 82 -314 82q-94 0 -94 -55q0 -35 174 -107q199 -85 283 -151zM606 61q203 0 323 98.5t120 266.5q0 90 -29 146.5t-100 111.5q-82 66 -265 141q-125 51 -175 89t-50 94q0 63 47 100t129 37 q213 0 359 -94q4 -4 6 -4v2v200q0 27 -15 37q-102 86 -350 86q-203 0 -322.5 -98t-119.5 -266q0 -90 31.5 -146.5t113.5 -109.5q80 -53 232 -123q80 -37 120.5 -58.5t80.5 -61.5t40 -83q0 -63 -47 -100t-129 -37q-256 0 -416 98l-6 4v-2v-203q0 -27 13 -34q59 -41 172.5 -66 t236.5 -25z" glyph-name="S" horiz-adv-x="1150" unicode="s"/><glyph d="M385 1024h-203q-45 0 -72.5 26.5t-27.5 71.5v213q0 45 27.5 72t72.5 27h869q45 0 72.5 -27t27.5 -72v-213q0 -45 -27.5 -71.5t-72.5 -26.5h-203q-16 0 -17 -16v-910q0 -45 -26.5 -71.5t-71.5 -26.5h-233q-45 0 -72 26.5t-27 71.5v910q0 16 -16 16zM182 1106h203 q45 0 71.5 -26.5t26.5 -71.5v-910q0 -10 3 -13t14 -3h233q10 0 13.5 3t3.5 13v910q0 45 26.5 71.5t71.5 26.5h203q18 0 18 16v213q0 16 -18 17h-869q-18 0 -18 -17v-213q0 -16 18 -16z" glyph-name="T" horiz-adv-x="1232" unicode="T"/><glyph d="M385 1024h-203q-45 0 -72.5 26.5t-27.5 71.5v213q0 45 27.5 72t72.5 27h869q45 0 72.5 -27t27.5 -72v-213q0 -45 -27.5 -71.5t-72.5 -26.5h-203q-16 0 -17 -16v-910q0 -45 -26.5 -71.5t-71.5 -26.5h-233q-45 0 -72 26.5t-27 71.5v910q0 16 -16 16zM182 1106h203 q45 0 71.5 -26.5t26.5 -71.5v-910q0 -10 3 -13t14 -3h233q10 0 13.5 3t3.5 13v910q0 45 26.5 71.5t71.5 26.5h203q18 0 18 16v213q0 16 -18 17h-869q-18 0 -18 -17v-213q0 -16 18 -16z" glyph-name="T" horiz-adv-x="1232" unicode="t"/><glyph d="M704.5 -20q-311.5 0 -446.5 172t-135 565v620q0 45 26.5 72t71.5 27h232q45 0 72.5 -27t27.5 -72v-620q0 -195 30.5 -260.5t121 -65.5t121 65.5t30.5 260.5v618q0 45 27.5 72t72.5 27h232q45 0 71.5 -27t26.5 -72v-618q0 -393 -135 -565t-446.5 -172zM704.5 61 q274.5 0 387 147.5t112.5 508.5v618q0 10 -3 13.5t-13 3.5h-232q-18 0 -18 -17v-618q0 -227 -51 -317.5t-182.5 -90.5t-182.5 90t-51 318v620q0 16 -18 17h-232q-10 0 -13 -3t-3 -14v-620q0 -360 112.5 -508t387 -148z" glyph-name="U" horiz-adv-x="1409" unicode="U"/><glyph d="M704.5 -20q-311.5 0 -446.5 172t-135 565v620q0 45 26.5 72t71.5 27h232q45 0 72.5 -27t27.5 -72v-620q0 -195 30.5 -260.5t121 -65.5t121 65.5t30.5 260.5v618q0 45 27.5 72t72.5 27h232q45 0 71.5 -27t26.5 -72v-618q0 -393 -135 -565t-446.5 -172zM704.5 61 q274.5 0 387 147.5t112.5 508.5v618q0 10 -3 13.5t-13 3.5h-232q-18 0 -18 -17v-618q0 -227 -51 -317.5t-182.5 -90.5t-182.5 90t-51 318v620q0 16 -18 17h-232q-10 0 -13 -3t-3 -14v-620q0 -360 112.5 -508t387 -148z" glyph-name="U" horiz-adv-x="1409" unicode="u"/><glyph d="M911 1434h228q51 0 76.5 -33t13.5 -82l-328 -1251q-23 -68 -102 -68h-322q-80 0 -102 68l-330 1251q-12 49 13.5 82t76.5 33h227q82 0 105 -82l172 -768l168 768l2 2q18 80 102 80zM823 92l328 1247q2 10 1 11.5t-13 1.5h-228q-18 0 -24 -19l2 2l-174 -796 q-16 -74 -75.5 -74t-76.5 74l-176 794q-6 18 -25 19h-227q-14 0 -14 -2l2 -11l330 -1247q6 -10 24 -10h322q18 0 24 10z" glyph-name="V" horiz-adv-x="1273" unicode="V"/><glyph d="M911 1434h228q51 0 76.5 -33t13.5 -82l-328 -1251q-23 -68 -102 -68h-322q-80 0 -102 68l-330 1251q-12 49 13.5 82t76.5 33h227q82 0 105 -82l172 -768l168 768l2 2q18 80 102 80zM823 92l328 1247q2 10 1 11.5t-13 1.5h-228q-18 0 -24 -19l2 2l-174 -796 q-16 -74 -75.5 -74t-76.5 74l-176 794q-6 18 -25 19h-227q-14 0 -14 -2l2 -11l330 -1247q6 -10 24 -10h322q18 0 24 10z" glyph-name="V" horiz-adv-x="1273" unicode="v"/><glyph d="M1456 1434h232q51 0 77.5 -34t12.5 -81l2 2l-281 -1241q-18 -80 -102 -80h-262q-82 0 -99 72l-114 592l-115 -592q-16 -72 -98 -72h-263q-82 0 -104 82l-279 1239l3 -2q-14 47 12 81t78 34h231q86 0 102 -84l115 -605l113 603q16 86 102 86h205q86 0 102 -84l113 -605 l115 603q16 86 102 86zM1698 1337l2 2q2 8 0 10.5t-12 2.5h-232q-18 0 -20 -19l-123 -643q-8 -49 -42 -67.5t-68 2t-40 69.5v-2l-119 643q-2 16 -20 17h-205q-18 0 -20 -19l-119 -641v2q-6 -49 -39 -69.5t-66.5 -2t-44.5 67.5l-122 645q-2 16 -21 17h-231q-10 0 -12.5 -2 t-0.5 -11l2 -2l277 -1237q6 -18 24 -18h263q16 0 18 8l119 621q8 49 42 67.5t67.5 -1t41.5 -66.5l119 -621q2 -8 19 -8h262q20 0 22 16z" glyph-name="W" horiz-adv-x="1843" unicode="W"/><glyph d="M1456 1434h232q51 0 77.5 -34t12.5 -81l2 2l-281 -1241q-18 -80 -102 -80h-262q-82 0 -99 72l-114 592l-115 -592q-16 -72 -98 -72h-263q-82 0 -104 82l-279 1239l3 -2q-14 47 12 81t78 34h231q86 0 102 -84l115 -605l113 603q16 86 102 86h205q86 0 102 -84l113 -605 l115 603q16 86 102 86zM1698 1337l2 2q2 8 0 10.5t-12 2.5h-232q-18 0 -20 -19l-123 -643q-8 -49 -42 -67.5t-68 2t-40 69.5v-2l-119 643q-2 16 -20 17h-205q-18 0 -20 -19l-119 -641v2q-6 -49 -39 -69.5t-66.5 -2t-44.5 67.5l-122 645q-2 16 -21 17h-231q-10 0 -12.5 -2 t-0.5 -11l2 -2l277 -1237q6 -18 24 -18h263q16 0 18 8l119 621q8 49 42 67.5t67.5 -1t41.5 -66.5l119 -621q2 -8 19 -8h262q20 0 22 16z" glyph-name="W" horiz-adv-x="1843" unicode="w"/><glyph d="M936 698l358 -565q33 -49 9.5 -91t-82.5 -42h-238q-66 0 -104 57l-181 283q-6 8 -6 12q0 -4 -6 -12l-180 -281q-37 -59 -105 -59h-237q-59 0 -83 42t9 91l359 565q12 18 0 37l-359 565q-33 49 -9.5 91.5t83.5 42.5h237q66 0 105 -58l180 -282q6 -8 6 -13q0 4 6 13 l181 280q37 59 104 60h238q59 0 82.5 -42t-9.5 -92l-358 -565q-12 -19 0 -37zM983 82h238h10q-2 0 -6 6l-359 565q-39 63 0 127l359 566q4 6 6 6h-10h-238q-23 0 -35 -21l-180 -282q-31 -47 -76 -47.5t-76 47.5l-180 284q-12 18 -35 19h-237h-10q2 0 6 -6l358 -566 q39 -63 0 -127l-358 -565q-4 -6 -6 -6h10h237q23 0 35 20l180 283q31 47 76 47t76 -47l180 -285q12 -18 35 -18z" glyph-name="X" horiz-adv-x="1384" unicode="X"/><glyph d="M936 698l358 -565q33 -49 9.5 -91t-82.5 -42h-238q-66 0 -104 57l-181 283q-6 8 -6 12q0 -4 -6 -12l-180 -281q-37 -59 -105 -59h-237q-59 0 -83 42t9 91l359 565q12 18 0 37l-359 565q-33 49 -9.5 91.5t83.5 42.5h237q66 0 105 -58l180 -282q6 -8 6 -13q0 4 6 13 l181 280q37 59 104 60h238q59 0 82.5 -42t-9.5 -92l-358 -565q-12 -19 0 -37zM983 82h238h10q-2 0 -6 6l-359 565q-39 63 0 127l359 566q4 6 6 6h-10h-238q-23 0 -35 -21l-180 -282q-31 -47 -76 -47.5t-76 47.5l-180 284q-12 18 -35 19h-237h-10q2 0 6 -6l358 -566 q39 -63 0 -127l-358 -565q-4 -6 -6 -6h10h237q23 0 35 20l180 283q31 47 76 47t76 -47l180 -285q12 -18 35 -18z" glyph-name="X" horiz-adv-x="1384" unicode="x"/><glyph d="M1001 1434h242q57 0 81 -41t-5 -90l2 2l-385 -725q-12 -29 -12 -54v-428q0 -45 -27 -71.5t-72 -26.5h-233q-45 0 -71.5 26.5t-26.5 71.5v428q0 27 -13 54l-385 725l2 -2q-29 49 -5 90t81 41h242q76 0 104 -68l187 -395l2 -2v-4q0 2 1 2t1 2l186 397q28 68 104 68z M1247 1341l2 2q4 6 8 9l-2 2q-4 -2 -12 -2h-242q-23 0 -30 -19l-187 -399q-27 -59 -76 -58t-75 60l-187 397q-8 18 -30 19h-242q-8 0 -12 2l-2 -2q4 -2 8 -9l2 -2l385 -725q20 -41 20 -90v-428q0 -10 3.5 -13t13.5 -3h233q10 0 13.5 3t3.5 13v428q0 49 20 90z" glyph-name="Y" horiz-adv-x="1417" unicode="Y"/><glyph d="M1001 1434h242q57 0 81 -41t-5 -90l2 2l-385 -725q-12 -29 -12 -54v-428q0 -45 -27 -71.5t-72 -26.5h-233q-45 0 -71.5 26.5t-26.5 71.5v428q0 27 -13 54l-385 725l2 -2q-29 49 -5 90t81 41h242q76 0 104 -68l187 -395l2 -2v-4q0 2 1 2t1 2l186 397q28 68 104 68z M1247 1341l2 2q4 6 8 9l-2 2q-4 -2 -12 -2h-242q-23 0 -30 -19l-187 -399q-27 -59 -76 -58t-75 60l-187 397q-8 18 -30 19h-242q-8 0 -12 2l-2 -2q4 -2 8 -9l2 -2l385 -725q20 -41 20 -90v-428q0 -10 3.5 -13t13.5 -3h233q10 0 13.5 3t3.5 13v428q0 49 20 90z" glyph-name="Y" horiz-adv-x="1417" unicode="y"/><glyph d="M1094 1335v-231q0 -53 -33 -94l-412 -594h2l-6 -6h8h340q45 0 73 -27t28 -72v-213q0 -45 -28 -71.5t-73 -26.5h-790q-45 0 -73 26.5t-28 71.5v230q0 53 33 98l428 592l-2 -2q2 2 4 6l4 4q-2 -2 -10 -2h-356q-45 0 -73 26.5t-28 71.5v213q0 45 28 72t73 27h790 q45 0 73 -27t28 -72zM1012 1104v231q0 16 -19 17h-790q-18 0 -19 -17v-213q0 -16 19 -16h356q61 0 84 -42t-12 -93l-2 -2l-428 -592q-16 -23 -17 -49v-230q0 -16 19 -16h790q18 0 19 16v213q0 16 -19 17h-340q-59 0 -81.5 41t10.5 92h2l411 596q17 22 17 47z" glyph-name="Z" horiz-adv-x="1196" unicode="Z"/><glyph d="M1094 1335v-231q0 -53 -33 -94l-412 -594h2l-6 -6h8h340q45 0 73 -27t28 -72v-213q0 -45 -28 -71.5t-73 -26.5h-790q-45 0 -73 26.5t-28 71.5v230q0 53 33 98l428 592l-2 -2q2 2 4 6l4 4q-2 -2 -10 -2h-356q-45 0 -73 26.5t-28 71.5v213q0 45 28 72t73 27h790 q45 0 73 -27t28 -72zM1012 1104v231q0 16 -19 17h-790q-18 0 -19 -17v-213q0 -16 19 -16h356q61 0 84 -42t-12 -93l-2 -2l-428 -592q-16 -23 -17 -49v-230q0 -16 19 -16h790q18 0 19 16v213q0 16 -19 17h-340q-59 0 -81.5 41t10.5 92h2l411 596q17 22 17 47z" glyph-name="Z" horiz-adv-x="1196" unicode="z"/><glyph d="M664 -186h-443q-45 0 -71.5 27.5t-26.5 72.5v1624q0 45 26.5 72.5t71.5 27.5h443q45 0 71.5 -27.5t26.5 -72.5v-125q0 -45 -26.5 -71.5t-71.5 -26.5h-134q-16 0 -16 -17v-1144q0 -16 16 -17h134q45 0 71.5 -26.5t26.5 -71.5v-125q0 -45 -26.5 -72.5t-71.5 -27.5z M221 -104h443q16 0 16 18v125q0 16 -16 16h-134q-45 0 -71.5 27t-26.5 72v1144q0 45 26.5 72t71.5 27h134q16 0 16 16v125q0 18 -16 18h-443q-16 0 -16 -18v-1624q0 -18 16 -18z" glyph-name="bracketleft" horiz-adv-x="843" unicode="["/><glyph d="M524 16v-2l-477 1356q-16 51 8.5 86t75.5 35h141q84 0 107 -74v2l477 -1356q16 -51 -8.5 -85.5t-75.5 -34.5h-141q-84 -1 -107 73zM125 1399l477 -1356v-2q6 -16 29 -16h141q6 0 10 -2q2 0 0 2q-2 4 -4 10l-477 1356v2q-6 16 -29 16h-141q-6 0 -10 2q-2 0 0 -2 q2 -4 4 -10z" glyph-name="backslash" horiz-adv-x="903" unicode="\"/><glyph d="M623 -186h-443q-45 0 -71.5 27.5t-26.5 72.5v125q0 45 26.5 71.5t71.5 26.5h133q16 0 17 17v1144q0 16 -17 17h-133q-45 0 -71.5 26.5t-26.5 71.5v125q0 45 26.5 72.5t71.5 27.5h443q45 0 71.5 -27.5t26.5 -72.5v-1624q0 -45 -26.5 -72.5t-71.5 -27.5zM180 -104h443 q16 0 16 18v1624q0 18 -16 18h-443q-16 0 -16 -18v-125q0 -16 16 -16h133q45 0 72 -27t27 -72v-1144q0 -45 -27 -72t-72 -27h-133q-16 0 -16 -16v-125q0 -18 16 -18z" glyph-name="bracketright" horiz-adv-x="843" unicode="]"/><glyph d="M903 961v2q31 -49 7.5 -91.5t-83.5 -42.5h-141q-72 0 -100 60l-84 205q0 2 -2 2v-2l-86 -205q-29 -59 -101 -60h-141q-57 0 -80.5 42t6.5 92v-2l248 436q35 61 105 61h100q66 0 100 -51zM686 911h141l15 -2q-4 2 -8 9v2l-254 444q-8 12 -29 12h-100q-23 0 -35 -20 l-248 -436v-2q0 -2 -4 -5l-2 -4q0 2 10 2h141q20 0 27 11l84 204q25 61 76 61.5t78 -61.5l81 -204q7 -11 27 -11z" glyph-name="asciicircum" horiz-adv-x="1001" unicode="^"/><glyph d="M82 -272v172q0 45 26.5 72.5t71.5 27.5h1055q45 0 71.5 -27.5t26.5 -72.5v-172q0 -45 -26.5 -73t-71.5 -28h-1055q-45 0 -71.5 28t-26.5 73zM164 -100v-172q0 -18 16 -19h1055q16 0 16 19v172q0 18 -16 18h-1055q-16 0 -16 -18z" glyph-name="underscore" horiz-adv-x="1415" unicode="_"/><glyph d="M197 1567l-115 196q-20 39 0 70t65 31h193q59 0 82 -58l61 -186q14 -41 -7 -70.5t-62 -29.5h-135q-51 0 -82 45v2zM324 1782h-131q-29 0 -15 -25l88 -149q6 -6 13 -6h100q23 0 16 22l-47 141q-6 17 -24 17z" glyph-name="grave" horiz-adv-x="552" unicode="`"/><glyph d="M666 1198v-305q0 -102 -80 -168q80 -66 80 -166v-305q8 -117 77 -117h62q45 0 72.5 -26.5t27.5 -71.5v-125q0 -45 -27.5 -72.5t-72.5 -27.5h-137q-383 0 -383 387v250q0 70 -11.5 82t-85.5 12q-66 0 -65 98v166q0 98 65 98q74 0 85.5 12.5t11.5 81.5v250q0 387 401 387 h119q45 0 72.5 -27.5t27.5 -72.5v-125q0 -45 -27.5 -71.5t-72.5 -26.5h-62q-69 0 -77 -117zM805 55h-62q-145 0 -159 195v309q0 68 -52 105q-41 29 -40.5 61.5t40.5 60.5q51 39 52 107v309q14 195 159 195h62q18 0 18 16v125q0 18 -18 18h-119q-164 0 -241.5 -73.5 t-77.5 -231.5v-250q0 -102 -33 -138t-129 -38v-16v-166v-16q96 -2 129 -38t33 -138v-250q0 -162 71.5 -233.5t229.5 -71.5h137q18 0 18 18v125q0 16 -18 16z" glyph-name="braceleft" horiz-adv-x="987" unicode="{"/><glyph d="M297 -319h-115q-45 0 -72.5 26.5t-27.5 71.5v1671q0 45 27.5 71.5t72.5 26.5h115q45 0 72.5 -26.5t27.5 -71.5v-1671q0 -45 -27.5 -71.5t-72.5 -26.5zM182 -238h115q18 0 18 17v1671q0 16 -18 16h-115q-18 0 -18 -16v-1671q0 -17 18 -17z" glyph-name="bar" horiz-adv-x="479" unicode="|"/><glyph d="M799 907q66 0 65 -98v-166q0 -98 -65 -98q-74 0 -85.5 -12.5t-11.5 -81.5v-250q0 -387 -383 -387h-137q-45 0 -72.5 27.5t-27.5 72.5v125q0 45 27.5 71.5t72.5 26.5h62q70 0 78 117v305q0 100 79 166q-80 66 -79 168v305q-8 117 -78 117h-62q-45 0 -72.5 26.5t-27.5 71.5 v125q0 45 27.5 72.5t72.5 27.5h119q401 0 401 -387v-250q0 -70 11.5 -82t85.5 -12zM621 201v250q0 102 32.5 138t128.5 38v16v166v16q-96 2 -128.5 38t-32.5 138v250q0 158 -78 231.5t-242 73.5h-119q-18 0 -18 -18v-125q0 -16 18 -16h62q145 0 159 -195v-309q0 -68 52 -107 q41 -29 41 -61.5t-41 -60.5q-51 -37 -52 -105v-309q-14 -195 -159 -195h-62q-18 0 -18 -16v-125q0 -18 18 -18h137q158 0 230 71.5t72 233.5z" glyph-name="braceright" horiz-adv-x="987" unicode="}"/><glyph d="M240 512l-109 70q-78 51 -37 133q57 111 155.5 177t205.5 66q109 0 217 -67q115 -76 172 -76q43 0 76 64q23 45 61.5 54t79.5 -22l110 -80q76 -57 29 -133q-57 -100 -155.5 -162.5t-200.5 -62.5q-109 0 -217 68q-115 76 -172 75q-45 0 -76 -65q-23 -41 -60.5 -52.5 t-78.5 13.5zM176 651l109 -69q12 -10 20 6q51 111 150 110q80 0 217 -88q88 -55 172 -55q82 0 160.5 50t125.5 134q8 14 -8 27l-110 80q-12 8 -15 4q-2 -2 -4 -8q-59 -109 -149 -109q-80 0 -217 88q-88 55 -172 56q-82 0 -161 -54.5t-126 -144.5q-8 -17 8 -27z" glyph-name="asciitilde" horiz-adv-x="1298" unicode="~"/><glyph d="M311 1024q-90 0 -152.5 63.5t-62.5 151.5t62.5 151.5t152.5 63.5q88 0 151.5 -63.5t63.5 -151.5t-63.5 -151.5t-151.5 -63.5zM311.5 1372q-55.5 0 -94.5 -39t-39 -94t39 -94t94.5 -39t94 39t38.5 94t-38.5 94t-94 39zM541 106v-2q4 -47 -24 -75.5t-73 -28.5h-266 q-45 0 -72.5 28.5t-23.5 75.5v2l70 766v-2q4 43 30.5 70t69.5 27h119q43 0 69.5 -27t30.5 -70v2zM178 82h266q10 0 12.5 2t2.5 14l-70 766v2q0 18 -18 19h-119q-18 0 -19 -19v-2l-69 -766q0 -12 2 -14t12 -2z" glyph-name="exclamdown" horiz-adv-x="561" unicode="¡"/><glyph d="M639 932q-88 0 -142.5 -59.5t-54.5 -155.5t54.5 -155.5t142.5 -59.5q102 0 160 37q49 35 84 18.5t35 -76.5v-139q0 -63 -35 -98q-61 -57 -152 -74q-23 -6 -20 -23l4 -41q4 -47 -22.5 -76.5t-74.5 -29.5h-88q-47 0 -73.5 28.5t-22.5 75.5l6 60v-2q2 20 -12 24 q-158 55 -252 199.5t-94 331t93 330t249 198.5q18 6 16 27v-2l-6 59q-4 47 22.5 76t73.5 29h88q47 0 75 -30t24 -77v-2l-6 -41v2q-2 -16 18 -20q82 -20 154 -74q35 -41 35 -100v-140q0 -59 -35 -75.5t-84 18.5q-58 37 -160 37zM360 717q0 131 77 214t202 83q121 0 197 -45 v123q0 29 -11 38q-55 43 -112 54q-94 23 -84 110v2l6 41v-2q2 10 0 13.5t-17 3.5h-88q-12 0 -14 -2t0 -13l6 -59v-2q4 -84 -73 -109q-131 -47 -208 -168.5t-77 -281.5q0 -164 79 -285t214 -168q70 -25 65 -106v-2l-6 -60q-2 -10 0 -12t14 -2h88q12 0 14.5 2t0.5 14l-4 41 q-10 86 82 109q70 14 114 53q10 12 11 41v123q-76 -45 -197 -45q-125 0 -202 83t-77 214z" glyph-name="cent" horiz-adv-x="999" unicode="¢"/><glyph d="M610 373h291q45 0 72.5 -28t27.5 -73v-174q0 -45 -27.5 -71.5t-72.5 -26.5h-676q-45 0 -71.5 26.5t-26.5 71.5v97q0 45 33 96q123 160 123 291v2q0 16 -19 16h-82q-45 0 -72.5 26.5t-27.5 71.5v78q0 45 27.5 71.5t72.5 26.5q4 0 6 -2v2q-2 4 -4 15q-16 49 -16 110 q0 201 132 328t341 127q176 0 283 -104q39 -41 39 -99v-159q0 -61 -41 -81t-93 17q-72 53 -157 53q-113 0 -113 -82q0 -45 27 -106q6 -18 28 -19h230q45 0 71.5 -26.5t26.5 -71.5v-78q0 -45 -26.5 -71.5t-71.5 -26.5h-154q-14 0 -15 -1t-1 -15q6 -117 -64 -211zM920 98v174 q0 18 -19 19h-330q-47 0 -62 35.5t13 70.5q72 76 70 183q-4 102 98 102h154q10 0 13 3t3 13v78q0 10 -3 13.5t-13 3.5h-230q-78 0 -106 71q-31 74 -31 135q0 16 6 37t22.5 52.5t60.5 53t106 21.5q113 0 207 -69q2 0 2 -2v159q0 20 -15 41q-86 80 -225 80 q-174 0 -282.5 -103.5t-108.5 -269.5q0 -41 12 -88q16 -51 -6.5 -84.5t-73.5 -33.5q-18 0 -18 -17v-78q0 -16 18 -16h82q45 0 73 -26.5t28 -71.5v-2q0 -158 -140 -340q-16 -27 -16 -47v-97q0 -10 3 -13t13 -3h676q19 0 19 16zM584 344v-2v2z" glyph-name="sterling" horiz-adv-x="1083" unicode="£"/><glyph d="M160 201l-66 63q-35 37 -33 77t43 69l74 57q10 8 11 12t-7 15q-49 100 -49 223q0 121 53 221q10 16 -4 29l-78 57q-39 29 -43 69t31 76h2l66 66q35 33 74.5 30t68.5 -42l59 -78q8 -10 27 0q102 49 221 49t221 -49q16 -12 27 2l57 76q29 39 69 42t75 -32l65 -64 q35 -37 33 -76.5t-43 -68.5l-74 -57q-14 -10 -6 -27q53 -100 53 -223t-53 -223q-8 -16 6 -27l74 -57q41 -29 43 -69t-33 -77l-65 -63q-35 -35 -75 -32t-69 42l-57 76q-10 14 -27 2q-102 -49 -221 -49q-115 0 -221 51q-18 10 -29 -4l-57 -76q-29 -39 -68.5 -42t-74.5 32z M152 322l65 -64q12 -12 21 2l57 76q55 68 131 29q86 -43 184 -43q94 0 183 40q78 43 131 -26l57 -76q8 -14 20 -2l66 64q12 12 -2 22l-78 57q-66 59 -24 134q43 80 43 182t-43 182q-41 74 24 133l78 58q14 10 2 22l-66 64q-12 12 -20 -2l-57 -76q-53 -70 -131 -27 q-88 41 -182.5 41t-182.5 -41q-78 -45 -131 25l-59 78q-10 14 -21 4l-65 -66h2q-14 -12 0 -22l77 -58q68 -55 29 -131q-45 -84 -45 -184q0 -98 41 -185q41 -74 -25 -131l-77 -57q-14 -10 -2 -22zM328 717q0 117 82 199.5t198 82.5q115 0 199 -84t84 -198.5t-84 -198.5 t-199 -84q-117 0 -198.5 83t-81.5 200zM410 717q0 -84 58 -142.5t140 -58.5q84 0 142.5 59.5t58.5 141.5t-58.5 141.5t-142.5 59.5q-82 0 -140 -58.5t-58 -142.5z" glyph-name="currency" horiz-adv-x="1218" unicode="¤"/><glyph d="M1044 856l-2 -2l-6 -10q2 2 11 2h34q45 0 72 -27.5t27 -73.5v-75q0 -45 -27 -73t-72 -28h-168h-12l-10 -2q-6 -10 -8 -22q4 -2 18 -2h180q45 0 72 -27t27 -72v-77q0 -45 -27 -72t-72 -27h-180q-18 0 -18 -16v-146q0 -45 -27 -71.5t-72 -26.5h-192q-45 0 -71.5 26.5 t-26.5 71.5v146q0 16 -19 16h-180q-45 0 -71.5 27t-26.5 72v77q0 45 26.5 72t71.5 27h180q14 0 19 2q-4 18 -7 20q0 4 -24 4h-168q-45 0 -71.5 28t-26.5 73v75q0 45 26.5 73t71.5 28h35l10 -2q-2 2 -6 10l-2 2l-238 449q-27 49 -3 89t81 40h223q74 0 105 -66l186 -399v2 l2 -2v-4v2l2 4v-2l187 399q31 66 104 66h223q57 0 81 -40t-3 -89zM973 895l-2 -2l237 448q4 8 9 13q-4 -2 -13 -2h-223q-25 0 -31 -17l-186 -399v-2q-27 -57 -75 -57t-77 57v2l-186 399q-6 16 -31 17h-223q-6 0 -12 2q4 -6 8 -13l238 -448l-3 2q29 -49 6.5 -90t-79.5 -41 h-35q-16 0 -16 -19v-75q0 -18 16 -19h168q68 0 94 -41q18 -31 18 -78q0 -33 -28.5 -52t-71.5 -19h-180q-16 0 -16 -17v-77q0 -16 16 -17h180q45 0 72.5 -26.5t27.5 -71.5v-146q0 -10 3.5 -13t13.5 -3h192q10 0 13.5 3t3.5 13v146q0 45 27.5 71.5t72.5 26.5h180q16 0 17 17 v77q0 16 -17 17h-180q-43 0 -71.5 19.5t-28.5 51.5q0 43 20 76q25 43 92 43h168q16 0 17 19v75q0 18 -17 19h-34q-57 0 -80 41t6 90z" glyph-name="yen" horiz-adv-x="1376" unicode="¥"/><glyph d="M297 725h-115q-45 0 -72.5 26.5t-27.5 71.5v545q0 45 27.5 72.5t72.5 27.5h115q45 0 72.5 -27.5t27.5 -72.5v-545q0 -45 -27.5 -71.5t-72.5 -26.5zM182 807h115q18 0 18 16v545q0 18 -18 18h-115q-18 0 -18 -18v-545q0 -16 18 -16zM182 537h115q45 0 72.5 -27t27.5 -72 v-544q0 -45 -27.5 -73t-72.5 -28h-115q-45 0 -72.5 27.5t-27.5 73.5v544q0 45 27.5 72t72.5 27zM297 455h-115q-18 0 -18 -17v-544q0 -18 18 -19h115q18 0 18 19v544q0 17 -18 17z" glyph-name="brokenbar" horiz-adv-x="479" unicode="¦"/><glyph d="M915 334q-12 -8 0 -21q96 -117 97 -239q0 -180 -126 -288t-339 -108q-264 0 -400 86q-49 37 -49 103v162q0 57 39 77.5t90 -8.5q123 -68 320 -67q78 0 78 43q0 31 -166 108q-152 72 -213 113q-88 55 -126 120.5t-38 164.5q0 123 113 211q2 2 6 5t0 6t-6 5 q-113 119 -113 240q0 180 127 288.5t338 108.5q233 0 350 -88q49 -33 49 -103v-161q0 -57 -42 -79t-91 11q-104 68 -266 68q-78 0 -78 -45q0 -25 145 -86q172 -74 252 -136q80 -57 113 -122.5t33 -163.5q-1 -115 -97 -205zM547 -240q176 0 279.5 84t103.5 230q0 96 -78 186 q-61 74 10 135q68 66 68 144q0 82 -23.5 128t-89.5 93q-66 51 -233 127q-106 43 -151.5 76.5t-45.5 83.5q0 59 43 93t117 34q182 0 311 -80q4 -4 6 -4v2v161q0 25 -16 37q-94 72 -301 72q-178 0 -280.5 -84t-102.5 -231q0 -84 88 -183q74 -74 -8 -139q-80 -66 -80 -145 q0 -78 27.5 -125t99.5 -90q63 -45 203 -109q119 -53 166 -91t47 -91q0 -59 -43 -92t-117 -33q-217 0 -361 78q-4 4 -6 4v-2v-162q0 -23 15 -37q125 -70 352 -70zM489 725q252 -86 252 -201q0 -70 -34.5 -107.5t-88.5 -17.5q-252 86 -251 201q0 63 37.5 103t84.5 22zM647 477 q2 -4 6 6q6 14 6 41q0 23 -57 58.5t-139 64.5q-14 -27 -14 -47q0 -23 57 -58.5t141 -64.5z" glyph-name="section" horiz-adv-x="1093" unicode="§"/><glyph d="M61 1692q0 80 56.5 136t134.5 56q106 0 164 -92q12 -20 20 -20t21 20q55 92 164 92q78 0 134 -57.5t56 -134.5q0 -80 -56.5 -136.5t-133.5 -56.5q-106 0 -164 92q-12 18 -20.5 18.5t-20.5 -18.5q-57 -92 -164 -92q-80 0 -135.5 56.5t-55.5 136.5zM143 1692q0 -47 32 -79 t77 -32q47 0 78.5 33t31.5 78t-32.5 77.5t-77.5 32.5t-77 -32.5t-32 -77.5zM510 1692q0 -47 31.5 -79t79.5 -32q45 0 76.5 33t31.5 78t-32.5 77.5t-75.5 32.5q-47 0 -79 -32.5t-32 -77.5z" glyph-name="dieresis" horiz-adv-x="872" unicode="¨"/><glyph d="M815 1454q303 0 517 -215t214 -520q0 -307 -214 -523t-517 -216q-305 0 -519 216t-214 523q0 305 214 520t519 215zM815 61q268 0 458.5 192.5t190.5 465t-189.5 463t-459.5 190.5t-460.5 -190.5t-190.5 -463t190.5 -465t460.5 -192.5zM815 1286q233 0 400 -167t167 -400 q0 -238 -165.5 -405t-401 -167t-402.5 167t-167 405q0 236 166.5 401.5t402.5 165.5zM815 229q201 0 343 143.5t142 346.5q0 201 -142 343t-343 142t-344 -142t-143 -343q0 -203 142 -346.5t345 -143.5zM1055 1087q35 -33 35 -94v-82q0 -55 -34 -70.5t-81 17.5 q-45 31 -121 31q-68 0 -106.5 -45t-38.5 -127t38.5 -127t106.5 -45q76 0 121 33q47 33 81 16.5t34 -72.5v-82q0 -61 -35 -94q-82 -76 -226 -76q-178 0 -291.5 125t-113.5 321.5t113.5 321.5t291.5 125q144 0 226 -76zM854 971q86 0 154 -37v59q0 25 -9 33q-59 55 -170 55 q-145 0 -234 -101t-89 -263t89 -263.5t234 -101.5q111 0 170 56q8 8 9 32v62q-66 -39 -154 -39q-102 0 -164.5 69.5t-62.5 184t62.5 184.5t164.5 70z" glyph-name="copyright" horiz-adv-x="1628" unicode="©"/><glyph d="M440 698l123 -182q33 -51 9.5 -92t-83.5 -41h-159q-68 0 -105 55l-145 215v2q-39 61 0 123v2l145 215q37 55 105 56h159q59 0 83 -41t-9 -92l-125 -183q-10 -19 2 -37zM893 698l121 -182v-2q31 -51 9 -91t-81 -40h-164q-70 0 -102 57v-2l-139 215q-47 63 -2 127l141 215 v-2q33 57 102 58h164q59 0 80.5 -40t-8.5 -91v-2l-121 -183v2q-12 -20 0 -41v2zM778 465h164q6 0 8 -2q-2 2 -6 10v-2l-121 182v2q-39 61 0 123v2l121 183v-2q4 8 6 10q-2 -2 -8 -2h-164q-23 0 -33 -17v-2l-143 -215q-10 -18 2 -37l141 -215v-2q10 -16 33 -16zM330 465h159 h11q-4 0 -6 6l-121 182q-47 63 -2 127l123 183q2 6 6 6h-11h-159q-23 0 -35 -19l-145 -215v2q-12 -20 0 -41v2l145 -215q12 -18 35 -18z" glyph-name="guillemotleft" horiz-adv-x="1112" unicode="«"/><glyph d="M848 717h-668q-45 0 -71.5 26.5t-26.5 71.5v107q0 45 26.5 72.5t71.5 27.5h891q45 0 71.5 -27.5t26.5 -72.5v-322q0 -45 -26.5 -72.5t-71.5 -27.5h-106q-45 0 -72 27.5t-27 72.5v100q0 17 -18 17zM180 799h668q45 0 72.5 -27t27.5 -72v-100q0 -18 17 -18h106q16 0 16 18 v322q0 18 -16 18h-891q-16 0 -16 -18v-107q0 -10 3 -13t13 -3z" glyph-name="logicalnot" horiz-adv-x="1251" unicode="¬"/><glyph d="M815 1454q303 0 517 -215t214 -520q0 -307 -214 -523t-517 -216q-305 0 -519 216t-214 523q0 305 214 520t519 215zM815 61q268 0 458.5 192.5t190.5 465t-189.5 463t-459.5 190.5t-460.5 -190.5t-190.5 -463t190.5 -465t460.5 -192.5zM815 1286q233 0 400 -167t167 -400 q0 -238 -165.5 -405t-401 -167t-402.5 167t-167 405q0 236 166.5 401.5t402.5 165.5zM815 229q201 0 343 143.5t142 346.5q0 201 -142 343t-343 142t-344 -142t-143 -343q0 -203 142 -346.5t345 -143.5zM1051 637q-18 -16 -13 -29l72 -166q20 -49 -3.5 -86t-76.5 -37h-65 q-72 0 -101 70l-2 2l-63 160v-135q0 -43 -27 -70t-70 -27h-71q-43 0 -69.5 27t-26.5 70v602q0 43 26.5 69.5t69.5 26.5h172q154 0 240.5 -74.5t86.5 -205.5q1 -129 -79 -197zM1036 410l-73 165q-27 72 34 123q51 43 52 136q0 199 -246 198h-172q-14 0 -15 -14v-602 q0 -14 15 -15h71q14 0 15 15v137q0 41 19.5 68.5t54.5 27.5q59 0 86 -69l63 -160l-2 2q8 -20 27 -21h65h8l4 -2q-4 5 -6 11zM803 948q76 0 111.5 -26.5t35.5 -87.5q0 -117 -147 -117q-39 0 -62.5 26.5t-23.5 69.5v41q0 43 23.5 68.5t62.5 25.5zM803 799q43 0 54 6t11 28.5 t-10 27.5t-55 5l-4 -12v-41q0 -14 4 -14z" glyph-name="registered" horiz-adv-x="1628" unicode="®"/><glyph d="M59 1638v107q0 45 27 72.5t72 27.5h471q45 0 71.5 -27.5t26.5 -72.5v-107q0 -45 -26.5 -72.5t-71.5 -27.5h-471q-45 0 -72 27.5t-27 72.5zM141 1745v-107q0 -18 17 -18h471q16 0 16 18v107q0 18 -16 18h-471q-17 0 -17 -18z" glyph-name="macron" horiz-adv-x="786" unicode="¯"/><glyph d="M82 1179.5q0 118.5 84 203.5t205 85t206 -85t85 -203.5t-85 -202.5t-206 -84q-119 0 -204 84t-85 202.5zM143 1179.5q0 -94.5 66.5 -160t161.5 -65.5q96 0 162.5 65.5t66.5 160t-66.5 161t-163 66.5t-162 -66.5t-65.5 -161zM229 1180q0 63 41 105t100.5 42t100.5 -42 t41 -105q0 -61 -41 -104.5t-100.5 -43.5t-100.5 43.5t-41 104.5zM291 1180q0 -37 22.5 -61.5t57.5 -24.5t57.5 24.5t22.5 61.5t-22.5 61.5t-57.5 24.5t-57.5 -24.5t-22.5 -61.5z" glyph-name="degree" horiz-adv-x="743" unicode="°"/><glyph d="M399 739h-219q-45 0 -71.5 27t-26.5 72v155q0 45 26.5 72t71.5 27h219q10 0 13.5 3t3.5 13v238q0 45 26.5 72.5t71.5 27.5h156q45 0 71.5 -27.5t26.5 -72.5v-238q0 -10 3 -13t13 -3h217q45 0 72 -27t27 -72v-155q0 -45 -26.5 -72t-72.5 -27h-217q-10 0 -13 -3t-3 -13 v-236q0 -45 -26.5 -72.5t-71.5 -27.5h-156q-45 0 -71.5 27.5t-26.5 72.5v236q0 10 -3.5 13t-13.5 3zM180 821h219q45 0 72 -26.5t27 -71.5v-236q0 -18 16 -18h156q16 0 16 18v236q0 45 26.5 71.5t71.5 26.5h217q10 0 13.5 3t3.5 14v155q0 10 -3 13.5t-14 3.5h-217 q-45 0 -71.5 26.5t-26.5 71.5v238q0 18 -16 18h-156q-16 0 -16 -18v-238q0 -45 -27 -71.5t-72 -26.5h-219q-10 0 -13 -3t-3 -14v-155q0 -10 3 -13.5t13 -3.5zM1004 -33h-820q-47 0 -74.5 26.5t-27.5 72.5v155q0 45 27.5 71.5t74.5 26.5h820q47 0 74.5 -26.5t27.5 -71.5v-155 q0 -45 -27.5 -72t-74.5 -27zM184 49h820q16 0 16 17v155q0 16 -16 17h-820q-18 0 -18 -17v-155q0 -17 18 -17z" glyph-name="plusminus" horiz-adv-x="1187" unicode="±"/><glyph d="M322 1311h147q27 0 43 -17.5t16 -44.5v-98q0 -27 -16 -43t-43 -16h-391q-29 0 -45.5 17t-16.5 44q2 106 19.5 154.5t77.5 101.5q29 27 75 66q123 104 123 129q0 37 -57 36.5t-123 -51.5q-31 -25 -57.5 -12.5t-26.5 51.5v90q0 37 19 56q72 76 188 75q129 0 207 -66.5 t78 -178.5q0 -111 -103 -197q-100 -82 -114 -96zM154 1364q-49 -45 -61.5 -80t-14.5 -131h389v96h-170q-39 0 -53.5 30t12.5 56q53 49 139 121q82 63 82 148q0 86 -59.5 135t-163.5 49q-84 0 -143 -55q-2 -2 -2 -15v-69q72 53 145 53q53 0 86 -26.5t33 -71.5q0 -33 -31 -70 t-115 -107z" glyph-name="uni00B2" horiz-adv-x="577" unicode="²"/><glyph d="M506 1653l-80 -92q113 -57 113 -213q0 -123 -82 -200t-213 -77q-47 0 -108.5 22.5t-96.5 53.5q-23 18 -23 55v92q0 37 26 49.5t58 -8.5q63 -45 144 -45q31 0 49 16.5t18 41.5q0 66 -121 75q-39 2 -51 30t11 56l79 101h-143q-27 0 -43 17.5t-16 43.5v98q0 27 16 43.5 t43 16.5h336q41 0 61 -41l29 -70q17 -36 -6 -65zM244 1133q106 0 169.5 59t63.5 156q0 123 -84 159q-31 12 -37 37t17 47l84 99q0 2 -2 4l-29 69q-4 2 -4 4h-334v-96h162q39 0 52 -28.5t-13 -57.5l2 2l-84 -104q166 -20 166 -135q0 -51 -37 -85t-92 -34q-88 0 -166 47v-74 v-8q27 -25 77 -43t89 -18z" glyph-name="uni00B3" horiz-adv-x="577" unicode="³"/><glyph d="M471 1763l-115 -196v-2q-31 -45 -82 -45h-135q-41 0 -62.5 29.5t-6.5 70.5l61 186q23 57 82 58h193q45 0 65 -31t0 -70zM360 1782h-131q-18 0 -24 -17l-47 -141q-6 -23 16 -22h100q6 0 13 6l88 149q14 25 -15 25z" glyph-name="acute" horiz-adv-x="573" unicode="´"/><glyph d="M457 -223v778q0 10 -3 13t-14 3h-30q-160 0 -259.5 119t-99.5 307q0 190 98.5 309t260.5 119h262q45 0 71.5 -27.5t26.5 -72.5v-1548q0 -45 -26.5 -73t-71.5 -28h-115q-45 0 -72.5 28t-27.5 73zM942 1425h117q45 0 71.5 -27.5t26.5 -72.5v-1548q0 -45 -26.5 -73 t-71.5 -28h-117q-45 0 -71.5 28t-26.5 73v1548q0 45 26.5 72.5t71.5 27.5zM539 555v-778q0 -18 18 -19h115q16 0 16 19v1548q0 18 -16 18h-262q-125 0 -201 -94t-76 -252q0 -156 76 -250t201 -94h30q45 0 72 -26.5t27 -71.5zM1059 1343h-117q-16 0 -16 -18v-1548 q0 -18 16 -19h117q16 0 16 19v1548q0 18 -16 18z" glyph-name="paragraph" horiz-adv-x="1259" unicode="¶"/><glyph d="M297 502q-88 0 -151.5 62.5t-63.5 152.5t63.5 152.5t151.5 62.5t151.5 -63.5t63.5 -151.5t-63.5 -151.5t-151.5 -63.5zM297 584q55 0 94 39t39 94t-39 94t-94 39t-94 -39t-39 -94t39 -94t94 -39z" glyph-name="periodcentered" horiz-adv-x="593" unicode="·"/><glyph d="M367 29l-13 -66q162 -29 162 -186q0 -137 -137 -195.5t-279 17.5q-47 23 -47 79v41q0 39 23.5 58.5t58.5 15.5q-51 20 -37 82l33 154h236zM135 -328q100 -55 199.5 -21t99.5 126t-94 104q-23 4 -32 6t-22.5 9.5t-16.5 19.5t-1 31h-71l-15 -80q53 6 97 -2q59 -10 82.5 -50 t0 -79t-82.5 -49q-43 -6 -144 20v-29v-6zM180 -215h-18q80 -23 104 -16q25 4 25 7t-25 7q-31 6 -86 2z" glyph-name="cedilla" horiz-adv-x="569" unicode="¸"/><glyph d="M195 1829h57q27 0 43 -16.5t16 -43.5v-618q0 -27 -16 -43t-43 -16h-107q-27 0 -43 16t-16 43v442h-12q-27 0 -44.5 16.5t-17.5 43.5v55q0 37 39 59l92 50q25 12 52 12zM74 1655h14q27 0 43 -16.5t16 -43.5v-442h103v614h-55q-10 0 -23 -4l-92 -49q-6 -2 -6 -6v-53z" glyph-name="uni00B9" horiz-adv-x="366" unicode="¹"/><glyph d="M575 653l-139 -215v2q-33 -57 -102 -57h-164q-59 0 -80.5 40t8.5 91v2l121 182v-2q12 20 0 41v-2l-121 183v2q-31 51 -9 91t81 40h164q70 0 102 -58v2l142 -215q44 -64 -3 -127zM1032 780v-2q39 -61 0 -123v-2l-145 -215q-37 -55 -105 -55h-159q-59 0 -83 41t9 92 l123 182q12 18 2 37l-125 183q-33 51 -9.5 92t83.5 41h159q68 0 105 -56zM367 481v2l141 215q12 18 2 37l-143 215v2q-10 16 -33 17h-164q-6 0 -8 2q2 -2 6 -10v2l121 -183v-2q39 -61 0 -123v-2l-121 -182v2q-4 -8 -6 -10q2 2 8 2h164q23 0 33 16zM963 698v-2q12 20 0 41v-2 l-146 215q-12 18 -35 19h-159h-11q2 0 6 -6l123 -183q45 -63 -2 -127l-121 -182q-4 -6 -6 -6h11h159q23 0 35 18z" glyph-name="guillemotright" horiz-adv-x="1112" unicode="»"/><glyph d="M127 1219h-12q-27 0 -44.5 16t-17.5 43v55q0 37 39 60l92 49q25 12 52 12h57q27 0 43 -16.5t16 -42.5v-619q0 -27 -16.5 -43t-42.5 -16h-107q-27 0 -43 16.5t-16 42.5v443zM1047 1325v2l-738 -1278q-31 -59 -98 -59h-61q-53 0 -74 36.5t8 82.5v-3l737 1278q31 59 99 60 h61q53 0 74 -37t-8 -82zM213 1389l-92 -50q-6 -4 -6 -6v-53h14q27 0 43 -16.5t16 -42.5v-443h103v615h-55q-11 0 -23 -4zM993 1356v2q8 14 6 19t-18 5h-61q-29 0 -46 -26l-737 -1278v-2q-8 -14 -6 -19.5t19 -5.5h61q29 0 45 27zM1176 242l2 -86q0 -27 -16.5 -43.5 t-43.5 -16.5h-20v-57q0 -27 -16.5 -43t-43.5 -16h-106q-27 0 -43.5 16t-16.5 43v57h-174q-43 0 -61 39v2l-41 107v-2q-14 37 4 67l238 381q18 27 57 27h143q27 0 43.5 -16.5t16.5 -43.5v-356h18q60 0 60 -59zM1096 158h20l-2 82h-18q-27 0 -43.5 16t-16.5 43v356h-141h-6 l-238 -379q-2 -4 2 -10v-2l41 -106v2v-2h4h176q27 0 43.5 -17.5t16.5 -44.5v-55h102v55q0 27 16.5 44.5t43.5 17.5zM764 322l78 127q23 39 57.5 28.5t34.5 -55.5v-123q0 -27 -16.5 -43t-43.5 -16h-63q-35 0 -49 25.5t2 53.5v3zM872 301v78l-47 -78h47z" glyph-name="onequarter" horiz-adv-x="1236" unicode="¼"/><glyph d="M127 1219h-12q-27 0 -44.5 16t-17.5 43v55q0 37 39 60l92 49q25 12 52 12h57q27 0 43 -16.5t16 -42.5v-619q0 -27 -16.5 -43t-42.5 -16h-107q-27 0 -43 16.5t-16 42.5v443zM1047 1325v2l-738 -1278q-31 -59 -98 -59h-61q-53 0 -74 36.5t8 82.5v-3l737 1278q31 59 99 60 h61q53 0 74 -37t-8 -82zM213 1389l-92 -50q-6 -4 -6 -6v-53h14q27 0 43 -16.5t16 -42.5v-443h103v615h-55q-11 0 -23 -4zM993 1356v2q8 14 6 19t-18 5h-61q-29 0 -46 -26l-737 -1278v-2q-8 -14 -6 -19.5t19 -5.5h61q29 0 45 27zM1038 199h148q27 0 43 -17.5t16 -44.5v-98 q0 -27 -16.5 -43t-42.5 -16h-391q-29 0 -45.5 16t-16.5 45q2 106 19.5 154.5t76.5 101.5q29 27 76 65q123 104 123 130q0 37 -57.5 36.5t-122.5 -51.5q-31 -25 -57.5 -12.5t-26.5 51.5v90q0 37 18 56q72 76 189 75q129 0 206.5 -66.5t77.5 -178.5q0 -111 -102 -197 q-101 -82 -115 -96zM870 252q-49 -45 -61 -80t-14 -131h389v96h-170q-39 0 -53.5 30t12.5 56q53 49 139 121q82 63 82 148q0 86 -59.5 135t-163.5 49q-84 0 -144 -55q-2 -2 -2 -15v-69q72 53 146 53q53 0 86 -26.5t33 -71.5q0 -33 -31 -70t-115 -107z" glyph-name="onehalf" horiz-adv-x="1314" unicode="½"/><glyph d="M580 973q0 -123 -82 -200t-213 -77q-47 0 -108.5 22.5t-96.5 53.5q-23 18 -23 55v93q0 37 26 49t58 -8q63 -45 144 -46q31 0 49 16.5t18 41.5q0 66 -121 76q-39 4 -51 30.5t10 55.5l80 100h-143q-27 0 -43 17.5t-16 43.5v99q0 27 16 43t43 16h336q41 0 61 -41l29 -70 q16 -37 -6 -65l-80 -92q51 -27 82 -84t31 -129zM1192 1325v2l-737 -1278q-31 -59 -99 -59h-61q-53 0 -73.5 36.5t7.5 82.5v-3l738 1278q31 59 98 60h61q53 0 74 -37t-8 -82zM119 901v-74v-8q27 -25 77 -43t89 -18q106 0 169.5 59.5t63.5 155.5q0 123 -84 160 q-31 12 -37 36.5t17 47.5l84 98q0 2 -2 4l-29 70q-4 2 -4 4h-334v-97h162q39 0 52 -28.5t-13 -57.5l2 2l-84 -104q166 -20 166 -135q0 -51 -37 -85t-92 -34q-88 0 -166 47zM1139 1356v2q8 14 6 19t-19 5h-61q-29 0 -45 -26l-737 -1278v-2q-8 -14 -6 -19.5t18 -5.5h61 q29 0 45 27zM1321 242l2 -86q0 -27 -16.5 -43.5t-42.5 -16.5h-21v-57q0 -27 -16.5 -43t-42.5 -16h-107q-27 0 -43 16t-16 43v57h-174q-41 0 -62 39v2l-41 107v-2q-14 37 4 67l238 381q18 27 57 27h144q27 0 43 -16.5t16 -43.5v-356h19q59 0 59 -59zM1241 158h21l-2 82h-19 q-27 0 -43 16t-16 43v356h-142h-6l-237 -379q-2 -4 2 -10v-2l41 -106v2v-2h4h176q27 0 43 -17.5t16 -44.5v-55h103v55q0 27 16 44.5t43 17.5zM909 322l78 127q23 39 57.5 28.5t34.5 -55.5v-123q0 -27 -16 -43t-43 -16h-64q-35 0 -49 25.5t2 53.5v3zM1018 301v78l-47 -78h47z " glyph-name="threequarters" horiz-adv-x="1382" unicode="¾"/><glyph d="M446 1024q-90 0 -152.5 63.5t-62.5 151.5t62.5 151.5t152.5 63.5q88 0 152 -63.5t64 -151.5t-64 -151.5t-152 -63.5zM446.5 1372q-55.5 0 -94.5 -39t-39 -94t39 -94t94.5 -39t94.5 39t39 94t-39 94t-94.5 39zM762 719q59 -51 92 -85t66.5 -97.5t33.5 -130.5 q0 -193 -142 -309.5t-380 -116.5q-184 0 -311 120q-39 39 -39 101v174q0 66 43 83t92 -28q98 -80 215 -80q49 0 81 26.5t32 67.5q0 31 -72 105l-32.5 32.5t-39 41t-33 42t-33.5 54t-21.5 60.5t-16.5 79q-6 47 22.5 78t75.5 31h117q84 0 100 -86q6 -25 22.5 -47.5t32 -36 t46.5 -38t49 -40.5zM432 61q203 0 321.5 93.5t118.5 251.5q0 74 -39.5 127t-123.5 124q-14 12 -53.5 44t-56.5 48.5t-38.5 48t-30.5 66.5q-2 20 -18 21h-117q-12 0 -15 -3t-1 -12q4 -35 13 -65.5t17.5 -51t28 -45t28.5 -35.5t33.5 -35t32.5 -32q94 -98 95 -162 q0 -76 -55.5 -126t-139.5 -50q-150 0 -268 101v-168q0 -27 14 -39q100 -101 254 -101z" glyph-name="questiondown" horiz-adv-x="1036" unicode="¿"/><glyph d="M483 1565v2l-114 196q-20 39 0 70t65 31h193q59 0 82 -58l61 -186q14 -41 -7.5 -70.5t-62.5 -29.5h-135q-51 0 -82 45zM610 1782h-131q-29 0 -14 -25l88 -149q6 -6 12 -6h101q23 0 16 22l-47 141q-7 17 -25 17zM901 1366l328 -1251q12 -49 -13.5 -82t-76.5 -33h-228 q-84 0 -102 80l-18 78q-2 20 -23 20h-260q-20 0 -25 -20l-18 -78q-18 -80 -103 -80h-227q-51 0 -76.5 33t-13.5 82l330 1251q23 68 102 68h322q79 0 102 -68zM911 82h228h6q8 0 8 2t-2 6v4l-328 1247q-6 10 -24 11h-322q-18 0 -24 -11l-330 -1247q-2 -10 -1 -11t13 -1h227 q18 0 25 18l16 76q16 84 105 84h260q41 0 68.5 -23.5t35.5 -62.5l15 -74q6 -18 24 -18zM715 897l69 -317q10 -47 -16.5 -80t-77.5 -33h-104q-51 0 -79 34t-13 81l-2 -2l73 319q12 47 44 64.5t64 -1t42 -65.5zM586 549h104q12 0 14.5 2t-2.5 12l-63 291l-66 -291l-2 -2 q-2 -8 0.5 -10t14.5 -2z" glyph-name="Agrave" horiz-adv-x="1273" unicode="À"/><glyph d="M483 1565v2l-114 196q-20 39 0 70t65 31h193q59 0 82 -58l61 -186q14 -41 -7.5 -70.5t-62.5 -29.5h-135q-51 0 -82 45zM610 1782h-131q-29 0 -14 -25l88 -149q6 -6 12 -6h101q23 0 16 22l-47 141q-7 17 -25 17zM901 1366l328 -1251q12 -49 -13.5 -82t-76.5 -33h-228 q-84 0 -102 80l-18 78q-2 20 -23 20h-260q-20 0 -25 -20l-18 -78q-18 -80 -103 -80h-227q-51 0 -76.5 33t-13.5 82l330 1251q23 68 102 68h322q79 0 102 -68zM911 82h228h6q8 0 8 2t-2 6v4l-328 1247q-6 10 -24 11h-322q-18 0 -24 -11l-330 -1247q-2 -10 -1 -11t13 -1h227 q18 0 25 18l16 76q16 84 105 84h260q41 0 68.5 -23.5t35.5 -62.5l15 -74q6 -18 24 -18zM715 897l69 -317q10 -47 -16.5 -80t-77.5 -33h-104q-51 0 -79 34t-13 81l-2 -2l73 319q12 47 44 64.5t64 -1t42 -65.5zM586 549h104q12 0 14.5 2t-2.5 12l-63 291l-66 -291l-2 -2 q-2 -8 0.5 -10t14.5 -2z" glyph-name="Agrave" horiz-adv-x="1273" unicode="à"/><glyph d="M725 1520h-135q-41 0 -62.5 29.5t-7.5 70.5l62 186q23 57 82 58h192q45 0 65.5 -31t0.5 -70l-115 -196v-2q-31 -45 -82 -45zM655 1765l-47 -141q-6 -23 17 -22h100q6 0 12 6l88 149q14 25 -14 25h-131q-19 -1 -25 -17zM901 1366l328 -1251q12 -49 -13.5 -82t-76.5 -33 h-228q-84 0 -102 80l-18 78q-2 20 -23 20h-260q-20 0 -25 -20l-18 -78q-18 -80 -103 -80h-227q-51 0 -76.5 33t-13.5 82l330 1251q23 68 102 68h322q79 0 102 -68zM911 82h228h6q8 0 8 2t-2 6v4l-328 1247q-6 10 -24 11h-322q-18 0 -24 -11l-330 -1247q-2 -10 -1 -11t13 -1 h227q18 0 25 18l16 76q16 84 105 84h260q41 0 68.5 -23.5t35.5 -62.5l15 -74q6 -18 24 -18zM715 897l69 -317q10 -47 -16.5 -80t-77.5 -33h-104q-51 0 -79 34t-13 81l-2 -2l73 319q12 47 44 64.5t64 -1t42 -65.5zM586 549h104q12 0 14.5 2t-2.5 12l-63 291l-66 -291l-2 -2 q-2 -8 0.5 -10t14.5 -2z" glyph-name="Aacute" horiz-adv-x="1273" unicode="Á"/><glyph d="M725 1520h-135q-41 0 -62.5 29.5t-7.5 70.5l62 186q23 57 82 58h192q45 0 65.5 -31t0.5 -70l-115 -196v-2q-31 -45 -82 -45zM655 1765l-47 -141q-6 -23 17 -22h100q6 0 12 6l88 149q14 25 -14 25h-131q-19 -1 -25 -17zM901 1366l328 -1251q12 -49 -13.5 -82t-76.5 -33 h-228q-84 0 -102 80l-18 78q-2 20 -23 20h-260q-20 0 -25 -20l-18 -78q-18 -80 -103 -80h-227q-51 0 -76.5 33t-13.5 82l330 1251q23 68 102 68h322q79 0 102 -68zM911 82h228h6q8 0 8 2t-2 6v4l-328 1247q-6 10 -24 11h-322q-18 0 -24 -11l-330 -1247q-2 -10 -1 -11t13 -1 h227q18 0 25 18l16 76q16 84 105 84h260q41 0 68.5 -23.5t35.5 -62.5l15 -74q6 -18 24 -18zM715 897l69 -317q10 -47 -16.5 -80t-77.5 -33h-104q-51 0 -79 34t-13 81l-2 -2l73 319q12 47 44 64.5t64 -1t42 -65.5zM586 549h104q12 0 14.5 2t-2.5 12l-63 291l-66 -291l-2 -2 q-2 -8 0.5 -10t14.5 -2z" glyph-name="Aacute" horiz-adv-x="1273" unicode="á"/><glyph d="M526 1520h-129q-47 0 -65.5 32.5t6.5 73.5l121 201q25 37 76 37h221q51 0 75 -37l121 -201q25 -41 6.5 -73.5t-65.5 -32.5h-129q-45 0 -80 34l-25 29q-14 18 -28 0l-25 -29q-31 -34 -80 -34zM520 1767l-88 -141q-14 -25 14 -24h80q12 0 19 6q12 18 41 49q27 31 60.5 31 t55.5 -29l43 -49q6 -8 19 -8h80q29 0 14 24l-88 141q-10 14 -25 15h-200q-15 -1 -25 -15zM901 1366l328 -1251q12 -49 -13.5 -82t-76.5 -33h-228q-84 0 -102 80l-18 78q-2 20 -23 20h-260q-20 0 -25 -20l-18 -78q-18 -80 -103 -80h-227q-51 0 -76.5 33t-13.5 82l330 1251 q23 68 102 68h322q79 0 102 -68zM911 82h228h6q8 0 8 2t-2 6v4l-328 1247q-6 10 -24 11h-322q-18 0 -24 -11l-330 -1247q-2 -10 -1 -11t13 -1h227q18 0 25 18l16 76q16 84 105 84h260q41 0 68.5 -23.5t35.5 -62.5l15 -74q6 -18 24 -18zM715 897l69 -317q10 -47 -16.5 -80 t-77.5 -33h-104q-51 0 -79 34t-13 81l-2 -2l73 319q12 47 44 64.5t64 -1t42 -65.5zM586 549h104q12 0 14.5 2t-2.5 12l-63 291l-66 -291l-2 -2q-2 -8 0.5 -10t14.5 -2z" glyph-name="Acircumflex" horiz-adv-x="1273" unicode="Â"/><glyph d="M526 1520h-129q-47 0 -65.5 32.5t6.5 73.5l121 201q25 37 76 37h221q51 0 75 -37l121 -201q25 -41 6.5 -73.5t-65.5 -32.5h-129q-45 0 -80 34l-25 29q-14 18 -28 0l-25 -29q-31 -34 -80 -34zM520 1767l-88 -141q-14 -25 14 -24h80q12 0 19 6q12 18 41 49q27 31 60.5 31 t55.5 -29l43 -49q6 -8 19 -8h80q29 0 14 24l-88 141q-10 14 -25 15h-200q-15 -1 -25 -15zM901 1366l328 -1251q12 -49 -13.5 -82t-76.5 -33h-228q-84 0 -102 80l-18 78q-2 20 -23 20h-260q-20 0 -25 -20l-18 -78q-18 -80 -103 -80h-227q-51 0 -76.5 33t-13.5 82l330 1251 q23 68 102 68h322q79 0 102 -68zM911 82h228h6q8 0 8 2t-2 6v4l-328 1247q-6 10 -24 11h-322q-18 0 -24 -11l-330 -1247q-2 -10 -1 -11t13 -1h227q18 0 25 18l16 76q16 84 105 84h260q41 0 68.5 -23.5t35.5 -62.5l15 -74q6 -18 24 -18zM715 897l69 -317q10 -47 -16.5 -80 t-77.5 -33h-104q-51 0 -79 34t-13 81l-2 -2l73 319q12 47 44 64.5t64 -1t42 -65.5zM586 549h104q12 0 14.5 2t-2.5 12l-63 291l-66 -291l-2 -2q-2 -8 0.5 -10t14.5 -2z" glyph-name="Acircumflex" horiz-adv-x="1273" unicode="â"/><glyph d="M365 1546l-93 60q-63 45 -22 110q106 168 266 168q61 0 152 -57q16 -12 24 -17q61 -41 82 -41q23 0 41 35q39 76 111 31l92 -59q63 -43 22 -109q-106 -168 -266 -168q-61 0 -151 57q-16 12 -25 17q-61 41 -82 41q-18 0 -43 -37q-14 -33 -45 -41t-61 10h-2zM516 1802 q-119 0 -194 -129l81 -53q47 76 113 76q47 0 127 -56l25 -14q70 -45 106 -45q119 0 197 129l-84 51q-45 -74 -113 -73q-47 0 -127 55l-24 14q-70 45 -107 45zM901 1366l328 -1251q12 -49 -13.5 -82t-76.5 -33h-228q-84 0 -102 80l-18 78q-2 20 -23 20h-260q-20 0 -25 -20 l-18 -78q-18 -80 -103 -80h-227q-51 0 -76.5 33t-13.5 82l330 1251q23 68 102 68h322q79 0 102 -68zM911 82h228h6q8 0 8 2t-2 6v4l-328 1247q-6 10 -24 11h-322q-18 0 -24 -11l-330 -1247q-2 -10 -1 -11t13 -1h227q18 0 25 18l16 76q16 84 105 84h260q41 0 68.5 -23.5 t35.5 -62.5l15 -74q6 -18 24 -18zM715 897l69 -317q10 -47 -16.5 -80t-77.5 -33h-104q-51 0 -79 34t-13 81l-2 -2l73 319q12 47 44 64.5t64 -1t42 -65.5zM586 549h104q12 0 14.5 2t-2.5 12l-63 291l-66 -291l-2 -2q-2 -8 0.5 -10t14.5 -2z" glyph-name="Atilde" horiz-adv-x="1273" unicode="Ã"/><glyph d="M365 1546l-93 60q-63 45 -22 110q106 168 266 168q61 0 152 -57q16 -12 24 -17q61 -41 82 -41q23 0 41 35q39 76 111 31l92 -59q63 -43 22 -109q-106 -168 -266 -168q-61 0 -151 57q-16 12 -25 17q-61 41 -82 41q-18 0 -43 -37q-14 -33 -45 -41t-61 10h-2zM516 1802 q-119 0 -194 -129l81 -53q47 76 113 76q47 0 127 -56l25 -14q70 -45 106 -45q119 0 197 129l-84 51q-45 -74 -113 -73q-47 0 -127 55l-24 14q-70 45 -107 45zM901 1366l328 -1251q12 -49 -13.5 -82t-76.5 -33h-228q-84 0 -102 80l-18 78q-2 20 -23 20h-260q-20 0 -25 -20 l-18 -78q-18 -80 -103 -80h-227q-51 0 -76.5 33t-13.5 82l330 1251q23 68 102 68h322q79 0 102 -68zM911 82h228h6q8 0 8 2t-2 6v4l-328 1247q-6 10 -24 11h-322q-18 0 -24 -11l-330 -1247q-2 -10 -1 -11t13 -1h227q18 0 25 18l16 76q16 84 105 84h260q41 0 68.5 -23.5 t35.5 -62.5l15 -74q6 -18 24 -18zM715 897l69 -317q10 -47 -16.5 -80t-77.5 -33h-104q-51 0 -79 34t-13 81l-2 -2l73 319q12 47 44 64.5t64 -1t42 -65.5zM586 549h104q12 0 14.5 2t-2.5 12l-63 291l-66 -291l-2 -2q-2 -8 0.5 -10t14.5 -2z" glyph-name="Atilde" horiz-adv-x="1273" unicode="ã"/><glyph d="M461 1499q-80 0 -135.5 56.5t-55.5 136.5t56.5 136t134.5 56q106 0 164 -92q12 -20 20 -20t21 20q55 92 163 92q78 0 134.5 -57.5t56.5 -134.5q0 -80 -56.5 -136.5t-134.5 -56.5q-106 0 -163 92q-12 18 -20.5 18.5t-20.5 -18.5q-58 -92 -164 -92zM461 1802 q-45 0 -77 -32.5t-32 -77.5q0 -47 32 -79t77 -32q47 0 78.5 33t31.5 78t-32.5 77.5t-77.5 32.5zM829 1802q-47 0 -78.5 -32.5t-31.5 -77.5q0 -47 31.5 -79t78.5 -32q45 0 77 33t32 78t-33 77.5t-76 32.5zM901 1366l328 -1251q12 -49 -13.5 -82t-76.5 -33h-228q-84 0 -102 80 l-18 78q-2 20 -23 20h-260q-20 0 -25 -20l-18 -78q-18 -80 -103 -80h-227q-51 0 -76.5 33t-13.5 82l330 1251q23 68 102 68h322q79 0 102 -68zM911 82h228h6q8 0 8 2t-2 6v4l-328 1247q-6 10 -24 11h-322q-18 0 -24 -11l-330 -1247q-2 -10 -1 -11t13 -1h227q18 0 25 18 l16 76q16 84 105 84h260q41 0 68.5 -23.5t35.5 -62.5l15 -74q6 -18 24 -18zM715 897l69 -317q10 -47 -16.5 -80t-77.5 -33h-104q-51 0 -79 34t-13 81l-2 -2l73 319q12 47 44 64.5t64 -1t42 -65.5zM586 549h104q12 0 14.5 2t-2.5 12l-63 291l-66 -291l-2 -2q-2 -8 0.5 -10 t14.5 -2z" glyph-name="Adieresis" horiz-adv-x="1273" unicode="Ä"/><glyph d="M461 1499q-80 0 -135.5 56.5t-55.5 136.5t56.5 136t134.5 56q106 0 164 -92q12 -20 20 -20t21 20q55 92 163 92q78 0 134.5 -57.5t56.5 -134.5q0 -80 -56.5 -136.5t-134.5 -56.5q-106 0 -163 92q-12 18 -20.5 18.5t-20.5 -18.5q-58 -92 -164 -92zM461 1802 q-45 0 -77 -32.5t-32 -77.5q0 -47 32 -79t77 -32q47 0 78.5 33t31.5 78t-32.5 77.5t-77.5 32.5zM829 1802q-47 0 -78.5 -32.5t-31.5 -77.5q0 -47 31.5 -79t78.5 -32q45 0 77 33t32 78t-33 77.5t-76 32.5zM901 1366l328 -1251q12 -49 -13.5 -82t-76.5 -33h-228q-84 0 -102 80 l-18 78q-2 20 -23 20h-260q-20 0 -25 -20l-18 -78q-18 -80 -103 -80h-227q-51 0 -76.5 33t-13.5 82l330 1251q23 68 102 68h322q79 0 102 -68zM911 82h228h6q8 0 8 2t-2 6v4l-328 1247q-6 10 -24 11h-322q-18 0 -24 -11l-330 -1247q-2 -10 -1 -11t13 -1h227q18 0 25 18 l16 76q16 84 105 84h260q41 0 68.5 -23.5t35.5 -62.5l15 -74q6 -18 24 -18zM715 897l69 -317q10 -47 -16.5 -80t-77.5 -33h-104q-51 0 -79 34t-13 81l-2 -2l73 319q12 47 44 64.5t64 -1t42 -65.5zM586 549h104q12 0 14.5 2t-2.5 12l-63 291l-66 -291l-2 -2q-2 -8 0.5 -10 t14.5 -2z" glyph-name="Adieresis" horiz-adv-x="1273" unicode="ä"/><glyph d="M645.5 1526q-108.5 0 -186.5 77.5t-78 186t78 186.5t186.5 78t186 -78t77.5 -186.5t-77.5 -186t-186 -77.5zM645 1972q-76 0 -129 -53t-53 -129t53 -129t129 -53t129 53t53 129t-53 129t-129 53zM645 1667q-51 0 -87 35t-36 88q0 51 36 86t87 35t87 -35t36 -86 q0 -53 -36 -88t-87 -35zM645.5 1829q-16.5 0 -29 -11.5t-12.5 -27.5t12.5 -28.5t29 -12.5t28.5 12.5t12 28.5t-12 27.5t-28.5 11.5zM901 1366l328 -1251q12 -49 -13.5 -82t-76.5 -33h-228q-84 0 -102 80l-18 78q-2 20 -23 20h-260q-20 0 -25 -20l-18 -78q-18 -80 -103 -80 h-227q-51 0 -76.5 33t-13.5 82l330 1251q23 68 102 68h322q79 0 102 -68zM911 82h228h6q8 0 8 2t-2 6v4l-328 1247q-6 10 -24 11h-322q-18 0 -24 -11l-330 -1247q-2 -10 -1 -11t13 -1h227q18 0 25 18l16 76q16 84 105 84h260q41 0 68.5 -23.5t35.5 -62.5l15 -74 q6 -18 24 -18zM715 897l69 -317q10 -47 -16.5 -80t-77.5 -33h-104q-51 0 -79 34t-13 81l-2 -2l73 319q12 47 44 64.5t64 -1t42 -65.5zM586 549h104q12 0 14.5 2t-2.5 12l-63 291l-66 -291l-2 -2q-2 -8 0.5 -10t14.5 -2z" glyph-name="Aring" horiz-adv-x="1273" unicode="Å"/><glyph d="M645.5 1526q-108.5 0 -186.5 77.5t-78 186t78 186.5t186.5 78t186 -78t77.5 -186.5t-77.5 -186t-186 -77.5zM645 1972q-76 0 -129 -53t-53 -129t53 -129t129 -53t129 53t53 129t-53 129t-129 53zM645 1667q-51 0 -87 35t-36 88q0 51 36 86t87 35t87 -35t36 -86 q0 -53 -36 -88t-87 -35zM645.5 1829q-16.5 0 -29 -11.5t-12.5 -27.5t12.5 -28.5t29 -12.5t28.5 12.5t12 28.5t-12 27.5t-28.5 11.5zM901 1366l328 -1251q12 -49 -13.5 -82t-76.5 -33h-228q-84 0 -102 80l-18 78q-2 20 -23 20h-260q-20 0 -25 -20l-18 -78q-18 -80 -103 -80 h-227q-51 0 -76.5 33t-13.5 82l330 1251q23 68 102 68h322q79 0 102 -68zM911 82h228h6q8 0 8 2t-2 6v4l-328 1247q-6 10 -24 11h-322q-18 0 -24 -11l-330 -1247q-2 -10 -1 -11t13 -1h227q18 0 25 18l16 76q16 84 105 84h260q41 0 68.5 -23.5t35.5 -62.5l15 -74 q6 -18 24 -18zM715 897l69 -317q10 -47 -16.5 -80t-77.5 -33h-104q-51 0 -79 34t-13 81l-2 -2l73 319q12 47 44 64.5t64 -1t42 -65.5zM586 549h104q12 0 14.5 2t-2.5 12l-63 291l-66 -291l-2 -2q-2 -8 0.5 -10t14.5 -2z" glyph-name="Aring" horiz-adv-x="1273" unicode="å"/><glyph d="M1585 1024h-444q-16 0 -17 -16v-78q0 -18 17 -19h270q45 0 71.5 -26.5t26.5 -71.5v-192q0 -45 -26.5 -72t-71.5 -27h-270q-16 0 -17 -18v-78q0 -16 17 -16h444q45 0 71.5 -27t26.5 -72v-213q0 -45 -26.5 -71.5t-71.5 -26.5h-792q-45 0 -72 26.5t-27 71.5v62q0 18 -18 18 h-162q-16 0 -25 -18l-22 -84q-23 -76 -102 -76h-232q-51 0 -75.5 35t-10.5 84l383 1247q27 68 102 68h1053q45 0 71.5 -27t26.5 -72v-213q0 -45 -26.5 -71.5t-71.5 -26.5zM1411 829h-270q-45 0 -72 28t-27 73v78q0 45 27 71.5t72 26.5h444q10 0 13.5 3t3.5 13v213 q0 10 -3.5 13.5t-13.5 3.5h-1053q-18 0 -24 -13l-383 -1245q-2 -10 -2 -11t10 -1h232q20 0 24 16l23 84q23 78 102 78h162q45 0 72.5 -27.5t27.5 -72.5v-62q0 -10 3 -13t14 -3h792q10 0 13.5 3t3.5 13v213q0 10 -3.5 13.5t-13.5 3.5h-444q-45 0 -72 26.5t-27 71.5v78 q0 45 27 72.5t72 27.5h270q10 0 13 3t3 14v192q0 10 -3 13t-13 3zM715 1085q61 0 61 -98v-422q0 -45 -27.5 -71.5t-72.5 -26.5h-64q-51 0 -77.5 35t-10.5 84v-2l119 426q21 75 72 75zM612 549h64q18 0 18 16v328l-92 -330v-2q-4 -8 -2 -10t12 -2z" glyph-name="AE" horiz-adv-x="1785" unicode="Æ"/><glyph d="M1585 1024h-444q-16 0 -17 -16v-78q0 -18 17 -19h270q45 0 71.5 -26.5t26.5 -71.5v-192q0 -45 -26.5 -72t-71.5 -27h-270q-16 0 -17 -18v-78q0 -16 17 -16h444q45 0 71.5 -27t26.5 -72v-213q0 -45 -26.5 -71.5t-71.5 -26.5h-792q-45 0 -72 26.5t-27 71.5v62q0 18 -18 18 h-162q-16 0 -25 -18l-22 -84q-23 -76 -102 -76h-232q-51 0 -75.5 35t-10.5 84l383 1247q27 68 102 68h1053q45 0 71.5 -27t26.5 -72v-213q0 -45 -26.5 -71.5t-71.5 -26.5zM1411 829h-270q-45 0 -72 28t-27 73v78q0 45 27 71.5t72 26.5h444q10 0 13.5 3t3.5 13v213 q0 10 -3.5 13.5t-13.5 3.5h-1053q-18 0 -24 -13l-383 -1245q-2 -10 -2 -11t10 -1h232q20 0 24 16l23 84q23 78 102 78h162q45 0 72.5 -27.5t27.5 -72.5v-62q0 -10 3 -13t14 -3h792q10 0 13.5 3t3.5 13v213q0 10 -3.5 13.5t-13.5 3.5h-444q-45 0 -72 26.5t-27 71.5v78 q0 45 27 72.5t72 27.5h270q10 0 13 3t3 14v192q0 10 -3 13t-13 3zM715 1085q61 0 61 -98v-422q0 -45 -27.5 -71.5t-72.5 -26.5h-64q-51 0 -77.5 35t-10.5 84v-2l119 426q21 75 72 75zM612 549h64q18 0 18 16v328l-92 -330v-2q-4 -8 -2 -10t12 -2z" glyph-name="AE" horiz-adv-x="1785" unicode="æ"/><glyph d="M791 1032q-131 0 -205 -87t-74 -238q0 -154 73.5 -241t205.5 -87q152 0 229 78q47 45 89 27.5t42 -81.5v-213q0 -61 -33 -96q-80 -92 -254 -119q82 -49 82 -157q0 -82 -48 -134.5t-115.5 -66.5t-138.5 -7t-118 32q-45 27 -45 77v41q0 39 23.5 59.5t60.5 12.5 q-43 23 -39 80l15 88q-213 68 -336 257t-123 450q0 324 186.5 529.5t483.5 205.5q258 0 366 -125q33 -35 33 -94v-213q0 -66 -41 -82.5t-90 28.5q-77 76 -229 76zM430 706.5q0 186.5 98.5 297t262.5 110.5q172 0 278 -90v199q0 27 -12 41q-86 96 -305 96q-262 0 -425 -181.5 t-163 -471.5q0 -236 108.5 -404t296.5 -227q63 -18 54 -88l-15 -80q61 4 101 -2q57 -8 80.5 -48t1 -80t-81.5 -50q-41 -6 -146 20v-29q0 -4 2 -6q55 -29 124 -33t122 31t53 107q0 94 -96 104q-2 0 -6 2q-55 6 -55 56q0 72 63 71q201 0 287 96q12 12 12 43v199 q-104 -92 -278 -92q-164 0 -262.5 111.5t-98.5 298zM608 -174h-18q78 -23 106 -16q53 6 0 14q-31 4 -88 2z" glyph-name="Ccedilla" horiz-adv-x="1253" unicode="Ç"/><glyph d="M791 1032q-131 0 -205 -87t-74 -238q0 -154 73.5 -241t205.5 -87q152 0 229 78q47 45 89 27.5t42 -81.5v-213q0 -61 -33 -96q-80 -92 -254 -119q82 -49 82 -157q0 -82 -48 -134.5t-115.5 -66.5t-138.5 -7t-118 32q-45 27 -45 77v41q0 39 23.5 59.5t60.5 12.5 q-43 23 -39 80l15 88q-213 68 -336 257t-123 450q0 324 186.5 529.5t483.5 205.5q258 0 366 -125q33 -35 33 -94v-213q0 -66 -41 -82.5t-90 28.5q-77 76 -229 76zM430 706.5q0 186.5 98.5 297t262.5 110.5q172 0 278 -90v199q0 27 -12 41q-86 96 -305 96q-262 0 -425 -181.5 t-163 -471.5q0 -236 108.5 -404t296.5 -227q63 -18 54 -88l-15 -80q61 4 101 -2q57 -8 80.5 -48t1 -80t-81.5 -50q-41 -6 -146 20v-29q0 -4 2 -6q55 -29 124 -33t122 31t53 107q0 94 -96 104q-2 0 -6 2q-55 6 -55 56q0 72 63 71q201 0 287 96q12 12 12 43v199 q-104 -92 -278 -92q-164 0 -262.5 111.5t-98.5 298zM608 -174h-18q78 -23 106 -16q53 6 0 14q-31 4 -88 2z" glyph-name="Ccedilla" horiz-adv-x="1253" unicode="ç"/><glyph d="M463 1567l-115 196q-20 39 0.5 70t65.5 31h192q59 0 82 -58l62 -186q14 -41 -7.5 -70.5t-62.5 -29.5h-135q-51 0 -82 45v2zM590 1782h-131q-29 0 -15 -25l88 -149q6 -6 13 -6h100q23 0 17 22l-48 141q-6 17 -24 17zM1014 0h-791q-45 0 -72.5 26.5t-27.5 71.5v1237 q0 45 27.5 72t72.5 27h791q45 0 72.5 -27t27.5 -72v-213q0 -45 -27.5 -71.5t-72.5 -26.5h-445q-16 0 -16 -16v-88q0 -10 3 -13.5t13 -3.5h271q45 0 72.5 -27.5t27.5 -72.5v-172q0 -45 -27.5 -73t-72.5 -28h-271q-10 0 -13 -3t-3 -13v-88q0 -16 16 -16h445q45 0 72.5 -27 t27.5 -72v-213q0 -45 -27.5 -71.5t-72.5 -26.5zM223 82h791q18 0 18 16v213q0 16 -18 17h-445q-45 0 -71.5 26.5t-26.5 71.5v88q0 45 26.5 71.5t71.5 26.5h271q18 0 18 19v172q0 18 -18 18h-271q-45 0 -71.5 26.5t-26.5 72.5v88q0 45 26.5 71.5t71.5 26.5h445q18 0 18 16 v213q0 16 -18 17h-791q-18 0 -18 -17v-1237q0 -16 18 -16z" glyph-name="Egrave" horiz-adv-x="1236" unicode="È"/><glyph d="M463 1567l-115 196q-20 39 0.5 70t65.5 31h192q59 0 82 -58l62 -186q14 -41 -7.5 -70.5t-62.5 -29.5h-135q-51 0 -82 45v2zM590 1782h-131q-29 0 -15 -25l88 -149q6 -6 13 -6h100q23 0 17 22l-48 141q-6 17 -24 17zM1014 0h-791q-45 0 -72.5 26.5t-27.5 71.5v1237 q0 45 27.5 72t72.5 27h791q45 0 72.5 -27t27.5 -72v-213q0 -45 -27.5 -71.5t-72.5 -26.5h-445q-16 0 -16 -16v-88q0 -10 3 -13.5t13 -3.5h271q45 0 72.5 -27.5t27.5 -72.5v-172q0 -45 -27.5 -73t-72.5 -28h-271q-10 0 -13 -3t-3 -13v-88q0 -16 16 -16h445q45 0 72.5 -27 t27.5 -72v-213q0 -45 -27.5 -71.5t-72.5 -26.5zM223 82h791q18 0 18 16v213q0 16 -18 17h-445q-45 0 -71.5 26.5t-26.5 71.5v88q0 45 26.5 71.5t71.5 26.5h271q18 0 18 19v172q0 18 -18 18h-271q-45 0 -71.5 26.5t-26.5 72.5v88q0 45 26.5 71.5t71.5 26.5h445q18 0 18 16 v213q0 16 -18 17h-791q-18 0 -18 -17v-1237q0 -16 18 -16z" glyph-name="Egrave" horiz-adv-x="1236" unicode="è"/><glyph d="M840 1763l-115 -196v-2q-31 -45 -82 -45h-135q-41 0 -62.5 29.5t-7.5 70.5l62 186q23 57 82 58h192q45 0 65.5 -31t0.5 -70zM729 1782h-131q-18 0 -25 -17l-47 -141q-6 -23 17 -22h100q6 0 12 6l88 149q15 25 -14 25zM1014 0h-791q-45 0 -72.5 26.5t-27.5 71.5v1237 q0 45 27.5 72t72.5 27h791q45 0 72.5 -27t27.5 -72v-213q0 -45 -27.5 -71.5t-72.5 -26.5h-445q-16 0 -16 -16v-88q0 -10 3 -13.5t13 -3.5h271q45 0 72.5 -27.5t27.5 -72.5v-172q0 -45 -27.5 -73t-72.5 -28h-271q-10 0 -13 -3t-3 -13v-88q0 -16 16 -16h445q45 0 72.5 -27 t27.5 -72v-213q0 -45 -27.5 -71.5t-72.5 -26.5zM223 82h791q18 0 18 16v213q0 16 -18 17h-445q-45 0 -71.5 26.5t-26.5 71.5v88q0 45 26.5 71.5t71.5 26.5h271q18 0 18 19v172q0 18 -18 18h-271q-45 0 -71.5 26.5t-26.5 72.5v88q0 45 26.5 71.5t71.5 26.5h445q18 0 18 16 v213q0 16 -18 17h-791q-18 0 -18 -17v-1237q0 -16 18 -16z" glyph-name="Eacute" horiz-adv-x="1236" unicode="É"/><glyph d="M840 1763l-115 -196v-2q-31 -45 -82 -45h-135q-41 0 -62.5 29.5t-7.5 70.5l62 186q23 57 82 58h192q45 0 65.5 -31t0.5 -70zM729 1782h-131q-18 0 -25 -17l-47 -141q-6 -23 17 -22h100q6 0 12 6l88 149q15 25 -14 25zM1014 0h-791q-45 0 -72.5 26.5t-27.5 71.5v1237 q0 45 27.5 72t72.5 27h791q45 0 72.5 -27t27.5 -72v-213q0 -45 -27.5 -71.5t-72.5 -26.5h-445q-16 0 -16 -16v-88q0 -10 3 -13.5t13 -3.5h271q45 0 72.5 -27.5t27.5 -72.5v-172q0 -45 -27.5 -73t-72.5 -28h-271q-10 0 -13 -3t-3 -13v-88q0 -16 16 -16h445q45 0 72.5 -27 t27.5 -72v-213q0 -45 -27.5 -71.5t-72.5 -26.5zM223 82h791q18 0 18 16v213q0 16 -18 17h-445q-45 0 -71.5 26.5t-26.5 71.5v88q0 45 26.5 71.5t71.5 26.5h271q18 0 18 19v172q0 18 -18 18h-271q-45 0 -71.5 26.5t-26.5 72.5v88q0 45 26.5 71.5t71.5 26.5h445q18 0 18 16 v213q0 16 -18 17h-791q-18 0 -18 -17v-1237q0 -16 18 -16z" glyph-name="Eacute" horiz-adv-x="1236" unicode="é"/><glyph d="M485 1520h-129q-47 0 -65.5 32.5t6.5 73.5l121 201q25 37 76 37h221q51 0 76 -37l120 -201q25 -41 6.5 -73.5t-65.5 -32.5h-129q-45 0 -80 34l-25 29q-14 18 -28 0l-25 -29q-31 -34 -80 -34zM479 1767l-88 -141q-14 -25 15 -24h79q12 0 19 6q12 18 41 49q27 31 60.5 31 t56.5 -29l43 -49q6 -8 18 -8h80q29 0 14 24l-88 141q-10 14 -24 15h-201q-15 -1 -25 -15zM1014 0h-791q-45 0 -72.5 26.5t-27.5 71.5v1237q0 45 27.5 72t72.5 27h791q45 0 72.5 -27t27.5 -72v-213q0 -45 -27.5 -71.5t-72.5 -26.5h-445q-16 0 -16 -16v-88q0 -10 3 -13.5 t13 -3.5h271q45 0 72.5 -27.5t27.5 -72.5v-172q0 -45 -27.5 -73t-72.5 -28h-271q-10 0 -13 -3t-3 -13v-88q0 -16 16 -16h445q45 0 72.5 -27t27.5 -72v-213q0 -45 -27.5 -71.5t-72.5 -26.5zM223 82h791q18 0 18 16v213q0 16 -18 17h-445q-45 0 -71.5 26.5t-26.5 71.5v88 q0 45 26.5 71.5t71.5 26.5h271q18 0 18 19v172q0 18 -18 18h-271q-45 0 -71.5 26.5t-26.5 72.5v88q0 45 26.5 71.5t71.5 26.5h445q18 0 18 16v213q0 16 -18 17h-791q-18 0 -18 -17v-1237q0 -16 18 -16z" glyph-name="Ecircumflex" horiz-adv-x="1236" unicode="Ê"/><glyph d="M485 1520h-129q-47 0 -65.5 32.5t6.5 73.5l121 201q25 37 76 37h221q51 0 76 -37l120 -201q25 -41 6.5 -73.5t-65.5 -32.5h-129q-45 0 -80 34l-25 29q-14 18 -28 0l-25 -29q-31 -34 -80 -34zM479 1767l-88 -141q-14 -25 15 -24h79q12 0 19 6q12 18 41 49q27 31 60.5 31 t56.5 -29l43 -49q6 -8 18 -8h80q29 0 14 24l-88 141q-10 14 -24 15h-201q-15 -1 -25 -15zM1014 0h-791q-45 0 -72.5 26.5t-27.5 71.5v1237q0 45 27.5 72t72.5 27h791q45 0 72.5 -27t27.5 -72v-213q0 -45 -27.5 -71.5t-72.5 -26.5h-445q-16 0 -16 -16v-88q0 -10 3 -13.5 t13 -3.5h271q45 0 72.5 -27.5t27.5 -72.5v-172q0 -45 -27.5 -73t-72.5 -28h-271q-10 0 -13 -3t-3 -13v-88q0 -16 16 -16h445q45 0 72.5 -27t27.5 -72v-213q0 -45 -27.5 -71.5t-72.5 -26.5zM223 82h791q18 0 18 16v213q0 16 -18 17h-445q-45 0 -71.5 26.5t-26.5 71.5v88 q0 45 26.5 71.5t71.5 26.5h271q18 0 18 19v172q0 18 -18 18h-271q-45 0 -71.5 26.5t-26.5 72.5v88q0 45 26.5 71.5t71.5 26.5h445q18 0 18 16v213q0 16 -18 17h-791q-18 0 -18 -17v-1237q0 -16 18 -16z" glyph-name="Ecircumflex" horiz-adv-x="1236" unicode="ê"/><glyph d="M209 1692q0 80 56.5 136t133.5 56q106 0 164 -92q12 -20 20.5 -20t20.5 20q55 92 164 92q78 0 134 -57.5t56 -134.5q0 -80 -56 -136.5t-134 -56.5q-106 0 -164 92q-12 18 -20.5 18.5t-20.5 -18.5q-57 -92 -164 -92q-80 0 -135 56.5t-55 136.5zM291 1692q0 -47 31.5 -79 t76.5 -32q47 0 79 33t32 78t-33 77.5t-78 32.5t-76.5 -32.5t-31.5 -77.5zM657 1692q0 -47 32 -79t79 -32q45 0 77 33t32 78t-33 77.5t-76 32.5q-47 0 -79 -32.5t-32 -77.5zM1014 0h-791q-45 0 -72.5 26.5t-27.5 71.5v1237q0 45 27.5 72t72.5 27h791q45 0 72.5 -27t27.5 -72 v-213q0 -45 -27.5 -71.5t-72.5 -26.5h-445q-16 0 -16 -16v-88q0 -10 3 -13.5t13 -3.5h271q45 0 72.5 -27.5t27.5 -72.5v-172q0 -45 -27.5 -73t-72.5 -28h-271q-10 0 -13 -3t-3 -13v-88q0 -16 16 -16h445q45 0 72.5 -27t27.5 -72v-213q0 -45 -27.5 -71.5t-72.5 -26.5zM223 82 h791q18 0 18 16v213q0 16 -18 17h-445q-45 0 -71.5 26.5t-26.5 71.5v88q0 45 26.5 71.5t71.5 26.5h271q18 0 18 19v172q0 18 -18 18h-271q-45 0 -71.5 26.5t-26.5 72.5v88q0 45 26.5 71.5t71.5 26.5h445q18 0 18 16v213q0 16 -18 17h-791q-18 0 -18 -17v-1237q0 -16 18 -16z " glyph-name="Edieresis" horiz-adv-x="1236" unicode="Ë"/><glyph d="M209 1692q0 80 56.5 136t133.5 56q106 0 164 -92q12 -20 20.5 -20t20.5 20q55 92 164 92q78 0 134 -57.5t56 -134.5q0 -80 -56 -136.5t-134 -56.5q-106 0 -164 92q-12 18 -20.5 18.5t-20.5 -18.5q-57 -92 -164 -92q-80 0 -135 56.5t-55 136.5zM291 1692q0 -47 31.5 -79 t76.5 -32q47 0 79 33t32 78t-33 77.5t-78 32.5t-76.5 -32.5t-31.5 -77.5zM657 1692q0 -47 32 -79t79 -32q45 0 77 33t32 78t-33 77.5t-76 32.5q-47 0 -79 -32.5t-32 -77.5zM1014 0h-791q-45 0 -72.5 26.5t-27.5 71.5v1237q0 45 27.5 72t72.5 27h791q45 0 72.5 -27t27.5 -72 v-213q0 -45 -27.5 -71.5t-72.5 -26.5h-445q-16 0 -16 -16v-88q0 -10 3 -13.5t13 -3.5h271q45 0 72.5 -27.5t27.5 -72.5v-172q0 -45 -27.5 -73t-72.5 -28h-271q-10 0 -13 -3t-3 -13v-88q0 -16 16 -16h445q45 0 72.5 -27t27.5 -72v-213q0 -45 -27.5 -71.5t-72.5 -26.5zM223 82 h791q18 0 18 16v213q0 16 -18 17h-445q-45 0 -71.5 26.5t-26.5 71.5v88q0 45 26.5 71.5t71.5 26.5h271q18 0 18 19v172q0 18 -18 18h-271q-45 0 -71.5 26.5t-26.5 72.5v88q0 45 26.5 71.5t71.5 26.5h445q18 0 18 16v213q0 16 -18 17h-791q-18 0 -18 -17v-1237q0 -16 18 -16z " glyph-name="Edieresis" horiz-adv-x="1236" unicode="ë"/><glyph d="M145 1567l-114 196q-20 39 0 70t65 31h193q59 0 82 -58l61 -186q14 -41 -7.5 -70.5t-62.5 -29.5h-135q-51 0 -82 45v2zM272 1782h-131q-29 0 -14 -25l88 -149q6 -6 12 -6h101q23 0 16 22l-47 141q-7 17 -25 17zM123 98v1237q0 45 26.5 72t71.5 27h234q45 0 71.5 -27 t26.5 -72v-1237q0 -45 -26.5 -71.5t-71.5 -26.5h-234q-45 0 -71.5 26.5t-26.5 71.5zM205 1335v-1237q0 -10 3 -13t13 -3h234q10 0 13 3t3 13v1237q0 10 -3 13.5t-13 3.5h-234q-10 0 -13 -3.5t-3 -13.5z" glyph-name="Igrave" horiz-adv-x="675" unicode="Ì"/><glyph d="M145 1567l-114 196q-20 39 0 70t65 31h193q59 0 82 -58l61 -186q14 -41 -7.5 -70.5t-62.5 -29.5h-135q-51 0 -82 45v2zM272 1782h-131q-29 0 -14 -25l88 -149q6 -6 12 -6h101q23 0 16 22l-47 141q-7 17 -25 17zM123 98v1237q0 45 26.5 72t71.5 27h234q45 0 71.5 -27 t26.5 -72v-1237q0 -45 -26.5 -71.5t-71.5 -26.5h-234q-45 0 -71.5 26.5t-26.5 71.5zM205 1335v-1237q0 -10 3 -13t13 -3h234q10 0 13 3t3 13v1237q0 10 -3 13.5t-13 3.5h-234q-10 0 -13 -3.5t-3 -13.5z" glyph-name="Igrave" horiz-adv-x="675" unicode="ì"/><glyph d="M569 1763l-114 -196v-2q-31 -45 -82 -45h-135q-41 0 -62.5 29.5t-7.5 70.5l61 186q23 57 82 58h193q45 0 65 -31t0 -70zM459 1782h-131q-18 0 -25 -17l-47 -141q-6 -23 16 -22h101q6 0 12 6l88 149q15 25 -14 25zM123 98v1237q0 45 26.5 72t71.5 27h234q45 0 71.5 -27 t26.5 -72v-1237q0 -45 -26.5 -71.5t-71.5 -26.5h-234q-45 0 -71.5 26.5t-26.5 71.5zM205 1335v-1237q0 -10 3 -13t13 -3h234q10 0 13 3t3 13v1237q0 10 -3 13.5t-13 3.5h-234q-10 0 -13 -3.5t-3 -13.5z" glyph-name="Iacute" horiz-adv-x="675" unicode="Í"/><glyph d="M569 1763l-114 -196v-2q-31 -45 -82 -45h-135q-41 0 -62.5 29.5t-7.5 70.5l61 186q23 57 82 58h193q45 0 65 -31t0 -70zM459 1782h-131q-18 0 -25 -17l-47 -141q-6 -23 16 -22h101q6 0 12 6l88 149q15 25 -14 25zM123 98v1237q0 45 26.5 72t71.5 27h234q45 0 71.5 -27 t26.5 -72v-1237q0 -45 -26.5 -71.5t-71.5 -26.5h-234q-45 0 -71.5 26.5t-26.5 71.5zM205 1335v-1237q0 -10 3 -13t13 -3h234q10 0 13 3t3 13v1237q0 10 -3 13.5t-13 3.5h-234q-10 0 -13 -3.5t-3 -13.5z" glyph-name="Iacute" horiz-adv-x="675" unicode="í"/><glyph d="M180 1520h-129q-47 0 -65.5 32.5t6.5 73.5l121 201q25 37 75 37h222q51 0 75 -37l121 -201q25 -41 6.5 -73.5t-65.5 -32.5h-129q-45 0 -80 34l-25 29q-14 18 -28 0l-25 -29q-31 -34 -80 -34zM174 1767l-88 -141q-14 -25 14 -24h80q12 0 19 6q12 18 41 49q27 31 60.5 31 t55.5 -29l43 -49q6 -8 19 -8h80q29 0 14 24l-88 141q-10 14 -25 15h-200q-15 -1 -25 -15zM123 98v1237q0 45 26.5 72t71.5 27h234q45 0 71.5 -27t26.5 -72v-1237q0 -45 -26.5 -71.5t-71.5 -26.5h-234q-45 0 -71.5 26.5t-26.5 71.5zM205 1335v-1237q0 -10 3 -13t13 -3h234 q10 0 13 3t3 13v1237q0 10 -3 13.5t-13 3.5h-234q-10 0 -13 -3.5t-3 -13.5z" glyph-name="Icircumflex" horiz-adv-x="675" unicode="Î"/><glyph d="M180 1520h-129q-47 0 -65.5 32.5t6.5 73.5l121 201q25 37 75 37h222q51 0 75 -37l121 -201q25 -41 6.5 -73.5t-65.5 -32.5h-129q-45 0 -80 34l-25 29q-14 18 -28 0l-25 -29q-31 -34 -80 -34zM174 1767l-88 -141q-14 -25 14 -24h80q12 0 19 6q12 18 41 49q27 31 60.5 31 t55.5 -29l43 -49q6 -8 19 -8h80q29 0 14 24l-88 141q-10 14 -25 15h-200q-15 -1 -25 -15zM123 98v1237q0 45 26.5 72t71.5 27h234q45 0 71.5 -27t26.5 -72v-1237q0 -45 -26.5 -71.5t-71.5 -26.5h-234q-45 0 -71.5 26.5t-26.5 71.5zM205 1335v-1237q0 -10 3 -13t13 -3h234 q10 0 13 3t3 13v1237q0 10 -3 13.5t-13 3.5h-234q-10 0 -13 -3.5t-3 -13.5z" glyph-name="Icircumflex" horiz-adv-x="675" unicode="î"/><glyph d="M-82 1692q0 80 56.5 136t134.5 56q106 0 163 -92q12 -20 20.5 -20t20.5 20q55 92 164 92q78 0 134.5 -57.5t56.5 -134.5q0 -80 -56.5 -136.5t-134.5 -56.5q-106 0 -164 92q-12 18 -20 18.5t-21 -18.5q-57 -92 -163 -92q-80 0 -135.5 56.5t-55.5 136.5zM0 1692 q0 -47 31.5 -79t77.5 -32q47 0 78.5 33t31.5 78t-32.5 77.5t-78 32.5t-77 -32.5t-31.5 -77.5zM367 1692q0 -47 31.5 -79t78.5 -32q45 0 77 33t32 78t-33 77.5t-76 32.5q-47 0 -78.5 -32.5t-31.5 -77.5zM123 98v1237q0 45 26.5 72t71.5 27h234q45 0 71.5 -27t26.5 -72v-1237 q0 -45 -26.5 -71.5t-71.5 -26.5h-234q-45 0 -71.5 26.5t-26.5 71.5zM205 1335v-1237q0 -10 3 -13t13 -3h234q10 0 13 3t3 13v1237q0 10 -3 13.5t-13 3.5h-234q-10 0 -13 -3.5t-3 -13.5z" glyph-name="Idieresis" horiz-adv-x="675" unicode="Ï"/><glyph d="M-82 1692q0 80 56.5 136t134.5 56q106 0 163 -92q12 -20 20.5 -20t20.5 20q55 92 164 92q78 0 134.5 -57.5t56.5 -134.5q0 -80 -56.5 -136.5t-134.5 -56.5q-106 0 -164 92q-12 18 -20 18.5t-21 -18.5q-57 -92 -163 -92q-80 0 -135.5 56.5t-55.5 136.5zM0 1692 q0 -47 31.5 -79t77.5 -32q47 0 78.5 33t31.5 78t-32.5 77.5t-78 32.5t-77 -32.5t-31.5 -77.5zM367 1692q0 -47 31.5 -79t78.5 -32q45 0 77 33t32 78t-33 77.5t-76 32.5q-47 0 -78.5 -32.5t-31.5 -77.5zM123 98v1237q0 45 26.5 72t71.5 27h234q45 0 71.5 -27t26.5 -72v-1237 q0 -45 -26.5 -71.5t-71.5 -26.5h-234q-45 0 -71.5 26.5t-26.5 71.5zM205 1335v-1237q0 -10 3 -13t13 -3h234q10 0 13 3t3 13v1237q0 10 -3 13.5t-13 3.5h-234q-10 0 -13 -3.5t-3 -13.5z" glyph-name="Idieresis" horiz-adv-x="675" unicode="ï"/><glyph d="M98 553h-8q-45 0 -71.5 26.5t-26.5 71.5v117q0 45 26.5 71.5t71.5 26.5h8q10 0 13.5 3t3.5 14v452q0 45 27.5 72t72.5 27h395q295 0 463 -191.5t168 -525.5t-168 -525.5t-463 -191.5h-395q-45 0 -72.5 26.5t-27.5 71.5v437q-1 18 -17 18zM90 635h8q45 0 72 -27.5 t27 -72.5v-437q0 -16 18 -16h395q260 0 404.5 167t144.5 468t-144.5 468t-404.5 167h-395q-18 0 -18 -17v-452q0 -45 -27 -72t-72 -27h-8q-16 0 -16 -16v-117q0 -10 3 -13t13 -3zM463 426v109q0 45 27.5 72.5t72.5 27.5h10q18 0 19 16v117q0 16 -19 16h-10q-45 0 -72.5 27 t-27.5 72v125q0 45 27.5 71.5t72.5 26.5h47q137 0 210 -100.5t73 -289t-72.5 -288.5t-210.5 -100h-47q-45 0 -72.5 26.5t-27.5 71.5zM545 535v-109q0 -16 18 -16h47q201 0 201 307t-201 307h-47q-18 0 -18 -16v-125q0 -16 18 -17h10q45 0 73 -26.5t28 -71.5v-117 q0 -45 -28 -71.5t-73 -26.5h-10q-18 0 -18 -18z" glyph-name="Eth" horiz-adv-x="1343" unicode="Ð"/><glyph d="M98 553h-8q-45 0 -71.5 26.5t-26.5 71.5v117q0 45 26.5 71.5t71.5 26.5h8q10 0 13.5 3t3.5 14v452q0 45 27.5 72t72.5 27h395q295 0 463 -191.5t168 -525.5t-168 -525.5t-463 -191.5h-395q-45 0 -72.5 26.5t-27.5 71.5v437q-1 18 -17 18zM90 635h8q45 0 72 -27.5 t27 -72.5v-437q0 -16 18 -16h395q260 0 404.5 167t144.5 468t-144.5 468t-404.5 167h-395q-18 0 -18 -17v-452q0 -45 -27 -72t-72 -27h-8q-16 0 -16 -16v-117q0 -10 3 -13t13 -3zM463 426v109q0 45 27.5 72.5t72.5 27.5h10q18 0 19 16v117q0 16 -19 16h-10q-45 0 -72.5 27 t-27.5 72v125q0 45 27.5 71.5t72.5 26.5h47q137 0 210 -100.5t73 -289t-72.5 -288.5t-210.5 -100h-47q-45 0 -72.5 26.5t-27.5 71.5zM545 535v-109q0 -16 18 -16h47q201 0 201 307t-201 307h-47q-18 0 -18 -16v-125q0 -16 18 -17h10q45 0 73 -26.5t28 -71.5v-117 q0 -45 -28 -71.5t-73 -26.5h-10q-18 0 -18 -18z" glyph-name="Eth" horiz-adv-x="1343" unicode="ð"/><glyph d="M395 1546l-92 60q-63 45 -22 110q106 168 266 168q61 0 151 -57q16 -12 25 -17q61 -41 82 -41q23 0 41 35q39 76 110 31l93 -59q63 -43 22 -109q-106 -168 -266 -168q-61 0 -152 57q-16 12 -24 17q-61 41 -82 41q-18 0 -43 -37q-14 -33 -45 -41t-62 10h-2zM547 1802 q-119 0 -195 -129l82 -53q47 76 113 76q47 0 127 -56l24 -14q70 -45 107 -45q119 0 196 129l-83 51q-45 -74 -113 -73q-47 0 -127 55l-25 14q-69 45 -106 45zM956 1434h232q45 0 71.5 -27t26.5 -72v-1237q0 -45 -26.5 -71.5t-71.5 -26.5h-244q-68 0 -104 66l-287 555v-523 q0 -45 -27.5 -71.5t-72.5 -26.5h-232q-45 0 -71.5 26.5t-26.5 71.5v1237q0 45 26.5 72t71.5 27h244q68 0 104 -66l287 -555v522q0 45 27.5 72t72.5 27zM1204 98v1237q0 10 -3 13.5t-13 3.5h-232q-18 0 -18 -17v-540q0 -76 -54.5 -89.5t-90.5 52.5l-2 2l-295 571 q-10 20 -31 21h-244q-10 0 -13 -3t-3 -14v-1237q0 -10 3 -13t13 -3h232q18 0 18 16v541q0 76 54.5 89t90.5 -52l2 -2l295 -572q10 -20 31 -20h244q10 0 13 3t3 13z" glyph-name="Ntilde" horiz-adv-x="1409" unicode="Ñ"/><glyph d="M395 1546l-92 60q-63 45 -22 110q106 168 266 168q61 0 151 -57q16 -12 25 -17q61 -41 82 -41q23 0 41 35q39 76 110 31l93 -59q63 -43 22 -109q-106 -168 -266 -168q-61 0 -152 57q-16 12 -24 17q-61 41 -82 41q-18 0 -43 -37q-14 -33 -45 -41t-62 10h-2zM547 1802 q-119 0 -195 -129l82 -53q47 76 113 76q47 0 127 -56l24 -14q70 -45 107 -45q119 0 196 129l-83 51q-45 -74 -113 -73q-47 0 -127 55l-25 14q-69 45 -106 45zM956 1434h232q45 0 71.5 -27t26.5 -72v-1237q0 -45 -26.5 -71.5t-71.5 -26.5h-244q-68 0 -104 66l-287 555v-523 q0 -45 -27.5 -71.5t-72.5 -26.5h-232q-45 0 -71.5 26.5t-26.5 71.5v1237q0 45 26.5 72t71.5 27h244q68 0 104 -66l287 -555v522q0 45 27.5 72t72.5 27zM1204 98v1237q0 10 -3 13.5t-13 3.5h-232q-18 0 -18 -17v-540q0 -76 -54.5 -89.5t-90.5 52.5l-2 2l-295 571 q-10 20 -31 21h-244q-10 0 -13 -3t-3 -14v-1237q0 -10 3 -13t13 -3h232q18 0 18 16v541q0 76 54.5 89t90.5 -52l2 -2l295 -572q10 -20 31 -20h244q10 0 13 3t3 13z" glyph-name="Ntilde" horiz-adv-x="1409" unicode="ñ"/><glyph d="M596 1567l-115 196q-20 39 0.5 70t65.5 31h192q59 0 82 -58l62 -186q14 -41 -7.5 -70.5t-62.5 -29.5h-135q-51 0 -82 45v2zM723 1782h-131q-29 0 -14 -25l88 -149q6 -6 12 -6h100q23 0 17 22l-47 141q-7 17 -25 17zM772 -20q-295 0 -482.5 205.5t-187.5 531t187.5 531.5 t482.5 206t482.5 -206t187.5 -531.5t-187.5 -531t-482.5 -205.5zM772 61q262 0 425 182.5t163 473.5t-163 473t-425 182t-425 -182t-163 -473t163 -473.5t425 -182.5zM772.5 309q-149.5 0 -235.5 108.5t-86 299t86 299t235.5 108.5t235.5 -108.5t86 -299t-86 -299 t-235.5 -108.5zM772 391q115 0 177.5 85t62.5 240.5t-62.5 240.5t-177.5 85t-177.5 -85t-62.5 -240.5t62.5 -240.5t177.5 -85z" glyph-name="Ograve" horiz-adv-x="1544" unicode="Ò"/><glyph d="M596 1567l-115 196q-20 39 0.5 70t65.5 31h192q59 0 82 -58l62 -186q14 -41 -7.5 -70.5t-62.5 -29.5h-135q-51 0 -82 45v2zM723 1782h-131q-29 0 -14 -25l88 -149q6 -6 12 -6h100q23 0 17 22l-47 141q-7 17 -25 17zM772 -20q-295 0 -482.5 205.5t-187.5 531t187.5 531.5 t482.5 206t482.5 -206t187.5 -531.5t-187.5 -531t-482.5 -205.5zM772 61q262 0 425 182.5t163 473.5t-163 473t-425 182t-425 -182t-163 -473t163 -473.5t425 -182.5zM772.5 309q-149.5 0 -235.5 108.5t-86 299t86 299t235.5 108.5t235.5 -108.5t86 -299t-86 -299 t-235.5 -108.5zM772 391q115 0 177.5 85t62.5 240.5t-62.5 240.5t-177.5 85t-177.5 -85t-62.5 -240.5t62.5 -240.5t177.5 -85z" glyph-name="Ograve" horiz-adv-x="1544" unicode="ò"/><glyph d="M1034 1763l-114 -196v-2q-31 -45 -82 -45h-136q-41 0 -62.5 29.5t-6.5 70.5l61 186q23 57 82 58h193q45 0 65 -31t0 -70zM924 1782h-131q-18 0 -25 -17l-47 -141q-6 -23 16 -22h101q6 0 12 6l88 149q15 25 -14 25zM772 -20q-295 0 -482.5 205.5t-187.5 531t187.5 531.5 t482.5 206t482.5 -206t187.5 -531.5t-187.5 -531t-482.5 -205.5zM772 61q262 0 425 182.5t163 473.5t-163 473t-425 182t-425 -182t-163 -473t163 -473.5t425 -182.5zM772.5 309q-149.5 0 -235.5 108.5t-86 299t86 299t235.5 108.5t235.5 -108.5t86 -299t-86 -299 t-235.5 -108.5zM772 391q115 0 177.5 85t62.5 240.5t-62.5 240.5t-177.5 85t-177.5 -85t-62.5 -240.5t62.5 -240.5t177.5 -85z" glyph-name="Oacute" horiz-adv-x="1544" unicode="Ó"/><glyph d="M1034 1763l-114 -196v-2q-31 -45 -82 -45h-136q-41 0 -62.5 29.5t-6.5 70.5l61 186q23 57 82 58h193q45 0 65 -31t0 -70zM924 1782h-131q-18 0 -25 -17l-47 -141q-6 -23 16 -22h101q6 0 12 6l88 149q15 25 -14 25zM772 -20q-295 0 -482.5 205.5t-187.5 531t187.5 531.5 t482.5 206t482.5 -206t187.5 -531.5t-187.5 -531t-482.5 -205.5zM772 61q262 0 425 182.5t163 473.5t-163 473t-425 182t-425 -182t-163 -473t163 -473.5t425 -182.5zM772.5 309q-149.5 0 -235.5 108.5t-86 299t86 299t235.5 108.5t235.5 -108.5t86 -299t-86 -299 t-235.5 -108.5zM772 391q115 0 177.5 85t62.5 240.5t-62.5 240.5t-177.5 85t-177.5 -85t-62.5 -240.5t62.5 -240.5t177.5 -85z" glyph-name="Oacute" horiz-adv-x="1544" unicode="ó"/><glyph d="M639 1520h-129q-47 0 -65.5 32.5t6.5 73.5l120 201q25 37 76 37h221q51 0 76 -37l121 -201q25 -41 6.5 -73.5t-65.5 -32.5h-129q-45 0 -80 34l-25 29q-14 18 -29 0l-24 -29q-31 -34 -80 -34zM633 1767l-88 -141q-14 -25 14 -24h80q12 0 18 6q12 18 41 49q27 31 61 31 t56 -29l43 -49q6 -8 19 -8h79q29 0 15 24l-88 141q-10 14 -25 15h-201q-14 -1 -24 -15zM772 -20q-295 0 -482.5 205.5t-187.5 531t187.5 531.5t482.5 206t482.5 -206t187.5 -531.5t-187.5 -531t-482.5 -205.5zM772 61q262 0 425 182.5t163 473.5t-163 473t-425 182 t-425 -182t-163 -473t163 -473.5t425 -182.5zM772.5 309q-149.5 0 -235.5 108.5t-86 299t86 299t235.5 108.5t235.5 -108.5t86 -299t-86 -299t-235.5 -108.5zM772 391q115 0 177.5 85t62.5 240.5t-62.5 240.5t-177.5 85t-177.5 -85t-62.5 -240.5t62.5 -240.5t177.5 -85z" glyph-name="Ocircumflex" horiz-adv-x="1544" unicode="Ô"/><glyph d="M639 1520h-129q-47 0 -65.5 32.5t6.5 73.5l120 201q25 37 76 37h221q51 0 76 -37l121 -201q25 -41 6.5 -73.5t-65.5 -32.5h-129q-45 0 -80 34l-25 29q-14 18 -29 0l-24 -29q-31 -34 -80 -34zM633 1767l-88 -141q-14 -25 14 -24h80q12 0 18 6q12 18 41 49q27 31 61 31 t56 -29l43 -49q6 -8 19 -8h79q29 0 15 24l-88 141q-10 14 -25 15h-201q-14 -1 -24 -15zM772 -20q-295 0 -482.5 205.5t-187.5 531t187.5 531.5t482.5 206t482.5 -206t187.5 -531.5t-187.5 -531t-482.5 -205.5zM772 61q262 0 425 182.5t163 473.5t-163 473t-425 182 t-425 -182t-163 -473t163 -473.5t425 -182.5zM772.5 309q-149.5 0 -235.5 108.5t-86 299t86 299t235.5 108.5t235.5 -108.5t86 -299t-86 -299t-235.5 -108.5zM772 391q115 0 177.5 85t62.5 240.5t-62.5 240.5t-177.5 85t-177.5 -85t-62.5 -240.5t62.5 -240.5t177.5 -85z" glyph-name="Ocircumflex" horiz-adv-x="1544" unicode="ô"/><glyph d="M477 1546l-92 60q-63 45 -23 110q106 168 267 168q61 0 151 -57q16 -12 25 -17q61 -41 82 -41q23 0 41 35q39 76 110 31l92 -59q63 -43 23 -109q-106 -168 -266 -168q-61 0 -152 57q-16 12 -24 17q-61 41 -82 41q-18 0 -43 -37q-14 -33 -45 -41t-62 10h-2zM629 1802 q-119 0 -195 -129l82 -53q47 76 113 76q47 0 127 -56l24 -14q70 -45 107 -45q119 0 196 129l-84 51q-45 -74 -112 -73q-47 0 -127 55l-25 14q-69 45 -106 45zM772 1454q295 0 482.5 -206t187.5 -531.5t-187.5 -531t-482.5 -205.5t-482.5 205.5t-187.5 531t187.5 531.5 t482.5 206zM772 61q262 0 425 182.5t163 473.5t-163 473t-425 182t-425 -182t-163 -473t163 -473.5t425 -182.5zM772.5 1124q149.5 0 235.5 -108.5t86 -299t-86 -299t-235.5 -108.5t-235.5 108.5t-86 299t86 299t235.5 108.5zM772 391q115 0 177.5 85t62.5 240.5 t-62.5 240.5t-177.5 85t-177.5 -85t-62.5 -240.5t62.5 -240.5t177.5 -85z" glyph-name="Otilde" horiz-adv-x="1544" unicode="Õ"/><glyph d="M477 1546l-92 60q-63 45 -23 110q106 168 267 168q61 0 151 -57q16 -12 25 -17q61 -41 82 -41q23 0 41 35q39 76 110 31l92 -59q63 -43 23 -109q-106 -168 -266 -168q-61 0 -152 57q-16 12 -24 17q-61 41 -82 41q-18 0 -43 -37q-14 -33 -45 -41t-62 10h-2zM629 1802 q-119 0 -195 -129l82 -53q47 76 113 76q47 0 127 -56l24 -14q70 -45 107 -45q119 0 196 129l-84 51q-45 -74 -112 -73q-47 0 -127 55l-25 14q-69 45 -106 45zM772 1454q295 0 482.5 -206t187.5 -531.5t-187.5 -531t-482.5 -205.5t-482.5 205.5t-187.5 531t187.5 531.5 t482.5 206zM772 61q262 0 425 182.5t163 473.5t-163 473t-425 182t-425 -182t-163 -473t163 -473.5t425 -182.5zM772.5 1124q149.5 0 235.5 -108.5t86 -299t-86 -299t-235.5 -108.5t-235.5 108.5t-86 299t86 299t235.5 108.5zM772 391q115 0 177.5 85t62.5 240.5 t-62.5 240.5t-177.5 85t-177.5 -85t-62.5 -240.5t62.5 -240.5t177.5 -85z" glyph-name="Otilde" horiz-adv-x="1544" unicode="õ"/><glyph d="M383 1692q0 80 56.5 136t133.5 56q106 0 164 -92q12 -20 20.5 -20t20.5 20q55 92 164 92q78 0 134.5 -57.5t56.5 -134.5q0 -80 -56.5 -136.5t-134.5 -56.5q-106 0 -164 92q-12 18 -20 18.5t-21 -18.5q-57 -92 -164 -92q-80 0 -135 56.5t-55 136.5zM465 1692 q0 -47 31.5 -79t76.5 -32t78 33t33 78t-33 77.5t-78 32.5t-76.5 -32.5t-31.5 -77.5zM831 1692q0 -47 32 -79t79 -32q45 0 77 33t32 78t-33 77.5t-76 32.5q-45 0 -78 -32.5t-33 -77.5zM772 -20q-295 0 -482.5 205.5t-187.5 531t187.5 531.5t482.5 206t482.5 -206 t187.5 -531.5t-187.5 -531t-482.5 -205.5zM772 61q262 0 425 182.5t163 473.5t-163 473t-425 182t-425 -182t-163 -473t163 -473.5t425 -182.5zM772.5 309q-149.5 0 -235.5 108.5t-86 299t86 299t235.5 108.5t235.5 -108.5t86 -299t-86 -299t-235.5 -108.5zM772 391 q115 0 177.5 85t62.5 240.5t-62.5 240.5t-177.5 85t-177.5 -85t-62.5 -240.5t62.5 -240.5t177.5 -85z" glyph-name="Odieresis" horiz-adv-x="1544" unicode="Ö"/><glyph d="M383 1692q0 80 56.5 136t133.5 56q106 0 164 -92q12 -20 20.5 -20t20.5 20q55 92 164 92q78 0 134.5 -57.5t56.5 -134.5q0 -80 -56.5 -136.5t-134.5 -56.5q-106 0 -164 92q-12 18 -20 18.5t-21 -18.5q-57 -92 -164 -92q-80 0 -135 56.5t-55 136.5zM465 1692 q0 -47 31.5 -79t76.5 -32t78 33t33 78t-33 77.5t-78 32.5t-76.5 -32.5t-31.5 -77.5zM831 1692q0 -47 32 -79t79 -32q45 0 77 33t32 78t-33 77.5t-76 32.5q-45 0 -78 -32.5t-33 -77.5zM772 -20q-295 0 -482.5 205.5t-187.5 531t187.5 531.5t482.5 206t482.5 -206 t187.5 -531.5t-187.5 -531t-482.5 -205.5zM772 61q262 0 425 182.5t163 473.5t-163 473t-425 182t-425 -182t-163 -473t163 -473.5t425 -182.5zM772.5 309q-149.5 0 -235.5 108.5t-86 299t86 299t235.5 108.5t235.5 -108.5t86 -299t-86 -299t-235.5 -108.5zM772 391 q115 0 177.5 85t62.5 240.5t-62.5 240.5t-177.5 85t-177.5 -85t-62.5 -240.5t62.5 -240.5t177.5 -85z" glyph-name="Odieresis" horiz-adv-x="1544" unicode="ö"/><glyph d="M115 389v-2q-72 72 0 141v-2l176 179v2q14 12 0 20v2l-176 178v-2q-72 72 0 142v-3l96 97h-2q72 72 141 0h-2l178 -176h2q12 -14 21 0h2l178 176h-2q72 72 141 0h-2l97 -97v3q72 -72 0 -142v2l-177 -178v-2q-14 -12 0 -20v-2l177 -179v2q72 -72 0 -141v2l-97 -96h2 q-72 -72 -141 0h2l-178 176h-2q-12 14 -21 0h-2l-178 -176h2q-72 -72 -141 0h2zM172 449v-3l96 -96h2q8 -12 19 0h2l178 176h-2q33 35 72 35t71 -35h-2l178 -176h2q8 -12 19 0h2l96 96v3q12 8 0 18v2l-176 178v-2q-33 35 -33 73t33 70v-2l176 179v2q12 8 0 18v2l-96 96h-2 q-8 12 -19 0h-2l-178 -176h2q-33 -35 -71.5 -35t-71.5 35h2l-178 176h-2q-8 12 -19 0h-2l-96 -96v-2q-12 -8 0 -18v-2l176 -179v2q33 -35 33 -72.5t-33 -70.5v2l-176 -178v-2q-12 -8 0 -18z" glyph-name="multiply" horiz-adv-x="1077" unicode="×"/><glyph d="M1278 1159q119 -188 119 -442q0 -326 -187.5 -531.5t-482.5 -205.5q-166 0 -311 73q-18 10 -27 0l-4 -6q-41 -47 -102 -47h-138q-61 0 -81.5 43t16.5 94l88 115q14 16 2 35q-113 182 -113 430q0 326 187.5 531.5t482.5 205.5q158 0 303 -70q16 -8 23 -2l2 2q39 49 102 50 h135q63 0 85 -44t-17 -94l-82 -104l-2 -2q-10 -13 2 -31zM727 61q262 0 425 182.5t163 473.5q0 227 -107 397q-47 66 6 129l-2 -2l82 105l6 6h-8h-135q-23 0 -41 -21l2 2q-47 -63 -125 -22q-129 61 -266 61q-262 0 -425 -182t-163 -473q0 -223 101 -387q43 -66 -7 -127 l-88 -115l-6 -6h6h138q25 0 41 20l4 4q47 63 125 21q135 -66 274 -66zM799 1118q51 -12 63 -56t-22 -85l-283 -361q-41 -53 -92 -38.5t-57 79.5q-2 18 -2 60q0 190 86 298.5t235 108.5q39 0 72 -6zM492 666l282 362l8 8q-29 6 -55 6q-115 0 -177.5 -85t-62.5 -240 q0 -37 2 -51v-2zM604 461l289 370q41 53 93 39t58 -77q4 -57 5 -76q0 -190 -86 -299t-236 -109q-43 0 -80 10q-51 12 -64.5 56.5t21.5 85.5zM727 391q115 0 177.5 85t62.5 241q0 27 -4 67v4q0 -2 -2 -2l-3 -4l-288 -372q-6 -12 -2 -13q24 -6 59 -6z" glyph-name="Oslash" horiz-adv-x="1468" unicode="Ø"/><glyph d="M1278 1159q119 -188 119 -442q0 -326 -187.5 -531.5t-482.5 -205.5q-166 0 -311 73q-18 10 -27 0l-4 -6q-41 -47 -102 -47h-138q-61 0 -81.5 43t16.5 94l88 115q14 16 2 35q-113 182 -113 430q0 326 187.5 531.5t482.5 205.5q158 0 303 -70q16 -8 23 -2l2 2q39 49 102 50 h135q63 0 85 -44t-17 -94l-82 -104l-2 -2q-10 -13 2 -31zM727 61q262 0 425 182.5t163 473.5q0 227 -107 397q-47 66 6 129l-2 -2l82 105l6 6h-8h-135q-23 0 -41 -21l2 2q-47 -63 -125 -22q-129 61 -266 61q-262 0 -425 -182t-163 -473q0 -223 101 -387q43 -66 -7 -127 l-88 -115l-6 -6h6h138q25 0 41 20l4 4q47 63 125 21q135 -66 274 -66zM799 1118q51 -12 63 -56t-22 -85l-283 -361q-41 -53 -92 -38.5t-57 79.5q-2 18 -2 60q0 190 86 298.5t235 108.5q39 0 72 -6zM492 666l282 362l8 8q-29 6 -55 6q-115 0 -177.5 -85t-62.5 -240 q0 -37 2 -51v-2zM604 461l289 370q41 53 93 39t58 -77q4 -57 5 -76q0 -190 -86 -299t-236 -109q-43 0 -80 10q-51 12 -64.5 56.5t21.5 85.5zM727 391q115 0 177.5 85t62.5 241q0 27 -4 67v4q0 -2 -2 -2l-3 -4l-288 -372q-6 -12 -2 -13q24 -6 59 -6z" glyph-name="Oslash" horiz-adv-x="1468" unicode="ø"/><glyph d="M535 1567l-115 196q-20 39 0 70t65 31h193q59 0 82 -58l61 -186q14 -41 -7 -70.5t-62 -29.5h-136q-51 0 -81 45v2zM662 1782h-132q-29 0 -14 -25l88 -149q6 -6 12 -6h101q23 0 16 22l-47 141q-6 17 -24 17zM704.5 -20q-311.5 0 -446.5 172t-135 565v620q0 45 26.5 72 t71.5 27h232q45 0 72.5 -27t27.5 -72v-620q0 -195 30.5 -260.5t121 -65.5t121 65.5t30.5 260.5v618q0 45 27.5 72t72.5 27h232q45 0 71.5 -27t26.5 -72v-618q0 -393 -135 -565t-446.5 -172zM704.5 61q274.5 0 387 147.5t112.5 508.5v618q0 10 -3 13.5t-13 3.5h-232 q-18 0 -18 -17v-618q0 -227 -51 -317.5t-182.5 -90.5t-182.5 90t-51 318v620q0 16 -18 17h-232q-10 0 -13 -3t-3 -14v-620q0 -360 112.5 -508t387 -148z" glyph-name="Ugrave" horiz-adv-x="1409" unicode="Ù"/><glyph d="M535 1567l-115 196q-20 39 0 70t65 31h193q59 0 82 -58l61 -186q14 -41 -7 -70.5t-62 -29.5h-136q-51 0 -81 45v2zM662 1782h-132q-29 0 -14 -25l88 -149q6 -6 12 -6h101q23 0 16 22l-47 141q-6 17 -24 17zM704.5 -20q-311.5 0 -446.5 172t-135 565v620q0 45 26.5 72 t71.5 27h232q45 0 72.5 -27t27.5 -72v-620q0 -195 30.5 -260.5t121 -65.5t121 65.5t30.5 260.5v618q0 45 27.5 72t72.5 27h232q45 0 71.5 -27t26.5 -72v-618q0 -393 -135 -565t-446.5 -172zM704.5 61q274.5 0 387 147.5t112.5 508.5v618q0 10 -3 13.5t-13 3.5h-232 q-18 0 -18 -17v-618q0 -227 -51 -317.5t-182.5 -90.5t-182.5 90t-51 318v620q0 16 -18 17h-232q-10 0 -13 -3t-3 -14v-620q0 -360 112.5 -508t387 -148z" glyph-name="Ugrave" horiz-adv-x="1409" unicode="ù"/><glyph d="M952 1763l-114 -196v-2q-31 -45 -82 -45h-135q-41 0 -62.5 29.5t-7.5 70.5l61 186q23 57 82 58h193q45 0 65 -31t0 -70zM842 1782h-131q-18 0 -25 -17l-47 -141q-6 -23 16 -22h101q6 0 12 6l88 149q15 25 -14 25zM704.5 -20q-311.5 0 -446.5 172t-135 565v620 q0 45 26.5 72t71.5 27h232q45 0 72.5 -27t27.5 -72v-620q0 -195 30.5 -260.5t121 -65.5t121 65.5t30.5 260.5v618q0 45 27.5 72t72.5 27h232q45 0 71.5 -27t26.5 -72v-618q0 -393 -135 -565t-446.5 -172zM704.5 61q274.5 0 387 147.5t112.5 508.5v618q0 10 -3 13.5t-13 3.5 h-232q-18 0 -18 -17v-618q0 -227 -51 -317.5t-182.5 -90.5t-182.5 90t-51 318v620q0 16 -18 17h-232q-10 0 -13 -3t-3 -14v-620q0 -360 112.5 -508t387 -148z" glyph-name="Uacute" horiz-adv-x="1409" unicode="Ú"/><glyph d="M952 1763l-114 -196v-2q-31 -45 -82 -45h-135q-41 0 -62.5 29.5t-7.5 70.5l61 186q23 57 82 58h193q45 0 65 -31t0 -70zM842 1782h-131q-18 0 -25 -17l-47 -141q-6 -23 16 -22h101q6 0 12 6l88 149q15 25 -14 25zM704.5 -20q-311.5 0 -446.5 172t-135 565v620 q0 45 26.5 72t71.5 27h232q45 0 72.5 -27t27.5 -72v-620q0 -195 30.5 -260.5t121 -65.5t121 65.5t30.5 260.5v618q0 45 27.5 72t72.5 27h232q45 0 71.5 -27t26.5 -72v-618q0 -393 -135 -565t-446.5 -172zM704.5 61q274.5 0 387 147.5t112.5 508.5v618q0 10 -3 13.5t-13 3.5 h-232q-18 0 -18 -17v-618q0 -227 -51 -317.5t-182.5 -90.5t-182.5 90t-51 318v620q0 16 -18 17h-232q-10 0 -13 -3t-3 -14v-620q0 -360 112.5 -508t387 -148z" glyph-name="Uacute" horiz-adv-x="1409" unicode="ú"/><glyph d="M578 1520h-129q-47 0 -65.5 32.5t5.5 73.5l121 201q25 37 76 37h221q51 0 76 -37l121 -201q25 -41 6 -73.5t-66 -32.5h-129q-45 0 -80 34l-24 29q-14 18 -29 0l-25 -29q-30 -34 -79 -34zM571 1767l-88 -141q-14 -25 15 -24h80q12 0 18 6q12 18 41 49q27 31 60.5 31 t56.5 -29l43 -49q6 -8 18 -8h80q29 0 14 24l-88 141q-10 14 -24 15h-201q-15 -1 -25 -15zM704.5 -20q-311.5 0 -446.5 172t-135 565v620q0 45 26.5 72t71.5 27h232q45 0 72.5 -27t27.5 -72v-620q0 -195 30.5 -260.5t121 -65.5t121 65.5t30.5 260.5v618q0 45 27.5 72t72.5 27 h232q45 0 71.5 -27t26.5 -72v-618q0 -393 -135 -565t-446.5 -172zM704.5 61q274.5 0 387 147.5t112.5 508.5v618q0 10 -3 13.5t-13 3.5h-232q-18 0 -18 -17v-618q0 -227 -51 -317.5t-182.5 -90.5t-182.5 90t-51 318v620q0 16 -18 17h-232q-10 0 -13 -3t-3 -14v-620 q0 -360 112.5 -508t387 -148z" glyph-name="Ucircumflex" horiz-adv-x="1409" unicode="Û"/><glyph d="M578 1520h-129q-47 0 -65.5 32.5t5.5 73.5l121 201q25 37 76 37h221q51 0 76 -37l121 -201q25 -41 6 -73.5t-66 -32.5h-129q-45 0 -80 34l-24 29q-14 18 -29 0l-25 -29q-30 -34 -79 -34zM571 1767l-88 -141q-14 -25 15 -24h80q12 0 18 6q12 18 41 49q27 31 60.5 31 t56.5 -29l43 -49q6 -8 18 -8h80q29 0 14 24l-88 141q-10 14 -24 15h-201q-15 -1 -25 -15zM704.5 -20q-311.5 0 -446.5 172t-135 565v620q0 45 26.5 72t71.5 27h232q45 0 72.5 -27t27.5 -72v-620q0 -195 30.5 -260.5t121 -65.5t121 65.5t30.5 260.5v618q0 45 27.5 72t72.5 27 h232q45 0 71.5 -27t26.5 -72v-618q0 -393 -135 -565t-446.5 -172zM704.5 61q274.5 0 387 147.5t112.5 508.5v618q0 10 -3 13.5t-13 3.5h-232q-18 0 -18 -17v-618q0 -227 -51 -317.5t-182.5 -90.5t-182.5 90t-51 318v620q0 16 -18 17h-232q-10 0 -13 -3t-3 -14v-620 q0 -360 112.5 -508t387 -148z" glyph-name="Ucircumflex" horiz-adv-x="1409" unicode="û"/><glyph d="M322 1692q0 80 56 136t134 56q106 0 164 -92q12 -20 20.5 -20t20.5 20q55 92 164 92q78 0 134 -57.5t56 -134.5q0 -80 -56.5 -136.5t-133.5 -56.5q-106 0 -164 92q-12 18 -20.5 18.5t-20.5 -18.5q-57 -92 -164 -92q-80 0 -135 56.5t-55 136.5zM403 1692q0 -47 32 -79 t77 -32t78 33t33 78t-33 77.5t-78 32.5t-77 -32.5t-32 -77.5zM770 1692q0 -47 32 -79t79 -32q45 0 76.5 33t31.5 78t-32.5 77.5t-75.5 32.5q-45 0 -78 -32.5t-33 -77.5zM704.5 -20q-311.5 0 -446.5 172t-135 565v620q0 45 26.5 72t71.5 27h232q45 0 72.5 -27t27.5 -72v-620 q0 -195 30.5 -260.5t121 -65.5t121 65.5t30.5 260.5v618q0 45 27.5 72t72.5 27h232q45 0 71.5 -27t26.5 -72v-618q0 -393 -135 -565t-446.5 -172zM704.5 61q274.5 0 387 147.5t112.5 508.5v618q0 10 -3 13.5t-13 3.5h-232q-18 0 -18 -17v-618q0 -227 -51 -317.5 t-182.5 -90.5t-182.5 90t-51 318v620q0 16 -18 17h-232q-10 0 -13 -3t-3 -14v-620q0 -360 112.5 -508t387 -148z" glyph-name="Udieresis" horiz-adv-x="1409" unicode="Ü"/><glyph d="M322 1692q0 80 56 136t134 56q106 0 164 -92q12 -20 20.5 -20t20.5 20q55 92 164 92q78 0 134 -57.5t56 -134.5q0 -80 -56.5 -136.5t-133.5 -56.5q-106 0 -164 92q-12 18 -20.5 18.5t-20.5 -18.5q-57 -92 -164 -92q-80 0 -135 56.5t-55 136.5zM403 1692q0 -47 32 -79 t77 -32t78 33t33 78t-33 77.5t-78 32.5t-77 -32.5t-32 -77.5zM770 1692q0 -47 32 -79t79 -32q45 0 76.5 33t31.5 78t-32.5 77.5t-75.5 32.5q-45 0 -78 -32.5t-33 -77.5zM704.5 -20q-311.5 0 -446.5 172t-135 565v620q0 45 26.5 72t71.5 27h232q45 0 72.5 -27t27.5 -72v-620 q0 -195 30.5 -260.5t121 -65.5t121 65.5t30.5 260.5v618q0 45 27.5 72t72.5 27h232q45 0 71.5 -27t26.5 -72v-618q0 -393 -135 -565t-446.5 -172zM704.5 61q274.5 0 387 147.5t112.5 508.5v618q0 10 -3 13.5t-13 3.5h-232q-18 0 -18 -17v-618q0 -227 -51 -317.5 t-182.5 -90.5t-182.5 90t-51 318v620q0 16 -18 17h-232q-10 0 -13 -3t-3 -14v-620q0 -360 112.5 -508t387 -148z" glyph-name="Udieresis" horiz-adv-x="1409" unicode="ü"/><glyph d="M811 1520h-135q-41 0 -62.5 29.5t-7.5 70.5l62 186q23 57 82 58h192q45 0 65.5 -31t0.5 -70l-115 -196v-2q-31 -45 -82 -45zM741 1765l-47 -141q-6 -23 17 -22h100q6 0 12 6l88 149q14 25 -14 25h-131q-19 -1 -25 -17zM1001 1434h242q57 0 81 -41t-5 -90l2 2l-385 -725 q-12 -29 -12 -54v-428q0 -45 -27 -71.5t-72 -26.5h-233q-45 0 -71.5 26.5t-26.5 71.5v428q0 27 -13 54l-385 725l2 -2q-29 49 -5 90t81 41h242q76 0 104 -68l187 -395l2 -2v-4q0 2 1 2t1 2l186 397q28 68 104 68zM1247 1341l2 2q4 6 8 9l-2 2q-4 -2 -12 -2h-242 q-23 0 -30 -19l-187 -399q-27 -59 -76 -58t-75 60l-187 397q-8 18 -30 19h-242q-8 0 -12 2l-2 -2q4 -2 8 -9l2 -2l385 -725q20 -41 20 -90v-428q0 -10 3.5 -13t13.5 -3h233q10 0 13.5 3t3.5 13v428q0 49 20 90z" glyph-name="Yacute" horiz-adv-x="1417" unicode="Ý"/><glyph d="M811 1520h-135q-41 0 -62.5 29.5t-7.5 70.5l62 186q23 57 82 58h192q45 0 65.5 -31t0.5 -70l-115 -196v-2q-31 -45 -82 -45zM741 1765l-47 -141q-6 -23 17 -22h100q6 0 12 6l88 149q14 25 -14 25h-131q-19 -1 -25 -17zM1001 1434h242q57 0 81 -41t-5 -90l2 2l-385 -725 q-12 -29 -12 -54v-428q0 -45 -27 -71.5t-72 -26.5h-233q-45 0 -71.5 26.5t-26.5 71.5v428q0 27 -13 54l-385 725l2 -2q-29 49 -5 90t81 41h242q76 0 104 -68l187 -395l2 -2v-4q0 2 1 2t1 2l186 397q28 68 104 68zM1247 1341l2 2q4 6 8 9l-2 2q-4 -2 -12 -2h-242 q-23 0 -30 -19l-187 -399q-27 -59 -76 -58t-75 60l-187 397q-8 18 -30 19h-242q-8 0 -12 2l-2 -2q4 -2 8 -9l2 -2l385 -725q20 -41 20 -90v-428q0 -10 3.5 -13t13.5 -3h233q10 0 13.5 3t3.5 13v428q0 49 20 90z" glyph-name="Yacute" horiz-adv-x="1417" unicode="ý"/><glyph d="M455 0h-232q-45 0 -72.5 26.5t-27.5 71.5v1237q0 45 27.5 72t72.5 27h232q45 0 71.5 -27t26.5 -72v-96q0 -18 18 -18h50q274 0 422.5 -131.5t148.5 -373t-148.5 -371.5t-422.5 -130h-50q-18 0 -18 -18v-99q0 -45 -26.5 -71.5t-71.5 -26.5zM223 82h232q10 0 13 3t3 13v99 q0 45 27.5 72.5t72.5 27.5h50q240 0 364.5 107.5t124.5 312.5q0 207 -125 314.5t-364 107.5h-50q-45 0 -72.5 27.5t-27.5 72.5v96q0 10 -3 13.5t-13 3.5h-232q-18 0 -18 -17v-1237q0 -16 18 -16zM471 623v190q0 45 27.5 71.5t72.5 26.5h50q106 0 164.5 -50t58.5 -144 t-58.5 -144.5t-164.5 -50.5h-50q-45 0 -72.5 28t-27.5 73zM553 813v-190q0 -18 18 -19h50q141 0 141 112.5t-141 112.5h-50q-18 0 -18 -16z" glyph-name="Thorn" horiz-adv-x="1314" unicode="Þ"/><glyph d="M455 0h-232q-45 0 -72.5 26.5t-27.5 71.5v1237q0 45 27.5 72t72.5 27h232q45 0 71.5 -27t26.5 -72v-96q0 -18 18 -18h50q274 0 422.5 -131.5t148.5 -373t-148.5 -371.5t-422.5 -130h-50q-18 0 -18 -18v-99q0 -45 -26.5 -71.5t-71.5 -26.5zM223 82h232q10 0 13 3t3 13v99 q0 45 27.5 72.5t72.5 27.5h50q240 0 364.5 107.5t124.5 312.5q0 207 -125 314.5t-364 107.5h-50q-45 0 -72.5 27.5t-27.5 72.5v96q0 10 -3 13.5t-13 3.5h-232q-18 0 -18 -17v-1237q0 -16 18 -16zM471 623v190q0 45 27.5 71.5t72.5 26.5h50q106 0 164.5 -50t58.5 -144 t-58.5 -144.5t-164.5 -50.5h-50q-45 0 -72.5 28t-27.5 73zM553 813v-190q0 -18 18 -19h50q141 0 141 112.5t-141 112.5h-50q-18 0 -18 -16z" glyph-name="Thorn" horiz-adv-x="1314" unicode="þ"/><glyph d="M1249 713q221 -139 221 -305q0 -205 -126.5 -316.5t-358.5 -111.5q-287 0 -420 104q-47 33 -47 100v203q0 57 41 78.5t92 -10.5q133 -84 334 -84q23 0 39 11t16 26q0 31 -147 100q-135 68 -211 117q-139 94 -170 184v-705q0 -45 -26.5 -71.5t-71.5 -26.5h-234 q-45 0 -71.5 26.5t-26.5 71.5v990q0 121 64.5 200.5t171 110.5t226.5 39t249 -8.5t220 -35t156 -36.5q74 -20 74 -104v-211q0 -51 -31.5 -74t-85.5 -8q-68 18 -132 4.5t-64 -41.5q0 -25 31.5 -50.5t132.5 -78.5q77 -43 155 -88zM985 61q199 0 301.5 88.5t102.5 258.5 q0 121 -183 235q-55 33 -151 86q-53 29 -82 46.5t-62.5 43t-48 53t-14.5 58.5q0 78 95 111.5t204 2.5l16 -4q-2 2 -2 9v211q0 20 -16 26q-78 25 -184.5 45.5t-251 31.5t-262 -4.5t-200.5 -82t-83 -182.5v-990q0 -16 16 -16h234q10 0 13 3t3 13v820q0 152 76 221t215 43 q35 -4 49 -22.5t5 -41t-42 -41.5q-63 -27 -107 -83t-44 -109q0 -59 30.5 -100t114.5 -97q72 -47 203 -112q109 -53 150.5 -88t41.5 -86q0 -49 -41 -84t-96 -35q-225 0 -379 96l-6 6v-4v-203q0 -25 14 -34q111 -89 371 -89zM514 967q29 80 104 143q-92 -14 -104 -143z" glyph-name="germandbls" horiz-adv-x="1552" unicode="ß"/><glyph d="M1249 713q221 -139 221 -305q0 -205 -126.5 -316.5t-358.5 -111.5q-287 0 -420 104q-47 33 -47 100v203q0 57 41 78.5t92 -10.5q133 -84 334 -84q23 0 39 11t16 26q0 31 -147 100q-135 68 -211 117q-139 94 -170 184v-705q0 -45 -26.5 -71.5t-71.5 -26.5h-234 q-45 0 -71.5 26.5t-26.5 71.5v990q0 121 64.5 200.5t171 110.5t226.5 39t249 -8.5t220 -35t156 -36.5q74 -20 74 -104v-211q0 -51 -31.5 -74t-85.5 -8q-68 18 -132 4.5t-64 -41.5q0 -25 31.5 -50.5t132.5 -78.5q77 -43 155 -88zM985 61q199 0 301.5 88.5t102.5 258.5 q0 121 -183 235q-55 33 -151 86q-53 29 -82 46.5t-62.5 43t-48 53t-14.5 58.5q0 78 95 111.5t204 2.5l16 -4q-2 2 -2 9v211q0 20 -16 26q-78 25 -184.5 45.5t-251 31.5t-262 -4.5t-200.5 -82t-83 -182.5v-990q0 -16 16 -16h234q10 0 13 3t3 13v820q0 152 76 221t215 43 q35 -4 49 -22.5t5 -41t-42 -41.5q-63 -27 -107 -83t-44 -109q0 -59 30.5 -100t114.5 -97q72 -47 203 -112q109 -53 150.5 -88t41.5 -86q0 -49 -41 -84t-96 -35q-225 0 -379 96l-6 6v-4v-203q0 -25 14 -34q111 -89 371 -89zM514 967q29 80 104 143q-92 -14 -104 -143z" glyph-name="germandbls" horiz-adv-x="1552" unicode="ẞ"/><glyph d="M618 936q-84 0 -144 60.5t-60 144.5q0 86 60.5 145.5t144 59.5t144 -60.5t60.5 -144.5t-61.5 -144.5t-143.5 -60.5zM618.5 1016q53.5 0 90 37t36.5 88q0 53 -36.5 90t-90 37t-90 -37t-36.5 -90q0 -51 36.5 -88t90 -37zM82 649v135q0 45 26.5 72t71.5 27h821q45 0 72 -27 t27 -72v-135q0 -45 -26.5 -71.5t-72.5 -26.5h-821q-45 0 -71.5 26.5t-26.5 71.5zM164 784v-135q0 -10 3 -13t13 -3h821q10 0 13.5 3t3.5 13v135q0 10 -3 13.5t-14 3.5h-821q-10 0 -13 -3.5t-3 -13.5zM618 84q-84 0 -144 60.5t-60 144.5q0 86 60.5 145.5t144 59.5t144 -60.5 t60.5 -144.5t-61.5 -144.5t-143.5 -60.5zM618.5 164q53.5 0 90 37t36.5 88q0 53 -36.5 90t-90 37t-90 -37t-36.5 -90q0 -51 36.5 -88t90 -37z" glyph-name="divide" horiz-adv-x="1181" unicode="÷"/><glyph d="M547 1499q-80 0 -135.5 56.5t-55.5 136.5t56.5 136t134.5 56q106 0 164 -92q12 -20 20 -20t21 20q55 92 163 92q78 0 134.5 -57.5t56.5 -134.5q0 -80 -56.5 -136.5t-134.5 -56.5q-106 0 -163 92q-12 18 -20.5 18.5t-20.5 -18.5q-58 -92 -164 -92zM547 1802 q-45 0 -77 -32.5t-32 -77.5q0 -47 32 -79t77 -32q47 0 78.5 33t31.5 78t-32.5 77.5t-77.5 32.5zM915 1802q-47 0 -78.5 -32.5t-31.5 -77.5q0 -47 31.5 -79t78.5 -32q45 0 77 33t32 78t-33 77.5t-76 32.5zM1001 1434h242q57 0 81 -41t-5 -90l2 2l-385 -725q-12 -29 -12 -54 v-428q0 -45 -27 -71.5t-72 -26.5h-233q-45 0 -71.5 26.5t-26.5 71.5v428q0 27 -13 54l-385 725l2 -2q-29 49 -5 90t81 41h242q76 0 104 -68l187 -395l2 -2v-4q0 2 1 2t1 2l186 397q28 68 104 68zM1247 1341l2 2q4 6 8 9l-2 2q-4 -2 -12 -2h-242q-23 0 -30 -19l-187 -399 q-27 -59 -76 -58t-75 60l-187 397q-8 18 -30 19h-242q-8 0 -12 2l-2 -2q4 -2 8 -9l2 -2l385 -725q20 -41 20 -90v-428q0 -10 3.5 -13t13.5 -3h233q10 0 13.5 3t3.5 13v428q0 49 20 90z" glyph-name="ydieresis" horiz-adv-x="1417" unicode="ÿ"/><glyph d="M547 1499q-80 0 -135.5 56.5t-55.5 136.5t56.5 136t134.5 56q106 0 164 -92q12 -20 20 -20t21 20q55 92 163 92q78 0 134.5 -57.5t56.5 -134.5q0 -80 -56.5 -136.5t-134.5 -56.5q-106 0 -163 92q-12 18 -20.5 18.5t-20.5 -18.5q-58 -92 -164 -92zM547 1802 q-45 0 -77 -32.5t-32 -77.5q0 -47 32 -79t77 -32q47 0 78.5 33t31.5 78t-32.5 77.5t-77.5 32.5zM915 1802q-47 0 -78.5 -32.5t-31.5 -77.5q0 -47 31.5 -79t78.5 -32q45 0 77 33t32 78t-33 77.5t-76 32.5zM1001 1434h242q57 0 81 -41t-5 -90l2 2l-385 -725q-12 -29 -12 -54 v-428q0 -45 -27 -71.5t-72 -26.5h-233q-45 0 -71.5 26.5t-26.5 71.5v428q0 27 -13 54l-385 725l2 -2q-29 49 -5 90t81 41h242q76 0 104 -68l187 -395l2 -2v-4q0 2 1 2t1 2l186 397q28 68 104 68zM1247 1341l2 2q4 6 8 9l-2 2q-4 -2 -12 -2h-242q-23 0 -30 -19l-187 -399 q-27 -59 -76 -58t-75 60l-187 397q-8 18 -30 19h-242q-8 0 -12 2l-2 -2q4 -2 8 -9l2 -2l385 -725q20 -41 20 -90v-428q0 -10 3.5 -13t13.5 -3h233q10 0 13.5 3t3.5 13v428q0 49 20 90z" glyph-name="ydieresis" horiz-adv-x="1417" unicode="Ÿ"/><glyph d="M881 1538h-471q-45 0 -72 27.5t-27 72.5v107q0 45 27 72.5t72 27.5h471q45 0 71.5 -27.5t26.5 -72.5v-107q0 -45 -26.5 -72.5t-71.5 -27.5zM393 1745v-107q0 -18 17 -18h471q16 0 16 18v107q0 18 -16 18h-471q-17 0 -17 -18zM901 1366l328 -1251q12 -49 -13.5 -82 t-76.5 -33h-228q-84 0 -102 80l-18 78q-2 20 -23 20h-260q-20 0 -25 -20l-18 -78q-18 -80 -103 -80h-227q-51 0 -76.5 33t-13.5 82l330 1251q23 68 102 68h322q79 0 102 -68zM911 82h228h6q8 0 8 2t-2 6v4l-328 1247q-6 10 -24 11h-322q-18 0 -24 -11l-330 -1247 q-2 -10 -1 -11t13 -1h227q18 0 25 18l16 76q16 84 105 84h260q41 0 68.5 -23.5t35.5 -62.5l15 -74q6 -18 24 -18zM715 897l69 -317q10 -47 -16.5 -80t-77.5 -33h-104q-51 0 -79 34t-13 81l-2 -2l73 319q12 47 44 64.5t64 -1t42 -65.5zM586 549h104q12 0 14.5 2t-2.5 12 l-63 291l-66 -291l-2 -2q-2 -8 0.5 -10t14.5 -2z" glyph-name="Amacron" horiz-adv-x="1273" unicode="Ā"/><glyph d="M881 1538h-471q-45 0 -72 27.5t-27 72.5v107q0 45 27 72.5t72 27.5h471q45 0 71.5 -27.5t26.5 -72.5v-107q0 -45 -26.5 -72.5t-71.5 -27.5zM393 1745v-107q0 -18 17 -18h471q16 0 16 18v107q0 18 -16 18h-471q-17 0 -17 -18zM901 1366l328 -1251q12 -49 -13.5 -82 t-76.5 -33h-228q-84 0 -102 80l-18 78q-2 20 -23 20h-260q-20 0 -25 -20l-18 -78q-18 -80 -103 -80h-227q-51 0 -76.5 33t-13.5 82l330 1251q23 68 102 68h322q79 0 102 -68zM911 82h228h6q8 0 8 2t-2 6v4l-328 1247q-6 10 -24 11h-322q-18 0 -24 -11l-330 -1247 q-2 -10 -1 -11t13 -1h227q18 0 25 18l16 76q16 84 105 84h260q41 0 68.5 -23.5t35.5 -62.5l15 -74q6 -18 24 -18zM715 897l69 -317q10 -47 -16.5 -80t-77.5 -33h-104q-51 0 -79 34t-13 81l-2 -2l73 319q12 47 44 64.5t64 -1t42 -65.5zM586 549h104q12 0 14.5 2t-2.5 12 l-63 291l-66 -291l-2 -2q-2 -8 0.5 -10t14.5 -2z" glyph-name="Amacron" horiz-adv-x="1273" unicode="ā"/><glyph d="M645 1499q-121 0 -213 80t-108 199q-2 37 20.5 61.5t58.5 24.5h91q59 0 79 -64q16 -55 71.5 -55t72.5 55q20 63 80 64h90q37 0 59.5 -24.5t20.5 -61.5q-16 -119 -108.5 -199t-213.5 -80zM494 1782h-88q14 -88 81.5 -144.5t157.5 -56.5t157.5 56.5t82.5 144.5h-88l-2 -2 v-4q-16 -49 -57.5 -81t-92.5 -32t-92 31.5t-57 81.5v2zM901 1366l328 -1251q12 -49 -13.5 -82t-76.5 -33h-228q-84 0 -102 80l-18 78q-2 20 -23 20h-260q-20 0 -25 -20l-18 -78q-18 -80 -103 -80h-227q-51 0 -76.5 33t-13.5 82l330 1251q23 68 102 68h322q79 0 102 -68z M911 82h228h6q8 0 8 2t-2 6v4l-328 1247q-6 10 -24 11h-322q-18 0 -24 -11l-330 -1247q-2 -10 -1 -11t13 -1h227q18 0 25 18l16 76q16 84 105 84h260q41 0 68.5 -23.5t35.5 -62.5l15 -74q6 -18 24 -18zM715 897l69 -317q10 -47 -16.5 -80t-77.5 -33h-104q-51 0 -79 34 t-13 81l-2 -2l73 319q12 47 44 64.5t64 -1t42 -65.5zM586 549h104q12 0 14.5 2t-2.5 12l-63 291l-66 -291l-2 -2q-2 -8 0.5 -10t14.5 -2z" glyph-name="Abreve" horiz-adv-x="1273" unicode="Ă"/><glyph d="M645 1499q-121 0 -213 80t-108 199q-2 37 20.5 61.5t58.5 24.5h91q59 0 79 -64q16 -55 71.5 -55t72.5 55q20 63 80 64h90q37 0 59.5 -24.5t20.5 -61.5q-16 -119 -108.5 -199t-213.5 -80zM494 1782h-88q14 -88 81.5 -144.5t157.5 -56.5t157.5 56.5t82.5 144.5h-88l-2 -2 v-4q-16 -49 -57.5 -81t-92.5 -32t-92 31.5t-57 81.5v2zM901 1366l328 -1251q12 -49 -13.5 -82t-76.5 -33h-228q-84 0 -102 80l-18 78q-2 20 -23 20h-260q-20 0 -25 -20l-18 -78q-18 -80 -103 -80h-227q-51 0 -76.5 33t-13.5 82l330 1251q23 68 102 68h322q79 0 102 -68z M911 82h228h6q8 0 8 2t-2 6v4l-328 1247q-6 10 -24 11h-322q-18 0 -24 -11l-330 -1247q-2 -10 -1 -11t13 -1h227q18 0 25 18l16 76q16 84 105 84h260q41 0 68.5 -23.5t35.5 -62.5l15 -74q6 -18 24 -18zM715 897l69 -317q10 -47 -16.5 -80t-77.5 -33h-104q-51 0 -79 34 t-13 81l-2 -2l73 319q12 47 44 64.5t64 -1t42 -65.5zM586 549h104q12 0 14.5 2t-2.5 12l-63 291l-66 -291l-2 -2q-2 -8 0.5 -10t14.5 -2z" glyph-name="Abreve" horiz-adv-x="1273" unicode="ă"/><glyph d="M1229 102l2 -2q14 -82 -49 -106l-21 -6q-14 -4 -18 -6q-39 -29 -63.5 -69t-14.5 -52q10 -14 29 -13q88 6 88 -71v-49q0 -51 -31 -78q-88 -70 -223 -39t-160 127q-43 156 84 266q-35 25 -43 66l-2 2l-16 75q-2 18 -23 19h-260q-16 0 -23 -12l-20 -84q-20 -82 -103 -82 h-227q-51 0 -77.5 33.5t-12.5 80.5l330 1252q23 70 102 69h322q80 0 102 -69zM1151 72q0 10 -2 12l2 -2l-328 1247q-6 12 -24 12h-322q-18 0 -24 -12l-330 -1247q-2 -8 -1 -10t13 -2h227q18 0 25 20l21 86q20 72 100 72h260q88 0 104 -84l17 -76l-2 2q6 -20 24 -20h11 q43 0 54 -37t-28 -62q-135 -84 -102 -213q14 -51 107.5 -68.5t144.5 21.5q2 2 2 17v39q-68 -6 -105 49q-31 47 0 114.5t99 116.5q16 12 47 21q2 0 5 1t5 3zM715 885l69 -316q10 -49 -17.5 -81.5t-76.5 -32.5h-104q-51 0 -79 34.5t-13 81.5l-2 -2l73 318q12 49 44 66.5t64 -1 t42 -67.5zM586 537h104q8 0 11.5 1t3.5 5t-3 10l-63 289l-66 -289l-2 -2q-2 -8 1.5 -11t13.5 -3z" glyph-name="Aogonek" horiz-adv-x="1273" unicode="Ą"/><glyph d="M1229 102l2 -2q14 -82 -49 -106l-21 -6q-14 -4 -18 -6q-39 -29 -63.5 -69t-14.5 -52q10 -14 29 -13q88 6 88 -71v-49q0 -51 -31 -78q-88 -70 -223 -39t-160 127q-43 156 84 266q-35 25 -43 66l-2 2l-16 75q-2 18 -23 19h-260q-16 0 -23 -12l-20 -84q-20 -82 -103 -82 h-227q-51 0 -77.5 33.5t-12.5 80.5l330 1252q23 70 102 69h322q80 0 102 -69zM1151 72q0 10 -2 12l2 -2l-328 1247q-6 12 -24 12h-322q-18 0 -24 -12l-330 -1247q-2 -8 -1 -10t13 -2h227q18 0 25 20l21 86q20 72 100 72h260q88 0 104 -84l17 -76l-2 2q6 -20 24 -20h11 q43 0 54 -37t-28 -62q-135 -84 -102 -213q14 -51 107.5 -68.5t144.5 21.5q2 2 2 17v39q-68 -6 -105 49q-31 47 0 114.5t99 116.5q16 12 47 21q2 0 5 1t5 3zM715 885l69 -316q10 -49 -17.5 -81.5t-76.5 -32.5h-104q-51 0 -79 34.5t-13 81.5l-2 -2l73 318q12 49 44 66.5t64 -1 t42 -67.5zM586 537h104q8 0 11.5 1t3.5 5t-3 10l-63 289l-66 -289l-2 -2q-2 -8 1.5 -11t13.5 -3z" glyph-name="Aogonek" horiz-adv-x="1273" unicode="ą"/><glyph d="M745 1520h-135q-41 0 -62.5 29.5t-6.5 70.5l61 186q23 57 82 58h193q45 0 65.5 -31t-0.5 -70l-115 -196v-2q-31 -45 -82 -45zM676 1765l-47 -141q-6 -23 16 -22h100q6 0 13 6l88 149q14 25 -15 25h-131q-18 -1 -24 -17zM791 1042q-131 0 -205 -87t-74 -238.5t73.5 -238.5 t205.5 -87q152 0 229 76q47 45 89 27.5t42 -80.5v-213q0 -57 -33 -97q-115 -125 -366 -124q-297 0 -483.5 205.5t-186.5 531t186.5 531.5t483.5 206q252 0 366 -125q33 -39 33 -96v-213q0 -63 -42 -80.5t-89 27.5q-77 75 -229 75zM430 716.5q0 186.5 98.5 297t262.5 110.5 q172 0 278 -88v197q0 29 -12 43q-92 96 -305 96q-262 0 -425 -182t-163 -473t162.5 -473.5t425.5 -182.5q213 0 305 97q12 14 12 43v196q-106 -88 -278 -88q-164 0 -262.5 110.5t-98.5 297z" glyph-name="Cacute" horiz-adv-x="1253" unicode="Ć"/><glyph d="M745 1520h-135q-41 0 -62.5 29.5t-6.5 70.5l61 186q23 57 82 58h193q45 0 65.5 -31t-0.5 -70l-115 -196v-2q-31 -45 -82 -45zM676 1765l-47 -141q-6 -23 16 -22h100q6 0 13 6l88 149q14 25 -15 25h-131q-18 -1 -24 -17zM791 1042q-131 0 -205 -87t-74 -238.5t73.5 -238.5 t205.5 -87q152 0 229 76q47 45 89 27.5t42 -80.5v-213q0 -57 -33 -97q-115 -125 -366 -124q-297 0 -483.5 205.5t-186.5 531t186.5 531.5t483.5 206q252 0 366 -125q33 -39 33 -96v-213q0 -63 -42 -80.5t-89 27.5q-77 75 -229 75zM430 716.5q0 186.5 98.5 297t262.5 110.5 q172 0 278 -88v197q0 29 -12 43q-92 96 -305 96q-262 0 -425 -182t-163 -473t162.5 -473.5t425.5 -182.5q213 0 305 97q12 14 12 43v196q-106 -88 -278 -88q-164 0 -262.5 110.5t-98.5 297z" glyph-name="Cacute" horiz-adv-x="1253" unicode="ć"/><glyph d="M706.5 1499q-79.5 0 -136 56.5t-56.5 136.5t56.5 136t136.5 56q78 0 135 -57.5t57 -134.5q0 -80 -56.5 -136.5t-136 -56.5zM707 1802q-47 0 -79 -32.5t-32 -77.5q0 -47 31.5 -79t79 -32t79 33t31.5 78t-32.5 77.5t-77.5 32.5zM791 1042q-131 0 -205 -87t-74 -238.5 t73.5 -238.5t205.5 -87q152 0 229 76q47 45 89 27.5t42 -80.5v-213q0 -57 -33 -97q-115 -125 -366 -124q-297 0 -483.5 205.5t-186.5 531t186.5 531.5t483.5 206q252 0 366 -125q33 -39 33 -96v-213q0 -63 -42 -80.5t-89 27.5q-77 75 -229 75zM430 716.5q0 186.5 98.5 297 t262.5 110.5q172 0 278 -88v197q0 29 -12 43q-92 96 -305 96q-262 0 -425 -182t-163 -473t162.5 -473.5t425.5 -182.5q213 0 305 97q12 14 12 43v196q-106 -88 -278 -88q-164 0 -262.5 110.5t-98.5 297z" glyph-name="Cdotaccent" horiz-adv-x="1253" unicode="Ċ"/><glyph d="M706.5 1499q-79.5 0 -136 56.5t-56.5 136.5t56.5 136t136.5 56q78 0 135 -57.5t57 -134.5q0 -80 -56.5 -136.5t-136 -56.5zM707 1802q-47 0 -79 -32.5t-32 -77.5q0 -47 31.5 -79t79 -32t79 33t31.5 78t-32.5 77.5t-77.5 32.5zM791 1042q-131 0 -205 -87t-74 -238.5 t73.5 -238.5t205.5 -87q152 0 229 76q47 45 89 27.5t42 -80.5v-213q0 -57 -33 -97q-115 -125 -366 -124q-297 0 -483.5 205.5t-186.5 531t186.5 531.5t483.5 206q252 0 366 -125q33 -39 33 -96v-213q0 -63 -42 -80.5t-89 27.5q-77 75 -229 75zM430 716.5q0 186.5 98.5 297 t262.5 110.5q172 0 278 -88v197q0 29 -12 43q-92 96 -305 96q-262 0 -425 -182t-163 -473t162.5 -473.5t425.5 -182.5q213 0 305 97q12 14 12 43v196q-106 -88 -278 -88q-164 0 -262.5 110.5t-98.5 297z" glyph-name="Cdotaccent" horiz-adv-x="1253" unicode="ċ"/><glyph d="M500 1556l-121 201q-25 41 -6.5 74t65.5 33h129q49 0 80 -35l25 -29q14 -18 28 0l25 29q35 35 80 35h129q47 0 65.5 -33t-6.5 -74l-121 -201q-25 -37 -75 -36h-222q-50 -1 -75 36zM567 1782h-80q-29 0 -14 -25l88 -141q10 -14 25 -14h200q14 0 25 14l88 141q14 25 -14 25 h-80q-12 0 -19 -8l-43 -50q-23 -29 -56.5 -28.5t-59.5 30.5q-29 31 -41 50q-7 6 -19 6zM791 1042q-131 0 -205 -87t-74 -238.5t73.5 -238.5t205.5 -87q152 0 229 76q47 45 89 27.5t42 -80.5v-213q0 -57 -33 -97q-115 -125 -366 -124q-297 0 -483.5 205.5t-186.5 531 t186.5 531.5t483.5 206q252 0 366 -125q33 -39 33 -96v-213q0 -63 -42 -80.5t-89 27.5q-77 75 -229 75zM430 716.5q0 186.5 98.5 297t262.5 110.5q172 0 278 -88v197q0 29 -12 43q-92 96 -305 96q-262 0 -425 -182t-163 -473t162.5 -473.5t425.5 -182.5q213 0 305 97 q12 14 12 43v196q-106 -88 -278 -88q-164 0 -262.5 110.5t-98.5 297z" glyph-name="Ccaron" horiz-adv-x="1253" unicode="Č"/><glyph d="M500 1556l-121 201q-25 41 -6.5 74t65.5 33h129q49 0 80 -35l25 -29q14 -18 28 0l25 29q35 35 80 35h129q47 0 65.5 -33t-6.5 -74l-121 -201q-25 -37 -75 -36h-222q-50 -1 -75 36zM567 1782h-80q-29 0 -14 -25l88 -141q10 -14 25 -14h200q14 0 25 14l88 141q14 25 -14 25 h-80q-12 0 -19 -8l-43 -50q-23 -29 -56.5 -28.5t-59.5 30.5q-29 31 -41 50q-7 6 -19 6zM791 1042q-131 0 -205 -87t-74 -238.5t73.5 -238.5t205.5 -87q152 0 229 76q47 45 89 27.5t42 -80.5v-213q0 -57 -33 -97q-115 -125 -366 -124q-297 0 -483.5 205.5t-186.5 531 t186.5 531.5t483.5 206q252 0 366 -125q33 -39 33 -96v-213q0 -63 -42 -80.5t-89 27.5q-77 75 -229 75zM430 716.5q0 186.5 98.5 297t262.5 110.5q172 0 278 -88v197q0 29 -12 43q-92 96 -305 96q-262 0 -425 -182t-163 -473t162.5 -473.5t425.5 -182.5q213 0 305 97 q12 14 12 43v196q-106 -88 -278 -88q-164 0 -262.5 110.5t-98.5 297z" glyph-name="Ccaron" horiz-adv-x="1253" unicode="č"/><glyph d="M367 1864h129q49 0 79 -35l25 -29q14 -18 29 0l24 29q35 35 80 35h129q47 0 65.5 -33t-5.5 -74l-121 -201q-25 -37 -76 -36h-221q-51 0 -76 36l-121 201q-25 41 -6 74t66 33zM401 1757l88 -141q10 -14 25 -14h201q14 0 24 14l88 141q14 25 -14 25h-80q-12 0 -18 -8 l-43 -50q-23 -29 -56.5 -28.5t-60.5 30.5q-29 31 -41 50q-6 6 -18 6h-80q-29 0 -15 -25zM618 0h-395q-45 0 -72.5 26.5t-27.5 71.5v1237q0 45 27.5 72t72.5 27h395q295 0 463 -191.5t168 -525.5t-168 -525.5t-463 -191.5zM223 82h395q260 0 404.5 167t144.5 468t-144 468 t-405 167h-395q-18 0 -18 -17v-1237q0 -16 18 -16zM471 426v582q0 45 26.5 71.5t71.5 26.5h49q137 0 210 -100.5t73 -289t-72.5 -288.5t-210.5 -100h-49q-45 0 -71.5 26.5t-26.5 71.5zM553 1008v-582q0 -16 16 -16h49q201 0 201 307t-201 307h-49q-16 0 -16 -16z" glyph-name="Dcaron" horiz-adv-x="1351" unicode="Ď"/><glyph d="M367 1864h129q49 0 79 -35l25 -29q14 -18 29 0l24 29q35 35 80 35h129q47 0 65.5 -33t-5.5 -74l-121 -201q-25 -37 -76 -36h-221q-51 0 -76 36l-121 201q-25 41 -6 74t66 33zM401 1757l88 -141q10 -14 25 -14h201q14 0 24 14l88 141q14 25 -14 25h-80q-12 0 -18 -8 l-43 -50q-23 -29 -56.5 -28.5t-60.5 30.5q-29 31 -41 50q-6 6 -18 6h-80q-29 0 -15 -25zM618 0h-395q-45 0 -72.5 26.5t-27.5 71.5v1237q0 45 27.5 72t72.5 27h395q295 0 463 -191.5t168 -525.5t-168 -525.5t-463 -191.5zM223 82h395q260 0 404.5 167t144.5 468t-144 468 t-405 167h-395q-18 0 -18 -17v-1237q0 -16 18 -16zM471 426v582q0 45 26.5 71.5t71.5 26.5h49q137 0 210 -100.5t73 -289t-72.5 -288.5t-210.5 -100h-49q-45 0 -71.5 26.5t-26.5 71.5zM553 1008v-582q0 -16 16 -16h49q201 0 201 307t-201 307h-49q-16 0 -16 -16z" glyph-name="Dcaron" horiz-adv-x="1351" unicode="ď"/><glyph d="M98 553h-8q-45 0 -71.5 26.5t-26.5 71.5v117q0 45 26.5 71.5t71.5 26.5h8q10 0 13.5 3t3.5 14v452q0 45 27.5 72t72.5 27h395q295 0 463 -191.5t168 -525.5t-168 -525.5t-463 -191.5h-395q-45 0 -72.5 26.5t-27.5 71.5v437q-1 18 -17 18zM90 635h8q45 0 72 -27.5 t27 -72.5v-437q0 -16 18 -16h395q260 0 404.5 167t144.5 468t-144.5 468t-404.5 167h-395q-18 0 -18 -17v-452q0 -45 -27 -72t-72 -27h-8q-16 0 -16 -16v-117q0 -10 3 -13t13 -3zM463 426v109q0 45 27.5 72.5t72.5 27.5h10q18 0 19 16v117q0 16 -19 16h-10q-45 0 -72.5 27 t-27.5 72v125q0 45 27.5 71.5t72.5 26.5h47q137 0 210 -100.5t73 -289t-72.5 -288.5t-210.5 -100h-47q-45 0 -72.5 26.5t-27.5 71.5zM545 535v-109q0 -16 18 -16h47q201 0 201 307t-201 307h-47q-18 0 -18 -16v-125q0 -16 18 -17h10q45 0 73 -26.5t28 -71.5v-117 q0 -45 -28 -71.5t-73 -26.5h-10q-18 0 -18 -18z" glyph-name="Dcroat" horiz-adv-x="1343" unicode="Đ"/><glyph d="M98 553h-8q-45 0 -71.5 26.5t-26.5 71.5v117q0 45 26.5 71.5t71.5 26.5h8q10 0 13.5 3t3.5 14v452q0 45 27.5 72t72.5 27h395q295 0 463 -191.5t168 -525.5t-168 -525.5t-463 -191.5h-395q-45 0 -72.5 26.5t-27.5 71.5v437q-1 18 -17 18zM90 635h8q45 0 72 -27.5 t27 -72.5v-437q0 -16 18 -16h395q260 0 404.5 167t144.5 468t-144.5 468t-404.5 167h-395q-18 0 -18 -17v-452q0 -45 -27 -72t-72 -27h-8q-16 0 -16 -16v-117q0 -10 3 -13t13 -3zM463 426v109q0 45 27.5 72.5t72.5 27.5h10q18 0 19 16v117q0 16 -19 16h-10q-45 0 -72.5 27 t-27.5 72v125q0 45 27.5 71.5t72.5 26.5h47q137 0 210 -100.5t73 -289t-72.5 -288.5t-210.5 -100h-47q-45 0 -72.5 26.5t-27.5 71.5zM545 535v-109q0 -16 18 -16h47q201 0 201 307t-201 307h-47q-18 0 -18 -16v-125q0 -16 18 -17h10q45 0 73 -26.5t28 -71.5v-117 q0 -45 -28 -71.5t-73 -26.5h-10q-18 0 -18 -18z" glyph-name="Dcroat" horiz-adv-x="1343" unicode="đ"/><glyph d="M250 1638v107q0 45 26.5 72.5t71.5 27.5h471q45 0 72 -27.5t27 -72.5v-107q0 -45 -27 -72.5t-72 -27.5h-471q-45 0 -71.5 27.5t-26.5 72.5zM332 1745v-107q0 -18 16 -18h471q16 0 17 18v107q0 18 -17 18h-471q-16 0 -16 -18zM1014 0h-791q-45 0 -72.5 26.5t-27.5 71.5 v1237q0 45 27.5 72t72.5 27h791q45 0 72.5 -27t27.5 -72v-213q0 -45 -27.5 -71.5t-72.5 -26.5h-445q-16 0 -16 -16v-88q0 -10 3 -13.5t13 -3.5h271q45 0 72.5 -27.5t27.5 -72.5v-172q0 -45 -27.5 -73t-72.5 -28h-271q-10 0 -13 -3t-3 -13v-88q0 -16 16 -16h445 q45 0 72.5 -27t27.5 -72v-213q0 -45 -27.5 -71.5t-72.5 -26.5zM223 82h791q18 0 18 16v213q0 16 -18 17h-445q-45 0 -71.5 26.5t-26.5 71.5v88q0 45 26.5 71.5t71.5 26.5h271q18 0 18 19v172q0 18 -18 18h-271q-45 0 -71.5 26.5t-26.5 72.5v88q0 45 26.5 71.5t71.5 26.5h445 q18 0 18 16v213q0 16 -18 17h-791q-18 0 -18 -17v-1237q0 -16 18 -16z" glyph-name="Emacron" horiz-adv-x="1236" unicode="Ē"/><glyph d="M250 1638v107q0 45 26.5 72.5t71.5 27.5h471q45 0 72 -27.5t27 -72.5v-107q0 -45 -27 -72.5t-72 -27.5h-471q-45 0 -71.5 27.5t-26.5 72.5zM332 1745v-107q0 -18 16 -18h471q16 0 17 18v107q0 18 -17 18h-471q-16 0 -16 -18zM1014 0h-791q-45 0 -72.5 26.5t-27.5 71.5 v1237q0 45 27.5 72t72.5 27h791q45 0 72.5 -27t27.5 -72v-213q0 -45 -27.5 -71.5t-72.5 -26.5h-445q-16 0 -16 -16v-88q0 -10 3 -13.5t13 -3.5h271q45 0 72.5 -27.5t27.5 -72.5v-172q0 -45 -27.5 -73t-72.5 -28h-271q-10 0 -13 -3t-3 -13v-88q0 -16 16 -16h445 q45 0 72.5 -27t27.5 -72v-213q0 -45 -27.5 -71.5t-72.5 -26.5zM223 82h791q18 0 18 16v213q0 16 -18 17h-445q-45 0 -71.5 26.5t-26.5 71.5v88q0 45 26.5 71.5t71.5 26.5h271q18 0 18 19v172q0 18 -18 18h-271q-45 0 -71.5 26.5t-26.5 72.5v88q0 45 26.5 71.5t71.5 26.5h445 q18 0 18 16v213q0 16 -18 17h-791q-18 0 -18 -17v-1237q0 -16 18 -16z" glyph-name="Emacron" horiz-adv-x="1236" unicode="ē"/><glyph d="M584 1499q-80 0 -136.5 56.5t-56.5 136.5t56.5 136t136.5 56q78 0 135 -57.5t57 -134.5q0 -80 -56 -136.5t-136 -56.5zM584 1581q47 0 78.5 33t31.5 78t-32.5 77.5t-77.5 32.5q-47 0 -79 -32.5t-32 -77.5q0 -47 32 -79t79 -32zM1014 0h-791q-45 0 -72.5 26.5t-27.5 71.5 v1237q0 45 27.5 72t72.5 27h791q45 0 72.5 -27t27.5 -72v-213q0 -45 -27.5 -71.5t-72.5 -26.5h-445q-16 0 -16 -16v-88q0 -10 3 -13.5t13 -3.5h271q45 0 72.5 -27.5t27.5 -72.5v-172q0 -45 -27.5 -73t-72.5 -28h-271q-10 0 -13 -3t-3 -13v-88q0 -16 16 -16h445 q45 0 72.5 -27t27.5 -72v-213q0 -45 -27.5 -71.5t-72.5 -26.5zM223 82h791q18 0 18 16v213q0 16 -18 17h-445q-45 0 -71.5 26.5t-26.5 71.5v88q0 45 26.5 71.5t71.5 26.5h271q18 0 18 19v172q0 18 -18 18h-271q-45 0 -71.5 26.5t-26.5 72.5v88q0 45 26.5 71.5t71.5 26.5h445 q18 0 18 16v213q0 16 -18 17h-791q-18 0 -18 -17v-1237q0 -16 18 -16z" glyph-name="Edotaccent" horiz-adv-x="1236" unicode="Ė"/><glyph d="M584 1499q-80 0 -136.5 56.5t-56.5 136.5t56.5 136t136.5 56q78 0 135 -57.5t57 -134.5q0 -80 -56 -136.5t-136 -56.5zM584 1581q47 0 78.5 33t31.5 78t-32.5 77.5t-77.5 32.5q-47 0 -79 -32.5t-32 -77.5q0 -47 32 -79t79 -32zM1014 0h-791q-45 0 -72.5 26.5t-27.5 71.5 v1237q0 45 27.5 72t72.5 27h791q45 0 72.5 -27t27.5 -72v-213q0 -45 -27.5 -71.5t-72.5 -26.5h-445q-16 0 -16 -16v-88q0 -10 3 -13.5t13 -3.5h271q45 0 72.5 -27.5t27.5 -72.5v-172q0 -45 -27.5 -73t-72.5 -28h-271q-10 0 -13 -3t-3 -13v-88q0 -16 16 -16h445 q45 0 72.5 -27t27.5 -72v-213q0 -45 -27.5 -71.5t-72.5 -26.5zM223 82h791q18 0 18 16v213q0 16 -18 17h-445q-45 0 -71.5 26.5t-26.5 71.5v88q0 45 26.5 71.5t71.5 26.5h271q18 0 18 19v172q0 18 -18 18h-271q-45 0 -71.5 26.5t-26.5 72.5v88q0 45 26.5 71.5t71.5 26.5h445 q18 0 18 16v213q0 16 -18 17h-791q-18 0 -18 -17v-1237q0 -16 18 -16z" glyph-name="Edotaccent" horiz-adv-x="1236" unicode="ė"/><glyph d="M1014 1012h-445q-10 0 -13 -3t-3 -14v-88q0 -16 16 -16h271q45 0 72.5 -26.5t27.5 -71.5v-175q0 -45 -27.5 -71.5t-72.5 -26.5h-271q-16 0 -16 -18v-86q0 -10 3 -13.5t13 -3.5h445q45 0 72.5 -27.5t27.5 -72.5v-213q0 -82 -80 -96q-2 0 -6 -2h-4q-43 -29 -69.5 -71 t-16.5 -56q12 -16 33 -13q84 6 84 -71v-49q0 -51 -31 -78q-88 -70 -223 -39t-160 127q-41 141 68 250h-486q-45 0 -72.5 26.5t-27.5 71.5v1237q0 45 27.5 72.5t72.5 27.5h791q45 0 72.5 -27.5t27.5 -72.5v-213q0 -45 -27.5 -71.5t-72.5 -26.5zM840 809h-271 q-45 0 -71.5 26.5t-26.5 71.5v88q0 45 26.5 72t71.5 27h445q18 0 18 16v213q0 18 -18 18h-791q-18 0 -18 -18v-1237q0 -16 18 -16h572q43 0 54 -37t-28 -62q-135 -84 -102 -213q14 -51 107.5 -68.5t144.5 21.5q2 2 2 17v39q-70 -6 -105 49q-31 51 4 121.5t111 119.5 q8 6 39 15q10 0 10 14v213q0 18 -18 18h-445q-45 0 -71.5 27t-26.5 72v86q0 45 26.5 72.5t71.5 27.5h271q18 0 18 16v175q0 16 -18 16z" glyph-name="Eogonek" horiz-adv-x="1236" unicode="Ę"/><glyph d="M1014 1012h-445q-10 0 -13 -3t-3 -14v-88q0 -16 16 -16h271q45 0 72.5 -26.5t27.5 -71.5v-175q0 -45 -27.5 -71.5t-72.5 -26.5h-271q-16 0 -16 -18v-86q0 -10 3 -13.5t13 -3.5h445q45 0 72.5 -27.5t27.5 -72.5v-213q0 -82 -80 -96q-2 0 -6 -2h-4q-43 -29 -69.5 -71 t-16.5 -56q12 -16 33 -13q84 6 84 -71v-49q0 -51 -31 -78q-88 -70 -223 -39t-160 127q-41 141 68 250h-486q-45 0 -72.5 26.5t-27.5 71.5v1237q0 45 27.5 72.5t72.5 27.5h791q45 0 72.5 -27.5t27.5 -72.5v-213q0 -45 -27.5 -71.5t-72.5 -26.5zM840 809h-271 q-45 0 -71.5 26.5t-26.5 71.5v88q0 45 26.5 72t71.5 27h445q18 0 18 16v213q0 18 -18 18h-791q-18 0 -18 -18v-1237q0 -16 18 -16h572q43 0 54 -37t-28 -62q-135 -84 -102 -213q14 -51 107.5 -68.5t144.5 21.5q2 2 2 17v39q-70 -6 -105 49q-31 51 4 121.5t111 119.5 q8 6 39 15q10 0 10 14v213q0 18 -18 18h-445q-45 0 -71.5 27t-26.5 72v86q0 45 26.5 72.5t71.5 27.5h271q18 0 18 16v175q0 16 -18 16z" glyph-name="Eogonek" horiz-adv-x="1236" unicode="ę"/><glyph d="M356 1864h129q49 0 80 -35l25 -29q14 -18 28 0l25 29q35 35 80 35h129q47 0 65.5 -33t-6.5 -74l-120 -201q-25 -37 -76 -36h-221q-51 0 -76 36l-121 201q-25 41 -6.5 74t65.5 33zM391 1757l88 -141q10 -14 25 -14h201q14 0 24 14l88 141q14 25 -14 25h-80q-12 0 -18 -8 l-43 -50q-23 -29 -57 -28.5t-60 30.5q-29 31 -41 50q-6 6 -19 6h-79q-29 0 -15 -25zM1014 0h-791q-45 0 -72.5 26.5t-27.5 71.5v1237q0 45 27.5 72t72.5 27h791q45 0 72.5 -27t27.5 -72v-213q0 -45 -27.5 -71.5t-72.5 -26.5h-445q-16 0 -16 -16v-88q0 -10 3 -13.5t13 -3.5 h271q45 0 72.5 -27.5t27.5 -72.5v-172q0 -45 -27.5 -73t-72.5 -28h-271q-10 0 -13 -3t-3 -13v-88q0 -16 16 -16h445q45 0 72.5 -27t27.5 -72v-213q0 -45 -27.5 -71.5t-72.5 -26.5zM223 82h791q18 0 18 16v213q0 16 -18 17h-445q-45 0 -71.5 26.5t-26.5 71.5v88 q0 45 26.5 71.5t71.5 26.5h271q18 0 18 19v172q0 18 -18 18h-271q-45 0 -71.5 26.5t-26.5 72.5v88q0 45 26.5 71.5t71.5 26.5h445q18 0 18 16v213q0 16 -18 17h-791q-18 0 -18 -17v-1237q0 -16 18 -16z" glyph-name="Ecaron" horiz-adv-x="1236" unicode="Ě"/><glyph d="M356 1864h129q49 0 80 -35l25 -29q14 -18 28 0l25 29q35 35 80 35h129q47 0 65.5 -33t-6.5 -74l-120 -201q-25 -37 -76 -36h-221q-51 0 -76 36l-121 201q-25 41 -6.5 74t65.5 33zM391 1757l88 -141q10 -14 25 -14h201q14 0 24 14l88 141q14 25 -14 25h-80q-12 0 -18 -8 l-43 -50q-23 -29 -57 -28.5t-60 30.5q-29 31 -41 50q-6 6 -19 6h-79q-29 0 -15 -25zM1014 0h-791q-45 0 -72.5 26.5t-27.5 71.5v1237q0 45 27.5 72t72.5 27h791q45 0 72.5 -27t27.5 -72v-213q0 -45 -27.5 -71.5t-72.5 -26.5h-445q-16 0 -16 -16v-88q0 -10 3 -13.5t13 -3.5 h271q45 0 72.5 -27.5t27.5 -72.5v-172q0 -45 -27.5 -73t-72.5 -28h-271q-10 0 -13 -3t-3 -13v-88q0 -16 16 -16h445q45 0 72.5 -27t27.5 -72v-213q0 -45 -27.5 -71.5t-72.5 -26.5zM223 82h791q18 0 18 16v213q0 16 -18 17h-445q-45 0 -71.5 26.5t-26.5 71.5v88 q0 45 26.5 71.5t71.5 26.5h271q18 0 18 19v172q0 18 -18 18h-271q-45 0 -71.5 26.5t-26.5 72.5v88q0 45 26.5 71.5t71.5 26.5h445q18 0 18 16v213q0 16 -18 17h-791q-18 0 -18 -17v-1237q0 -16 18 -16z" glyph-name="Ecaron" horiz-adv-x="1236" unicode="ě"/><glyph d="M737 1499q-121 0 -213 80t-108 199q-2 37 20.5 61.5t59.5 24.5h90q59 0 80 -64q16 -55 71.5 -55t71.5 55q20 63 80 64h90q37 0 59.5 -24.5t20.5 -61.5q-16 -119 -108.5 -199t-213.5 -80zM586 1782h-88q14 -88 81.5 -144.5t157.5 -56.5t158 56.5t82 144.5h-88v-2 q-2 -2 -2 -4q-16 -49 -57.5 -81t-92.5 -32t-92 31.5t-57 81.5q0 2 -2 6zM754 874h432q45 0 72.5 -27.5t27.5 -72.5v-569q0 -70 -49 -103q-70 -53 -197 -87.5t-249 -34.5q-322 0 -515.5 201.5t-193.5 535.5q0 328 196.5 532.5t512.5 204.5q246 0 397 -86q59 -35 59 -102v-234 q0 -61 -40 -80.5t-91 15.5q-111 76 -325 75q-135 0 -207 -85t-72 -240q0 -326 279 -326q33 0 47 2q18 0 18 19v53q0 18 -18 18h-84q-45 0 -72 27t-27 72v192q0 45 27 72.5t72 27.5zM1204 205v569q0 18 -18 19h-432q-16 0 -17 -19v-192q0 -10 3 -13.5t14 -3.5h84 q45 0 72.5 -27.5t27.5 -72.5v-53q0 -43 -25.5 -70t-66.5 -31q-18 -2 -55 -2q-174 0 -267.5 105.5t-93.5 302.5q0 188 96.5 297.5t264.5 109.5q244 0 370 -90q2 -2 4 -2v234q0 20 -18 32q-131 74 -356 74q-283 0 -455 -180t-172 -475q0 -301 169 -478.5t458 -177.5 q109 0 223 31t174 76q16 12 16 37z" glyph-name="Gbreve" horiz-adv-x="1388" unicode="Ğ"/><glyph d="M737 1499q-121 0 -213 80t-108 199q-2 37 20.5 61.5t59.5 24.5h90q59 0 80 -64q16 -55 71.5 -55t71.5 55q20 63 80 64h90q37 0 59.5 -24.5t20.5 -61.5q-16 -119 -108.5 -199t-213.5 -80zM586 1782h-88q14 -88 81.5 -144.5t157.5 -56.5t158 56.5t82 144.5h-88v-2 q-2 -2 -2 -4q-16 -49 -57.5 -81t-92.5 -32t-92 31.5t-57 81.5q0 2 -2 6zM754 874h432q45 0 72.5 -27.5t27.5 -72.5v-569q0 -70 -49 -103q-70 -53 -197 -87.5t-249 -34.5q-322 0 -515.5 201.5t-193.5 535.5q0 328 196.5 532.5t512.5 204.5q246 0 397 -86q59 -35 59 -102v-234 q0 -61 -40 -80.5t-91 15.5q-111 76 -325 75q-135 0 -207 -85t-72 -240q0 -326 279 -326q33 0 47 2q18 0 18 19v53q0 18 -18 18h-84q-45 0 -72 27t-27 72v192q0 45 27 72.5t72 27.5zM1204 205v569q0 18 -18 19h-432q-16 0 -17 -19v-192q0 -10 3 -13.5t14 -3.5h84 q45 0 72.5 -27.5t27.5 -72.5v-53q0 -43 -25.5 -70t-66.5 -31q-18 -2 -55 -2q-174 0 -267.5 105.5t-93.5 302.5q0 188 96.5 297.5t264.5 109.5q244 0 370 -90q2 -2 4 -2v234q0 20 -18 32q-131 74 -356 74q-283 0 -455 -180t-172 -475q0 -301 169 -478.5t458 -177.5 q109 0 223 31t174 76q16 12 16 37z" glyph-name="Gbreve" horiz-adv-x="1388" unicode="ğ"/><glyph d="M737 1499q-80 0 -136 56.5t-56 136.5t56 136t136 56q78 0 135.5 -57.5t57.5 -134.5q0 -80 -56.5 -136.5t-136.5 -56.5zM737 1802q-45 0 -77.5 -32.5t-32.5 -77.5q0 -47 31.5 -79t78.5 -32q45 0 78 33t33 78t-33 77.5t-78 32.5zM754 874h432q45 0 72.5 -27.5t27.5 -72.5 v-569q0 -70 -49 -103q-70 -53 -197 -87.5t-249 -34.5q-322 0 -515.5 201.5t-193.5 535.5q0 328 196.5 532.5t512.5 204.5q246 0 397 -86q59 -35 59 -102v-234q0 -61 -40 -80.5t-91 15.5q-111 76 -325 75q-135 0 -207 -85t-72 -240q0 -326 279 -326q33 0 47 2q18 0 18 19v53 q0 18 -18 18h-84q-45 0 -72 27t-27 72v192q0 45 27 72.5t72 27.5zM1204 205v569q0 18 -18 19h-432q-16 0 -17 -19v-192q0 -10 3 -13.5t14 -3.5h84q45 0 72.5 -27.5t27.5 -72.5v-53q0 -43 -25.5 -70t-66.5 -31q-18 -2 -55 -2q-174 0 -267.5 105.5t-93.5 302.5 q0 188 96.5 297.5t264.5 109.5q244 0 370 -90q2 -2 4 -2v234q0 20 -18 32q-131 74 -356 74q-283 0 -455 -180t-172 -475q0 -301 169 -478.5t458 -177.5q109 0 223 31t174 76q16 12 16 37z" glyph-name="Gdotaccent" horiz-adv-x="1388" unicode="Ġ"/><glyph d="M737 1499q-80 0 -136 56.5t-56 136.5t56 136t136 56q78 0 135.5 -57.5t57.5 -134.5q0 -80 -56.5 -136.5t-136.5 -56.5zM737 1802q-45 0 -77.5 -32.5t-32.5 -77.5q0 -47 31.5 -79t78.5 -32q45 0 78 33t33 78t-33 77.5t-78 32.5zM754 874h432q45 0 72.5 -27.5t27.5 -72.5 v-569q0 -70 -49 -103q-70 -53 -197 -87.5t-249 -34.5q-322 0 -515.5 201.5t-193.5 535.5q0 328 196.5 532.5t512.5 204.5q246 0 397 -86q59 -35 59 -102v-234q0 -61 -40 -80.5t-91 15.5q-111 76 -325 75q-135 0 -207 -85t-72 -240q0 -326 279 -326q33 0 47 2q18 0 18 19v53 q0 18 -18 18h-84q-45 0 -72 27t-27 72v192q0 45 27 72.5t72 27.5zM1204 205v569q0 18 -18 19h-432q-16 0 -17 -19v-192q0 -10 3 -13.5t14 -3.5h84q45 0 72.5 -27.5t27.5 -72.5v-53q0 -43 -25.5 -70t-66.5 -31q-18 -2 -55 -2q-174 0 -267.5 105.5t-93.5 302.5 q0 188 96.5 297.5t264.5 109.5q244 0 370 -90q2 -2 4 -2v234q0 20 -18 32q-131 74 -356 74q-283 0 -455 -180t-172 -475q0 -301 169 -478.5t458 -177.5q109 0 223 31t174 76q16 12 16 37z" glyph-name="Gdotaccent" horiz-adv-x="1388" unicode="ġ"/><glyph d="M754 874h432q45 0 72.5 -27.5t27.5 -72.5v-569q0 -70 -49 -103q-70 -53 -197 -87.5t-249 -34.5q-322 0 -515.5 201.5t-193.5 535.5q0 328 196.5 532.5t512.5 204.5q246 0 397 -86q59 -35 59 -102v-234q0 -61 -40 -80.5t-91 15.5q-111 76 -325 75q-135 0 -207 -85 t-72 -240q0 -326 279 -326q33 0 47 2q18 0 18 19v53q0 18 -18 18h-84q-45 0 -72 27t-27 72v192q0 45 27 72.5t72 27.5zM1204 205v569q0 18 -18 19h-432q-16 0 -17 -19v-192q0 -10 3 -13.5t14 -3.5h84q45 0 72.5 -27.5t27.5 -72.5v-53q0 -43 -25.5 -70t-66.5 -31 q-18 -2 -55 -2q-174 0 -267.5 105.5t-93.5 302.5q0 188 96.5 297.5t264.5 109.5q244 0 370 -90q2 -2 4 -2v234q0 20 -18 32q-131 74 -356 74q-283 0 -455 -180t-172 -475q0 -301 169 -478.5t458 -177.5q109 0 223 31t174 76q16 12 16 37zM766 -63q55 0 102 -30t68 -81 q39 -96 -6 -216t-150 -204q-33 -27 -67.5 -22.5t-50.5 41.5q-31 57 8 110q18 29 19 34t-13 17q-96 57 -96 164q0 78 54 132.5t132 54.5zM735 -537q86 68 126 165.5t11 168.5q-33 70 -106 70q-49 0 -83 -34t-34 -83q0 -68 60 -100q80 -37 45 -109q-6 -23 -27 -47 q-14 -18 -8 -28.5t16 -2.5z" glyph-name="Gcommaaccent" horiz-adv-x="1388" unicode="Ģ"/><glyph d="M754 874h432q45 0 72.5 -27.5t27.5 -72.5v-569q0 -70 -49 -103q-70 -53 -197 -87.5t-249 -34.5q-322 0 -515.5 201.5t-193.5 535.5q0 328 196.5 532.5t512.5 204.5q246 0 397 -86q59 -35 59 -102v-234q0 -61 -40 -80.5t-91 15.5q-111 76 -325 75q-135 0 -207 -85 t-72 -240q0 -326 279 -326q33 0 47 2q18 0 18 19v53q0 18 -18 18h-84q-45 0 -72 27t-27 72v192q0 45 27 72.5t72 27.5zM1204 205v569q0 18 -18 19h-432q-16 0 -17 -19v-192q0 -10 3 -13.5t14 -3.5h84q45 0 72.5 -27.5t27.5 -72.5v-53q0 -43 -25.5 -70t-66.5 -31 q-18 -2 -55 -2q-174 0 -267.5 105.5t-93.5 302.5q0 188 96.5 297.5t264.5 109.5q244 0 370 -90q2 -2 4 -2v234q0 20 -18 32q-131 74 -356 74q-283 0 -455 -180t-172 -475q0 -301 169 -478.5t458 -177.5q109 0 223 31t174 76q16 12 16 37zM766 -63q55 0 102 -30t68 -81 q39 -96 -6 -216t-150 -204q-33 -27 -67.5 -22.5t-50.5 41.5q-31 57 8 110q18 29 19 34t-13 17q-96 57 -96 164q0 78 54 132.5t132 54.5zM735 -537q86 68 126 165.5t11 168.5q-33 70 -106 70q-49 0 -83 -34t-34 -83q0 -68 60 -100q80 -37 45 -109q-6 -23 -27 -47 q-14 -18 -8 -28.5t16 -2.5z" glyph-name="Gcommaaccent" horiz-adv-x="1388" unicode="ģ"/><glyph d="M1278 1247h8q45 0 71.5 -27.5t26.5 -72.5v-117q0 -45 -26.5 -71.5t-71.5 -26.5h-8q-18 0 -18 -19v-815q0 -45 -27 -71.5t-72 -26.5h-231q-45 0 -72 26.5t-27 71.5v398q0 16 -18 16h-250q-18 0 -18 -16v-398q0 -45 -26.5 -71.5t-72.5 -26.5h-231q-45 0 -71.5 26.5 t-26.5 71.5v815q0 18 -19 19h-8q-45 0 -71.5 26.5t-26.5 71.5v117q0 45 26.5 72.5t71.5 27.5h8q18 0 19 17v71q0 45 26.5 72t71.5 27h231q45 0 72 -27t27 -72v-71q0 -16 18 -17h250q18 0 18 17v71q0 45 27 72t72 27h231q45 0 72 -27t27 -72v-71q0 -17 18 -17zM1303 1030v117 q0 18 -17 18h-8q-45 0 -72.5 27t-27.5 72v71q0 10 -3.5 13.5t-13.5 3.5h-231q-10 0 -13.5 -3t-3.5 -14v-71q0 -45 -27.5 -72t-72.5 -27h-250q-45 0 -72.5 27t-27.5 72v71q0 10 -3 13.5t-14 3.5h-231q-10 0 -13 -3t-3 -14v-71q0 -45 -28 -72t-73 -27h-8q-16 0 -16 -18v-117 q0 -16 16 -16h8q45 0 73 -28t28 -73v-815q0 -10 3 -13t13 -3h231q10 0 13.5 3t3.5 13v398q0 45 27.5 71.5t72.5 26.5h250q45 0 72.5 -26.5t27.5 -71.5v-398q0 -10 3.5 -13t13.5 -3h231q10 0 13.5 3t3.5 13v815q0 45 27.5 73t72.5 28h8q17 0 17 16zM563 1014h250 q45 0 72.5 -19.5t27.5 -56.5q0 -45 -27.5 -71.5t-72.5 -26.5h-250q-45 0 -72.5 26.5t-27.5 71.5q0 37 27.5 56.5t72.5 19.5zM563 922h250q14 0 16 8h-6q-4 2 -10 2h-250q-6 0 -14 -2h-2q2 -8 16 -8z" glyph-name="Hbar" horiz-adv-x="1376" unicode="Ħ"/><glyph d="M1278 1247h8q45 0 71.5 -27.5t26.5 -72.5v-117q0 -45 -26.5 -71.5t-71.5 -26.5h-8q-18 0 -18 -19v-815q0 -45 -27 -71.5t-72 -26.5h-231q-45 0 -72 26.5t-27 71.5v398q0 16 -18 16h-250q-18 0 -18 -16v-398q0 -45 -26.5 -71.5t-72.5 -26.5h-231q-45 0 -71.5 26.5 t-26.5 71.5v815q0 18 -19 19h-8q-45 0 -71.5 26.5t-26.5 71.5v117q0 45 26.5 72.5t71.5 27.5h8q18 0 19 17v71q0 45 26.5 72t71.5 27h231q45 0 72 -27t27 -72v-71q0 -16 18 -17h250q18 0 18 17v71q0 45 27 72t72 27h231q45 0 72 -27t27 -72v-71q0 -17 18 -17zM1303 1030v117 q0 18 -17 18h-8q-45 0 -72.5 27t-27.5 72v71q0 10 -3.5 13.5t-13.5 3.5h-231q-10 0 -13.5 -3t-3.5 -14v-71q0 -45 -27.5 -72t-72.5 -27h-250q-45 0 -72.5 27t-27.5 72v71q0 10 -3 13.5t-14 3.5h-231q-10 0 -13 -3t-3 -14v-71q0 -45 -28 -72t-73 -27h-8q-16 0 -16 -18v-117 q0 -16 16 -16h8q45 0 73 -28t28 -73v-815q0 -10 3 -13t13 -3h231q10 0 13.5 3t3.5 13v398q0 45 27.5 71.5t72.5 26.5h250q45 0 72.5 -26.5t27.5 -71.5v-398q0 -10 3.5 -13t13.5 -3h231q10 0 13.5 3t3.5 13v815q0 45 27.5 73t72.5 28h8q17 0 17 16zM563 1014h250 q45 0 72.5 -19.5t27.5 -56.5q0 -45 -27.5 -71.5t-72.5 -26.5h-250q-45 0 -72.5 26.5t-27.5 71.5q0 37 27.5 56.5t72.5 19.5zM563 922h250q14 0 16 8h-6q-4 2 -10 2h-250q-6 0 -14 -2h-2q2 -8 16 -8z" glyph-name="Hbar" horiz-adv-x="1376" unicode="ħ"/><glyph d="M-23 1638v107q0 45 27 72.5t72 27.5h471q45 0 71.5 -27.5t26.5 -72.5v-107q0 -45 -26.5 -72.5t-71.5 -27.5h-471q-45 0 -72 27.5t-27 72.5zM59 1745v-107q0 -18 17 -18h471q16 0 16 18v107q0 18 -16 18h-471q-17 0 -17 -18zM123 98v1237q0 45 26.5 72t71.5 27h234 q45 0 71.5 -27t26.5 -72v-1237q0 -45 -26.5 -71.5t-71.5 -26.5h-234q-45 0 -71.5 26.5t-26.5 71.5zM205 1335v-1237q0 -10 3 -13t13 -3h234q10 0 13 3t3 13v1237q0 10 -3 13.5t-13 3.5h-234q-10 0 -13 -3.5t-3 -13.5z" glyph-name="Imacron" horiz-adv-x="675" unicode="Ī"/><glyph d="M-23 1638v107q0 45 27 72.5t72 27.5h471q45 0 71.5 -27.5t26.5 -72.5v-107q0 -45 -26.5 -72.5t-71.5 -27.5h-471q-45 0 -72 27.5t-27 72.5zM59 1745v-107q0 -18 17 -18h471q16 0 16 18v107q0 18 -16 18h-471q-17 0 -17 -18zM123 98v1237q0 45 26.5 72t71.5 27h234 q45 0 71.5 -27t26.5 -72v-1237q0 -45 -26.5 -71.5t-71.5 -26.5h-234q-45 0 -71.5 26.5t-26.5 71.5zM205 1335v-1237q0 -10 3 -13t13 -3h234q10 0 13 3t3 13v1237q0 10 -3 13.5t-13 3.5h-234q-10 0 -13 -3.5t-3 -13.5z" glyph-name="Imacron" horiz-adv-x="675" unicode="ī"/><glyph d="M467 -2q-35 -29 -54.5 -73t-9.5 -64q10 -14 31 -13q88 6 88 -71v-49q0 -53 -35 -80q-84 -68 -219 -37t-159 127q-41 135 53 250q-20 0 -45 31.5t-25 66.5v1237q0 45 26.5 72.5t71.5 27.5h234q45 0 71.5 -27.5t26.5 -72.5v-1237q0 -65 -55 -88zM440 86v1237q0 18 -16 18 h-234q-16 0 -16 -18v-1237q0 -16 16 -16h80l23 -76q-145 -90 -107 -236q14 -53 108.5 -69.5t143.5 24.5q2 2 2 15v39q-70 -6 -106 49q-31 49 -2.5 128t96.5 126q12 4 12 16z" glyph-name="Iogonek" horiz-adv-x="614" unicode="Į"/><glyph d="M467 -2q-35 -29 -54.5 -73t-9.5 -64q10 -14 31 -13q88 6 88 -71v-49q0 -53 -35 -80q-84 -68 -219 -37t-159 127q-41 135 53 250q-20 0 -45 31.5t-25 66.5v1237q0 45 26.5 72.5t71.5 27.5h234q45 0 71.5 -27.5t26.5 -72.5v-1237q0 -65 -55 -88zM440 86v1237q0 18 -16 18 h-234q-16 0 -16 -18v-1237q0 -16 16 -16h80l23 -76q-145 -90 -107 -236q14 -53 108.5 -69.5t143.5 24.5q2 2 2 15v39q-70 -6 -106 49q-31 49 -2.5 128t96.5 126q12 4 12 16z" glyph-name="Iogonek" horiz-adv-x="614" unicode="į"/><glyph d="M303 1499q-80 0 -136 56.5t-56 136.5t56 136t136 56q78 0 135.5 -57.5t57.5 -134.5q0 -80 -56.5 -136.5t-136.5 -56.5zM303 1581q45 0 78 33t33 78t-33 77.5t-78 32.5t-77.5 -32.5t-32.5 -77.5q0 -47 31.5 -79t78.5 -32zM123 98v1237q0 45 26.5 72t71.5 27h234 q45 0 71.5 -27t26.5 -72v-1237q0 -45 -26.5 -71.5t-71.5 -26.5h-234q-45 0 -71.5 26.5t-26.5 71.5zM205 1335v-1237q0 -10 3 -13t13 -3h234q10 0 13 3t3 13v1237q0 10 -3 13.5t-13 3.5h-234q-10 0 -13 -3.5t-3 -13.5z" glyph-name="Idotaccent" horiz-adv-x="675" unicode="İ"/><glyph d="M1233 125l2 -2q20 -51 -5.5 -87t-78.5 -36h-225q-80 0 -105 70l-174 415q-2 4 -2 11q-2 0 -2 -4q0 -2 -2 -5h-2l-74 -106h2q-14 -23 -14 -49v-234q0 -45 -26.5 -71.5t-71.5 -26.5h-232q-45 0 -72.5 26.5t-27.5 71.5v1237q0 45 27.5 72t72.5 27h232q45 0 71.5 -27 t26.5 -72v-331l246 374v-2q33 57 104 58h217q59 0 82 -41t-10 -93l-274 -405q-12 -16 -5 -43zM926 82h225h12l-6 12l2 -2l-323 731q-20 66 12 117l274 406l6 6h-8h-217q-25 0 -35 -17v-2l-250 -381q-41 -61 -94 -44.5t-53 89.5v338q0 10 -3 13.5t-13 3.5h-232q-18 0 -18 -17 v-1237q0 -16 18 -16h232q10 0 13 3t3 13v234q0 53 27 94h2l73 106h-2q33 51 81 47t71 -61l174 -418q6 -18 29 -18zM674 -63q55 0 102 -30t68 -81q39 -96 -6 -216t-150 -204q-33 -27 -67.5 -22.5t-51.5 41.5q-31 57 9 110q18 29 19 34t-13 17q-96 57 -97 164q0 78 54.5 132.5 t132.5 54.5zM643 -537q86 68 126 165.5t11 168.5q-33 70 -106 70q-49 0 -83 -34t-34 -83q0 -68 59 -100q80 -37 46 -109q-6 -23 -27 -47q-14 -18 -8 -28.5t16 -2.5z" glyph-name="Kcommaaccent" horiz-adv-x="1366" unicode="Ķ"/><glyph d="M1233 125l2 -2q20 -51 -5.5 -87t-78.5 -36h-225q-80 0 -105 70l-174 415q-2 4 -2 11q-2 0 -2 -4q0 -2 -2 -5h-2l-74 -106h2q-14 -23 -14 -49v-234q0 -45 -26.5 -71.5t-71.5 -26.5h-232q-45 0 -72.5 26.5t-27.5 71.5v1237q0 45 27.5 72t72.5 27h232q45 0 71.5 -27 t26.5 -72v-331l246 374v-2q33 57 104 58h217q59 0 82 -41t-10 -93l-274 -405q-12 -16 -5 -43zM926 82h225h12l-6 12l2 -2l-323 731q-20 66 12 117l274 406l6 6h-8h-217q-25 0 -35 -17v-2l-250 -381q-41 -61 -94 -44.5t-53 89.5v338q0 10 -3 13.5t-13 3.5h-232q-18 0 -18 -17 v-1237q0 -16 18 -16h232q10 0 13 3t3 13v234q0 53 27 94h2l73 106h-2q33 51 81 47t71 -61l174 -418q6 -18 29 -18zM674 -63q55 0 102 -30t68 -81q39 -96 -6 -216t-150 -204q-33 -27 -67.5 -22.5t-51.5 41.5q-31 57 9 110q18 29 19 34t-13 17q-96 57 -97 164q0 78 54.5 132.5 t132.5 54.5zM643 -537q86 68 126 165.5t11 168.5q-33 70 -106 70q-49 0 -83 -34t-34 -83q0 -68 59 -100q80 -37 46 -109q-6 -23 -27 -47q-14 -18 -8 -28.5t16 -2.5z" glyph-name="Kcommaaccent" horiz-adv-x="1366" unicode="ķ"/><glyph d="M567 1763l-114 -196v-2q-31 -45 -82 -45h-135q-41 0 -62.5 29.5t-7.5 70.5l61 186q23 57 82 58h193q45 0 65 -31t0 -70zM457 1782h-131q-18 0 -25 -17l-47 -141q-6 -23 16 -22h101q6 0 12 6l88 149q15 25 -14 25zM938 0h-717q-45 0 -71.5 26.5t-26.5 71.5v1237 q0 45 26.5 72t71.5 27h234q45 0 71.5 -27t26.5 -72v-909q0 -16 16 -16h369q45 0 71.5 -27t26.5 -72v-213q0 -45 -26.5 -71.5t-71.5 -26.5zM221 82h717q16 0 16 16v213q0 16 -16 17h-369q-45 0 -71.5 26.5t-26.5 71.5v909q0 10 -3 13.5t-13 3.5h-234q-16 0 -16 -17v-1237 q0 -16 16 -16z" glyph-name="Lacute" horiz-adv-x="1138" unicode="Ĺ"/><glyph d="M567 1763l-114 -196v-2q-31 -45 -82 -45h-135q-41 0 -62.5 29.5t-7.5 70.5l61 186q23 57 82 58h193q45 0 65 -31t0 -70zM457 1782h-131q-18 0 -25 -17l-47 -141q-6 -23 16 -22h101q6 0 12 6l88 149q15 25 -14 25zM938 0h-717q-45 0 -71.5 26.5t-26.5 71.5v1237 q0 45 26.5 72t71.5 27h234q45 0 71.5 -27t26.5 -72v-909q0 -16 16 -16h369q45 0 71.5 -27t26.5 -72v-213q0 -45 -26.5 -71.5t-71.5 -26.5zM221 82h717q16 0 16 16v213q0 16 -16 17h-369q-45 0 -71.5 26.5t-26.5 71.5v909q0 10 -3 13.5t-13 3.5h-234q-16 0 -16 -17v-1237 q0 -16 16 -16z" glyph-name="Lacute" horiz-adv-x="1138" unicode="ĺ"/><glyph d="M938 0h-717q-45 0 -71.5 26.5t-26.5 71.5v1237q0 45 26.5 72t71.5 27h234q45 0 71.5 -27t26.5 -72v-909q0 -16 16 -16h369q45 0 71.5 -27t26.5 -72v-213q0 -45 -26.5 -71.5t-71.5 -26.5zM221 82h717q16 0 16 16v213q0 16 -16 17h-369q-45 0 -71.5 26.5t-26.5 71.5v909 q0 10 -3 13.5t-13 3.5h-234q-16 0 -16 -17v-1237q0 -16 16 -16zM367 -250q0 78 54 132.5t132 54.5q55 0 102 -30t68 -81q39 -96 -6 -216t-150 -204q-33 -27 -67.5 -22.5t-50.5 41.5q-31 57 8 110q18 29 19 34t-13 17q-96 58 -96 164zM436 -250q0 -68 60 -100q80 -37 45 -109 q-6 -23 -27 -47q-14 -18 -8 -28.5t16 -2.5q86 68 126 165.5t11 168.5q-33 70 -106 70q-49 0 -83 -34t-34 -83z" glyph-name="Lcommaaccent" horiz-adv-x="1138" unicode="Ļ"/><glyph d="M938 0h-717q-45 0 -71.5 26.5t-26.5 71.5v1237q0 45 26.5 72t71.5 27h234q45 0 71.5 -27t26.5 -72v-909q0 -16 16 -16h369q45 0 71.5 -27t26.5 -72v-213q0 -45 -26.5 -71.5t-71.5 -26.5zM221 82h717q16 0 16 16v213q0 16 -16 17h-369q-45 0 -71.5 26.5t-26.5 71.5v909 q0 10 -3 13.5t-13 3.5h-234q-16 0 -16 -17v-1237q0 -16 16 -16zM367 -250q0 78 54 132.5t132 54.5q55 0 102 -30t68 -81q39 -96 -6 -216t-150 -204q-33 -27 -67.5 -22.5t-50.5 41.5q-31 57 8 110q18 29 19 34t-13 17q-96 58 -96 164zM436 -250q0 -68 60 -100q80 -37 45 -109 q-6 -23 -27 -47q-14 -18 -8 -28.5t16 -2.5q86 68 126 165.5t11 168.5q-33 70 -106 70q-49 0 -83 -34t-34 -83z" glyph-name="Lcommaaccent" horiz-adv-x="1138" unicode="ļ"/><glyph d="M55 1864h129q49 0 80 -35l25 -29q14 -18 28 0l25 29q35 35 80 35h129q47 0 65.5 -33t-6.5 -74l-121 -201q-25 -37 -75 -36h-221q-51 0 -76 36l-121 201q-25 41 -6.5 74t65.5 33zM90 1757l88 -141q10 -14 25 -14h200q14 0 25 14l88 141q14 25 -14 25h-80q-12 0 -19 -8 l-43 -50q-23 -29 -56.5 -28.5t-59.5 30.5q-29 31 -41 50q-6 6 -19 6h-80q-28 0 -14 -25zM938 0h-717q-45 0 -71.5 26.5t-26.5 71.5v1237q0 45 26.5 72t71.5 27h234q45 0 71.5 -27t26.5 -72v-909q0 -16 16 -16h369q45 0 71.5 -27t26.5 -72v-213q0 -45 -26.5 -71.5 t-71.5 -26.5zM221 82h717q16 0 16 16v213q0 16 -16 17h-369q-45 0 -71.5 26.5t-26.5 71.5v909q0 10 -3 13.5t-13 3.5h-234q-16 0 -16 -17v-1237q0 -16 16 -16z" glyph-name="Lcaron" horiz-adv-x="1138" unicode="Ľ"/><glyph d="M55 1864h129q49 0 80 -35l25 -29q14 -18 28 0l25 29q35 35 80 35h129q47 0 65.5 -33t-6.5 -74l-121 -201q-25 -37 -75 -36h-221q-51 0 -76 36l-121 201q-25 41 -6.5 74t65.5 33zM90 1757l88 -141q10 -14 25 -14h200q14 0 25 14l88 141q14 25 -14 25h-80q-12 0 -19 -8 l-43 -50q-23 -29 -56.5 -28.5t-59.5 30.5q-29 31 -41 50q-6 6 -19 6h-80q-28 0 -14 -25zM938 0h-717q-45 0 -71.5 26.5t-26.5 71.5v1237q0 45 26.5 72t71.5 27h234q45 0 71.5 -27t26.5 -72v-909q0 -16 16 -16h369q45 0 71.5 -27t26.5 -72v-213q0 -45 -26.5 -71.5 t-71.5 -26.5zM221 82h717q16 0 16 16v213q0 16 -16 17h-369q-45 0 -71.5 26.5t-26.5 71.5v909q0 10 -3 13.5t-13 3.5h-234q-16 0 -16 -17v-1237q0 -16 16 -16z" glyph-name="Lcaron" horiz-adv-x="1138" unicode="ľ"/><glyph d="M559 410h367q45 0 71.5 -27t26.5 -72v-213q0 -45 -26.5 -71.5t-71.5 -26.5h-715q-45 0 -71.5 26.5t-26.5 71.5v346v15q-47 -23 -81 2.5t-34 81.5v121q0 72 72 106l24 8q18 8 19 29v528q0 45 26.5 72t71.5 27h231q45 0 72 -27t27 -72v-356v-10l8 4l14 4l-8 -2 q51 20 87 -5.5t36 -78.5v-121q0 -74 -68 -104l-51 -21l2 2q-20 -8 -20 -31v-190q0 -16 18 -16zM942 98v213q0 10 -3 13.5t-13 3.5h-367q-45 0 -72.5 26.5t-27.5 71.5v190q0 74 69 105l2 2l48 16q18 10 18 31v121v12l-12 -6h-4q-49 -20 -85 4.5t-36 77.5v356q0 10 -3 13.5 t-14 3.5h-231q-10 0 -13 -3t-3 -14v-528q0 -78 -72 -107l-25 -8q-18 -8 -18 -28v-121v-11q45 18 80 -8t35 -80v-346q0 -10 3 -13t13 -3h715q10 0 13 3t3 13z" glyph-name="Lslash" horiz-adv-x="1126" unicode="Ł"/><glyph d="M559 410h367q45 0 71.5 -27t26.5 -72v-213q0 -45 -26.5 -71.5t-71.5 -26.5h-715q-45 0 -71.5 26.5t-26.5 71.5v346v15q-47 -23 -81 2.5t-34 81.5v121q0 72 72 106l24 8q18 8 19 29v528q0 45 26.5 72t71.5 27h231q45 0 72 -27t27 -72v-356v-10l8 4l14 4l-8 -2 q51 20 87 -5.5t36 -78.5v-121q0 -74 -68 -104l-51 -21l2 2q-20 -8 -20 -31v-190q0 -16 18 -16zM942 98v213q0 10 -3 13.5t-13 3.5h-367q-45 0 -72.5 26.5t-27.5 71.5v190q0 74 69 105l2 2l48 16q18 10 18 31v121v12l-12 -6h-4q-49 -20 -85 4.5t-36 77.5v356q0 10 -3 13.5 t-14 3.5h-231q-10 0 -13 -3t-3 -14v-528q0 -78 -72 -107l-25 -8q-18 -8 -18 -28v-121v-11q45 18 80 -8t35 -80v-346q0 -10 3 -13t13 -3h715q10 0 13 3t3 13z" glyph-name="Lslash" horiz-adv-x="1126" unicode="ł"/><glyph d="M776 1520h-135q-41 0 -62.5 29.5t-7.5 70.5l62 186q23 57 82 58h192q45 0 65.5 -31t0.5 -70l-115 -196v-2q-31 -45 -82 -45zM707 1765l-48 -141q-6 -23 17 -22h100q6 0 12 6l89 149q14 25 -15 25h-131q-18 -1 -24 -17zM956 1434h232q45 0 71.5 -27t26.5 -72v-1237 q0 -45 -26.5 -71.5t-71.5 -26.5h-244q-68 0 -104 66l-287 555v-523q0 -45 -27.5 -71.5t-72.5 -26.5h-232q-45 0 -71.5 26.5t-26.5 71.5v1237q0 45 26.5 72t71.5 27h244q68 0 104 -66l287 -555v522q0 45 27.5 72t72.5 27zM1204 98v1237q0 10 -3 13.5t-13 3.5h-232 q-18 0 -18 -17v-540q0 -76 -54.5 -89.5t-90.5 52.5l-2 2l-295 571q-10 20 -31 21h-244q-10 0 -13 -3t-3 -14v-1237q0 -10 3 -13t13 -3h232q18 0 18 16v541q0 76 54.5 89t90.5 -52l2 -2l295 -572q10 -20 31 -20h244q10 0 13 3t3 13z" glyph-name="Nacute" horiz-adv-x="1409" unicode="Ń"/><glyph d="M776 1520h-135q-41 0 -62.5 29.5t-7.5 70.5l62 186q23 57 82 58h192q45 0 65.5 -31t0.5 -70l-115 -196v-2q-31 -45 -82 -45zM707 1765l-48 -141q-6 -23 17 -22h100q6 0 12 6l89 149q14 25 -15 25h-131q-18 -1 -24 -17zM956 1434h232q45 0 71.5 -27t26.5 -72v-1237 q0 -45 -26.5 -71.5t-71.5 -26.5h-244q-68 0 -104 66l-287 555v-523q0 -45 -27.5 -71.5t-72.5 -26.5h-232q-45 0 -71.5 26.5t-26.5 71.5v1237q0 45 26.5 72t71.5 27h244q68 0 104 -66l287 -555v522q0 45 27.5 72t72.5 27zM1204 98v1237q0 10 -3 13.5t-13 3.5h-232 q-18 0 -18 -17v-540q0 -76 -54.5 -89.5t-90.5 52.5l-2 2l-295 571q-10 20 -31 21h-244q-10 0 -13 -3t-3 -14v-1237q0 -10 3 -13t13 -3h232q18 0 18 16v541q0 76 54.5 89t90.5 -52l2 -2l295 -572q10 -20 31 -20h244q10 0 13 3t3 13z" glyph-name="Nacute" horiz-adv-x="1409" unicode="ń"/><glyph d="M956 1434h232q45 0 71.5 -27t26.5 -72v-1237q0 -45 -26.5 -71.5t-71.5 -26.5h-244q-68 0 -104 66l-287 555v-523q0 -45 -27.5 -71.5t-72.5 -26.5h-232q-45 0 -71.5 26.5t-26.5 71.5v1237q0 45 26.5 72t71.5 27h244q68 0 104 -66l287 -555v522q0 45 27.5 72t72.5 27z M1204 98v1237q0 10 -3 13.5t-13 3.5h-232q-18 0 -18 -17v-540q0 -76 -54.5 -89.5t-90.5 52.5l-2 2l-295 571q-10 20 -31 21h-244q-10 0 -13 -3t-3 -14v-1237q0 -10 3 -13t13 -3h232q18 0 18 16v541q0 76 54.5 89t90.5 -52l2 -2l295 -572q10 -20 31 -20h244q10 0 13 3t3 13z M686 -63q55 0 102.5 -30t67.5 -81q39 -96 -6 -216t-150 -204q-33 -27 -67.5 -22.5t-50.5 41.5q-31 57 8 110q18 29 19 34t-13 17q-96 57 -96 164q0 78 54 132.5t132 54.5zM655 -537q86 68 126 165.5t12 168.5q-33 70 -107 70q-49 0 -83 -34t-34 -83q0 -68 60 -100 q80 -37 45 -109q-6 -23 -27 -47q-14 -18 -8 -28.5t16 -2.5z" glyph-name="Ncommaaccent" horiz-adv-x="1409" unicode="Ņ"/><glyph d="M956 1434h232q45 0 71.5 -27t26.5 -72v-1237q0 -45 -26.5 -71.5t-71.5 -26.5h-244q-68 0 -104 66l-287 555v-523q0 -45 -27.5 -71.5t-72.5 -26.5h-232q-45 0 -71.5 26.5t-26.5 71.5v1237q0 45 26.5 72t71.5 27h244q68 0 104 -66l287 -555v522q0 45 27.5 72t72.5 27z M1204 98v1237q0 10 -3 13.5t-13 3.5h-232q-18 0 -18 -17v-540q0 -76 -54.5 -89.5t-90.5 52.5l-2 2l-295 571q-10 20 -31 21h-244q-10 0 -13 -3t-3 -14v-1237q0 -10 3 -13t13 -3h232q18 0 18 16v541q0 76 54.5 89t90.5 -52l2 -2l295 -572q10 -20 31 -20h244q10 0 13 3t3 13z M686 -63q55 0 102.5 -30t67.5 -81q39 -96 -6 -216t-150 -204q-33 -27 -67.5 -22.5t-50.5 41.5q-31 57 8 110q18 29 19 34t-13 17q-96 57 -96 164q0 78 54 132.5t132 54.5zM655 -537q86 68 126 165.5t12 168.5q-33 70 -107 70q-49 0 -83 -34t-34 -83q0 -68 60 -100 q80 -37 45 -109q-6 -23 -27 -47q-14 -18 -8 -28.5t16 -2.5z" glyph-name="Ncommaaccent" horiz-adv-x="1409" unicode="ņ"/><glyph d="M489 1556l-120 201q-25 41 -6.5 74t65.5 33h129q49 0 80 -35l25 -29q14 -18 28 0l25 29q35 35 80 35h129q47 0 65.5 -33t-6.5 -74l-121 -201q-25 -37 -76 -36h-221q-51 -1 -76 36zM557 1782h-80q-29 0 -14 -25l88 -141q10 -14 24 -14h201q14 0 25 14l88 141q14 25 -15 25 h-79q-12 0 -19 -8l-43 -50q-23 -29 -56.5 -28.5t-60.5 30.5q-29 31 -41 50q-6 6 -18 6zM956 1434h232q45 0 71.5 -27t26.5 -72v-1237q0 -45 -26.5 -71.5t-71.5 -26.5h-244q-68 0 -104 66l-287 555v-523q0 -45 -27.5 -71.5t-72.5 -26.5h-232q-45 0 -71.5 26.5t-26.5 71.5 v1237q0 45 26.5 72t71.5 27h244q68 0 104 -66l287 -555v522q0 45 27.5 72t72.5 27zM1204 98v1237q0 10 -3 13.5t-13 3.5h-232q-18 0 -18 -17v-540q0 -76 -54.5 -89.5t-90.5 52.5l-2 2l-295 571q-10 20 -31 21h-244q-10 0 -13 -3t-3 -14v-1237q0 -10 3 -13t13 -3h232 q18 0 18 16v541q0 76 54.5 89t90.5 -52l2 -2l295 -572q10 -20 31 -20h244q10 0 13 3t3 13z" glyph-name="Ncaron" horiz-adv-x="1409" unicode="Ň"/><glyph d="M489 1556l-120 201q-25 41 -6.5 74t65.5 33h129q49 0 80 -35l25 -29q14 -18 28 0l25 29q35 35 80 35h129q47 0 65.5 -33t-6.5 -74l-121 -201q-25 -37 -76 -36h-221q-51 -1 -76 36zM557 1782h-80q-29 0 -14 -25l88 -141q10 -14 24 -14h201q14 0 25 14l88 141q14 25 -15 25 h-79q-12 0 -19 -8l-43 -50q-23 -29 -56.5 -28.5t-60.5 30.5q-29 31 -41 50q-6 6 -18 6zM956 1434h232q45 0 71.5 -27t26.5 -72v-1237q0 -45 -26.5 -71.5t-71.5 -26.5h-244q-68 0 -104 66l-287 555v-523q0 -45 -27.5 -71.5t-72.5 -26.5h-232q-45 0 -71.5 26.5t-26.5 71.5 v1237q0 45 26.5 72t71.5 27h244q68 0 104 -66l287 -555v522q0 45 27.5 72t72.5 27zM1204 98v1237q0 10 -3 13.5t-13 3.5h-232q-18 0 -18 -17v-540q0 -76 -54.5 -89.5t-90.5 52.5l-2 2l-295 571q-10 20 -31 21h-244q-10 0 -13 -3t-3 -14v-1237q0 -10 3 -13t13 -3h232 q18 0 18 16v541q0 76 54.5 89t90.5 -52l2 -2l295 -572q10 -20 31 -20h244q10 0 13 3t3 13z" glyph-name="Ncaron" horiz-adv-x="1409" unicode="ň"/><glyph d="M956 1419h232q45 0 71.5 -27.5t26.5 -72.5v-1294q0 -49 -6 -99.5t-32.5 -131.5t-74 -142.5t-139.5 -111.5t-217 -60q-78 -4 -104 65l-64 189v-2q-16 47 5.5 80.5t74.5 42.5q84 10 121 54t10 97l-307 619v-541q0 -45 -27.5 -72.5t-72.5 -27.5h-232q-45 0 -71.5 27.5 t-26.5 72.5v1235q0 45 26.5 72.5t71.5 27.5h244q72 0 104 -65l287 -576v541q0 45 27.5 72.5t72.5 27.5zM1204 25v1294q0 18 -16 18h-232q-18 0 -18 -18v-559q0 -76 -56.5 -89.5t-90.5 54.5l-295 592q-10 20 -31 20h-244q-16 0 -16 -18v-1235q0 -18 16 -18h232q18 0 18 18 v559q0 76 56.5 89t90.5 -54l316 -635q45 -94 -12.5 -174t-180.5 -96q-16 -2 -18 -2l4 -11v-2l61 -186q6 -10 23 -10q88 8 156.5 36.5t109.5 72.5t69 90t39 100.5t15 90.5t4 73z" glyph-name="Eng" horiz-adv-x="1409" unicode="Ŋ"/><glyph d="M956 1419h232q45 0 71.5 -27.5t26.5 -72.5v-1294q0 -49 -6 -99.5t-32.5 -131.5t-74 -142.5t-139.5 -111.5t-217 -60q-78 -4 -104 65l-64 189v-2q-16 47 5.5 80.5t74.5 42.5q84 10 121 54t10 97l-307 619v-541q0 -45 -27.5 -72.5t-72.5 -27.5h-232q-45 0 -71.5 27.5 t-26.5 72.5v1235q0 45 26.5 72.5t71.5 27.5h244q72 0 104 -65l287 -576v541q0 45 27.5 72.5t72.5 27.5zM1204 25v1294q0 18 -16 18h-232q-18 0 -18 -18v-559q0 -76 -56.5 -89.5t-90.5 54.5l-295 592q-10 20 -31 20h-244q-16 0 -16 -18v-1235q0 -18 16 -18h232q18 0 18 18 v559q0 76 56.5 89t90.5 -54l316 -635q45 -94 -12.5 -174t-180.5 -96q-16 -2 -18 -2l4 -11v-2l61 -186q6 -10 23 -10q88 8 156.5 36.5t109.5 72.5t69 90t39 100.5t15 90.5t4 73z" glyph-name="Eng" horiz-adv-x="1409" unicode="ŋ"/><glyph d="M424 1638v107q0 45 26.5 72.5t71.5 27.5h471q45 0 72 -27.5t27 -72.5v-107q0 -45 -27 -72.5t-72 -27.5h-471q-45 0 -71.5 27.5t-26.5 72.5zM506 1745v-107q0 -18 16 -18h471q16 0 17 18v107q0 18 -17 18h-471q-16 0 -16 -18zM772 -20q-295 0 -482.5 205.5t-187.5 531 t187.5 531.5t482.5 206t482.5 -206t187.5 -531.5t-187.5 -531t-482.5 -205.5zM772 61q262 0 425 182.5t163 473.5t-163 473t-425 182t-425 -182t-163 -473t163 -473.5t425 -182.5zM772.5 309q-149.5 0 -235.5 108.5t-86 299t86 299t235.5 108.5t235.5 -108.5t86 -299 t-86 -299t-235.5 -108.5zM772 391q115 0 177.5 85t62.5 240.5t-62.5 240.5t-177.5 85t-177.5 -85t-62.5 -240.5t62.5 -240.5t177.5 -85z" glyph-name="Omacron" horiz-adv-x="1544" unicode="Ō"/><glyph d="M424 1638v107q0 45 26.5 72.5t71.5 27.5h471q45 0 72 -27.5t27 -72.5v-107q0 -45 -27 -72.5t-72 -27.5h-471q-45 0 -71.5 27.5t-26.5 72.5zM506 1745v-107q0 -18 16 -18h471q16 0 17 18v107q0 18 -17 18h-471q-16 0 -16 -18zM772 -20q-295 0 -482.5 205.5t-187.5 531 t187.5 531.5t482.5 206t482.5 -206t187.5 -531.5t-187.5 -531t-482.5 -205.5zM772 61q262 0 425 182.5t163 473.5t-163 473t-425 182t-425 -182t-163 -473t163 -473.5t425 -182.5zM772.5 309q-149.5 0 -235.5 108.5t-86 299t86 299t235.5 108.5t235.5 -108.5t86 -299 t-86 -299t-235.5 -108.5zM772 391q115 0 177.5 85t62.5 240.5t-62.5 240.5t-177.5 85t-177.5 -85t-62.5 -240.5t62.5 -240.5t177.5 -85z" glyph-name="Omacron" horiz-adv-x="1544" unicode="ō"/><glyph d="M829 1763l-114 -196v-2q-31 -45 -82 -45h-135q-41 0 -62.5 29.5t-7.5 70.5l61 186q23 57 82 58h193q45 0 65 -31t0 -70zM1210 1763l-114 -196v-2q-31 -45 -82 -45h-135q-41 0 -62.5 29.5t-7.5 70.5l61 186q23 57 82 58h193q45 0 65 -31t0 -70zM719 1782h-131 q-18 0 -25 -17l-47 -141q-6 -23 16 -22h101q6 0 12 6l88 149q15 25 -14 25zM1100 1782h-131q-18 0 -25 -17l-47 -141q-6 -23 16 -22h101q6 0 12 6l88 149q15 25 -14 25zM772 -20q-295 0 -482.5 205.5t-187.5 531t187.5 531.5t482.5 206t482.5 -206t187.5 -531.5t-187.5 -531 t-482.5 -205.5zM772 61q262 0 425 182.5t163 473.5t-163 473t-425 182t-425 -182t-163 -473t163 -473.5t425 -182.5zM772.5 309q-149.5 0 -235.5 108.5t-86 299t86 299t235.5 108.5t235.5 -108.5t86 -299t-86 -299t-235.5 -108.5zM772 391q115 0 177.5 85t62.5 240.5 t-62.5 240.5t-177.5 85t-177.5 -85t-62.5 -240.5t62.5 -240.5t177.5 -85z" glyph-name="Ohungarumlaut" horiz-adv-x="1544" unicode="Ő"/><glyph d="M829 1763l-114 -196v-2q-31 -45 -82 -45h-135q-41 0 -62.5 29.5t-7.5 70.5l61 186q23 57 82 58h193q45 0 65 -31t0 -70zM1210 1763l-114 -196v-2q-31 -45 -82 -45h-135q-41 0 -62.5 29.5t-7.5 70.5l61 186q23 57 82 58h193q45 0 65 -31t0 -70zM719 1782h-131 q-18 0 -25 -17l-47 -141q-6 -23 16 -22h101q6 0 12 6l88 149q15 25 -14 25zM1100 1782h-131q-18 0 -25 -17l-47 -141q-6 -23 16 -22h101q6 0 12 6l88 149q15 25 -14 25zM772 -20q-295 0 -482.5 205.5t-187.5 531t187.5 531.5t482.5 206t482.5 -206t187.5 -531.5t-187.5 -531 t-482.5 -205.5zM772 61q262 0 425 182.5t163 473.5t-163 473t-425 182t-425 -182t-163 -473t163 -473.5t425 -182.5zM772.5 309q-149.5 0 -235.5 108.5t-86 299t86 299t235.5 108.5t235.5 -108.5t86 -299t-86 -299t-235.5 -108.5zM772 391q115 0 177.5 85t62.5 240.5 t-62.5 240.5t-177.5 85t-177.5 -85t-62.5 -240.5t62.5 -240.5t177.5 -85z" glyph-name="Ohungarumlaut" horiz-adv-x="1544" unicode="ő"/><glyph d="M1901 1024h-445q-16 0 -16 -16v-78q0 -18 16 -19h270q45 0 72 -26.5t27 -71.5v-192q0 -45 -26.5 -72t-72.5 -27h-270q-16 0 -16 -18v-78q0 -16 16 -16h445q45 0 71.5 -27t26.5 -72v-213q0 -45 -26.5 -71.5t-71.5 -26.5h-793q-57 0 -86 29q-12 -8 -23 -13 q-115 -37 -229 -36q-293 0 -480.5 205.5t-187.5 531t187.5 531.5t480.5 206q119 0 229 -37q4 -2 11.5 -5t11.5 -5q25 27 86 27h793q45 0 71.5 -27t26.5 -72v-213q0 -45 -26.5 -71.5t-71.5 -26.5zM1726 829h-270q-45 0 -71.5 28t-26.5 73v78q0 45 26.5 71.5t71.5 26.5h445 q10 0 13 3t3 13v213q0 10 -3 13.5t-13 3.5h-793q-27 0 -46.5 -11.5t-30.5 -13.5t-60 12q-96 33 -201 33q-260 0 -423 -182t-163 -473t163 -473.5t423 -182.5q104 0 201 33q51 16 63.5 13t31.5 -14t42 -11h793q10 0 13 3t3 13v213q0 10 -3 13.5t-13 3.5h-445 q-45 0 -71.5 26.5t-26.5 71.5v78q0 45 26.5 72.5t71.5 27.5h270q10 0 13.5 3t3.5 14v192q0 10 -3.5 13t-13.5 3zM770.5 1124q149.5 0 235.5 -108.5t86 -299t-86 -299t-235.5 -108.5t-235.5 108.5t-86 299t86 299t235.5 108.5zM770 391q115 0 177.5 85t62.5 240.5 t-62.5 240.5t-177.5 85t-177.5 -85t-62.5 -240.5t62.5 -240.5t177.5 -85z" glyph-name="OE" horiz-adv-x="2101" unicode="Œ"/><glyph d="M1901 1024h-445q-16 0 -16 -16v-78q0 -18 16 -19h270q45 0 72 -26.5t27 -71.5v-192q0 -45 -26.5 -72t-72.5 -27h-270q-16 0 -16 -18v-78q0 -16 16 -16h445q45 0 71.5 -27t26.5 -72v-213q0 -45 -26.5 -71.5t-71.5 -26.5h-793q-57 0 -86 29q-12 -8 -23 -13 q-115 -37 -229 -36q-293 0 -480.5 205.5t-187.5 531t187.5 531.5t480.5 206q119 0 229 -37q4 -2 11.5 -5t11.5 -5q25 27 86 27h793q45 0 71.5 -27t26.5 -72v-213q0 -45 -26.5 -71.5t-71.5 -26.5zM1726 829h-270q-45 0 -71.5 28t-26.5 73v78q0 45 26.5 71.5t71.5 26.5h445 q10 0 13 3t3 13v213q0 10 -3 13.5t-13 3.5h-793q-27 0 -46.5 -11.5t-30.5 -13.5t-60 12q-96 33 -201 33q-260 0 -423 -182t-163 -473t163 -473.5t423 -182.5q104 0 201 33q51 16 63.5 13t31.5 -14t42 -11h793q10 0 13 3t3 13v213q0 10 -3 13.5t-13 3.5h-445 q-45 0 -71.5 26.5t-26.5 71.5v78q0 45 26.5 72.5t71.5 27.5h270q10 0 13.5 3t3.5 14v192q0 10 -3.5 13t-13.5 3zM770.5 1124q149.5 0 235.5 -108.5t86 -299t-86 -299t-235.5 -108.5t-235.5 108.5t-86 299t86 299t235.5 108.5zM770 391q115 0 177.5 85t62.5 240.5 t-62.5 240.5t-177.5 85t-177.5 -85t-62.5 -240.5t62.5 -240.5t177.5 -85z" glyph-name="OE" horiz-adv-x="2101" unicode="œ"/><glyph d="M829 1763l-114 -196v-2q-31 -45 -82 -45h-135q-41 0 -62.5 29.5t-7.5 70.5l61 186q23 57 82 58h193q45 0 65 -31t0 -70zM719 1782h-131q-18 0 -25 -17l-47 -141q-6 -23 16 -22h101q6 0 12 6l88 149q15 25 -14 25zM455 0h-232q-45 0 -72.5 26.5t-27.5 71.5v1237 q0 45 27.5 72t72.5 27h379q283 0 436.5 -129t153.5 -367q0 -252 -182 -375q-18 -10 -11 -28l179 -410l2 -2q20 -51 -5.5 -87t-78.5 -36h-226q-72 0 -98 55l-158 391q-6 18 -26 19h-17q-18 0 -18 -16v-351q0 -45 -26.5 -71.5t-71.5 -26.5zM223 82h232q10 0 13 3t3 13v351 q0 45 27.5 71.5t72.5 26.5h17q76 0 104 -72l156 -385q6 -8 22 -8h226h12l-6 12l2 -2l-182 412q-29 82 43 129q145 96 145 305q0 203 -129 308.5t-379 105.5h-379q-18 0 -18 -17v-1237q0 -16 18 -16zM471 854v172q0 45 27.5 71.5t72.5 26.5h31q129 0 185.5 -43t56.5 -143 q0 -98 -56.5 -140t-185.5 -42h-31q-45 0 -72.5 26.5t-27.5 71.5zM553 1026v-172q0 -16 18 -16h31q96 0 128 20.5t32 79.5q0 63 -32 83.5t-128 20.5h-31q-18 0 -18 -16z" glyph-name="Racute" horiz-adv-x="1294" unicode="Ŕ"/><glyph d="M829 1763l-114 -196v-2q-31 -45 -82 -45h-135q-41 0 -62.5 29.5t-7.5 70.5l61 186q23 57 82 58h193q45 0 65 -31t0 -70zM719 1782h-131q-18 0 -25 -17l-47 -141q-6 -23 16 -22h101q6 0 12 6l88 149q15 25 -14 25zM455 0h-232q-45 0 -72.5 26.5t-27.5 71.5v1237 q0 45 27.5 72t72.5 27h379q283 0 436.5 -129t153.5 -367q0 -252 -182 -375q-18 -10 -11 -28l179 -410l2 -2q20 -51 -5.5 -87t-78.5 -36h-226q-72 0 -98 55l-158 391q-6 18 -26 19h-17q-18 0 -18 -16v-351q0 -45 -26.5 -71.5t-71.5 -26.5zM223 82h232q10 0 13 3t3 13v351 q0 45 27.5 71.5t72.5 26.5h17q76 0 104 -72l156 -385q6 -8 22 -8h226h12l-6 12l2 -2l-182 412q-29 82 43 129q145 96 145 305q0 203 -129 308.5t-379 105.5h-379q-18 0 -18 -17v-1237q0 -16 18 -16zM471 854v172q0 45 27.5 71.5t72.5 26.5h31q129 0 185.5 -43t56.5 -143 q0 -98 -56.5 -140t-185.5 -42h-31q-45 0 -72.5 26.5t-27.5 71.5zM553 1026v-172q0 -16 18 -16h31q96 0 128 20.5t32 79.5q0 63 -32 83.5t-128 20.5h-31q-18 0 -18 -16z" glyph-name="Racute" horiz-adv-x="1294" unicode="ŕ"/><glyph d="M455 0h-232q-45 0 -72.5 26.5t-27.5 71.5v1237q0 45 27.5 72t72.5 27h379q283 0 436.5 -129t153.5 -367q0 -252 -182 -375q-18 -10 -11 -28l179 -410l2 -2q20 -51 -5.5 -87t-78.5 -36h-226q-72 0 -98 55l-158 391q-6 18 -26 19h-17q-18 0 -18 -16v-351q0 -45 -26.5 -71.5 t-71.5 -26.5zM223 82h232q10 0 13 3t3 13v351q0 45 27.5 71.5t72.5 26.5h17q76 0 104 -72l156 -385q6 -8 22 -8h226h12l-6 12l2 -2l-182 412q-29 82 43 129q145 96 145 305q0 203 -129 308.5t-379 105.5h-379q-18 0 -18 -17v-1237q0 -16 18 -16zM471 854v172q0 45 27.5 71.5 t72.5 26.5h31q129 0 185.5 -43t56.5 -143q0 -98 -56.5 -140t-185.5 -42h-31q-45 0 -72.5 26.5t-27.5 71.5zM553 1026v-172q0 -16 18 -16h31q96 0 128 20.5t32 79.5q0 63 -32 83.5t-128 20.5h-31q-18 0 -18 -16zM459 -250q0 78 54 132.5t132 54.5q55 0 102.5 -30t67.5 -81 q39 -96 -6 -216t-150 -204q-33 -27 -67.5 -22.5t-50.5 41.5q-31 57 8 110q18 29 19 34t-13 17q-96 58 -96 164zM528 -250q0 -68 60 -100q80 -37 45 -109q-6 -23 -27 -47q-14 -18 -8 -28.5t16 -2.5q86 68 126 165.5t12 168.5q-33 70 -107 70q-49 0 -83 -34t-34 -83z" glyph-name="Rcommaaccent" horiz-adv-x="1294" unicode="Ŗ"/><glyph d="M455 0h-232q-45 0 -72.5 26.5t-27.5 71.5v1237q0 45 27.5 72t72.5 27h379q283 0 436.5 -129t153.5 -367q0 -252 -182 -375q-18 -10 -11 -28l179 -410l2 -2q20 -51 -5.5 -87t-78.5 -36h-226q-72 0 -98 55l-158 391q-6 18 -26 19h-17q-18 0 -18 -16v-351q0 -45 -26.5 -71.5 t-71.5 -26.5zM223 82h232q10 0 13 3t3 13v351q0 45 27.5 71.5t72.5 26.5h17q76 0 104 -72l156 -385q6 -8 22 -8h226h12l-6 12l2 -2l-182 412q-29 82 43 129q145 96 145 305q0 203 -129 308.5t-379 105.5h-379q-18 0 -18 -17v-1237q0 -16 18 -16zM471 854v172q0 45 27.5 71.5 t72.5 26.5h31q129 0 185.5 -43t56.5 -143q0 -98 -56.5 -140t-185.5 -42h-31q-45 0 -72.5 26.5t-27.5 71.5zM553 1026v-172q0 -16 18 -16h31q96 0 128 20.5t32 79.5q0 63 -32 83.5t-128 20.5h-31q-18 0 -18 -16zM459 -250q0 78 54 132.5t132 54.5q55 0 102.5 -30t67.5 -81 q39 -96 -6 -216t-150 -204q-33 -27 -67.5 -22.5t-50.5 41.5q-31 57 8 110q18 29 19 34t-13 17q-96 58 -96 164zM528 -250q0 -68 60 -100q80 -37 45 -109q-6 -23 -27 -47q-14 -18 -8 -28.5t16 -2.5q86 68 126 165.5t12 168.5q-33 70 -107 70q-49 0 -83 -34t-34 -83z" glyph-name="Rcommaaccent" horiz-adv-x="1294" unicode="ŗ"/><glyph d="M387 1864h129q49 0 80 -35l25 -29q14 -18 28 0l25 29q35 35 80 35h129q47 0 65.5 -33t-6.5 -74l-121 -201q-25 -37 -76 -36h-221q-51 0 -75 36l-121 201q-25 41 -6.5 74t65.5 33zM422 1757l88 -141q10 -14 25 -14h200q14 0 25 14l88 141q14 25 -14 25h-80q-12 0 -19 -8 l-43 -50q-23 -29 -56.5 -28.5t-60.5 30.5q-29 31 -40 50q-6 6 -19 6h-80q-28 0 -14 -25zM455 0h-232q-45 0 -72.5 26.5t-27.5 71.5v1237q0 45 27.5 72t72.5 27h379q283 0 436.5 -129t153.5 -367q0 -252 -182 -375q-18 -10 -11 -28l179 -410l2 -2q20 -51 -5.5 -87t-78.5 -36 h-226q-72 0 -98 55l-158 391q-6 18 -26 19h-17q-18 0 -18 -16v-351q0 -45 -26.5 -71.5t-71.5 -26.5zM223 82h232q10 0 13 3t3 13v351q0 45 27.5 71.5t72.5 26.5h17q76 0 104 -72l156 -385q6 -8 22 -8h226h12l-6 12l2 -2l-182 412q-29 82 43 129q145 96 145 305 q0 203 -129 308.5t-379 105.5h-379q-18 0 -18 -17v-1237q0 -16 18 -16zM471 854v172q0 45 27.5 71.5t72.5 26.5h31q129 0 185.5 -43t56.5 -143q0 -98 -56.5 -140t-185.5 -42h-31q-45 0 -72.5 26.5t-27.5 71.5zM553 1026v-172q0 -16 18 -16h31q96 0 128 20.5t32 79.5 q0 63 -32 83.5t-128 20.5h-31q-18 0 -18 -16z" glyph-name="Rcaron" horiz-adv-x="1294" unicode="Ř"/><glyph d="M387 1864h129q49 0 80 -35l25 -29q14 -18 28 0l25 29q35 35 80 35h129q47 0 65.5 -33t-6.5 -74l-121 -201q-25 -37 -76 -36h-221q-51 0 -75 36l-121 201q-25 41 -6.5 74t65.5 33zM422 1757l88 -141q10 -14 25 -14h200q14 0 25 14l88 141q14 25 -14 25h-80q-12 0 -19 -8 l-43 -50q-23 -29 -56.5 -28.5t-60.5 30.5q-29 31 -40 50q-6 6 -19 6h-80q-28 0 -14 -25zM455 0h-232q-45 0 -72.5 26.5t-27.5 71.5v1237q0 45 27.5 72t72.5 27h379q283 0 436.5 -129t153.5 -367q0 -252 -182 -375q-18 -10 -11 -28l179 -410l2 -2q20 -51 -5.5 -87t-78.5 -36 h-226q-72 0 -98 55l-158 391q-6 18 -26 19h-17q-18 0 -18 -16v-351q0 -45 -26.5 -71.5t-71.5 -26.5zM223 82h232q10 0 13 3t3 13v351q0 45 27.5 71.5t72.5 26.5h17q76 0 104 -72l156 -385q6 -8 22 -8h226h12l-6 12l2 -2l-182 412q-29 82 43 129q145 96 145 305 q0 203 -129 308.5t-379 105.5h-379q-18 0 -18 -17v-1237q0 -16 18 -16zM471 854v172q0 45 27.5 71.5t72.5 26.5h31q129 0 185.5 -43t56.5 -143q0 -98 -56.5 -140t-185.5 -42h-31q-45 0 -72.5 26.5t-27.5 71.5zM553 1026v-172q0 -16 18 -16h31q96 0 128 20.5t32 79.5 q0 63 -32 83.5t-128 20.5h-31q-18 0 -18 -16z" glyph-name="Rcaron" horiz-adv-x="1294" unicode="ř"/><glyph d="M612 1520h-135q-41 0 -62.5 29.5t-6.5 70.5l61 186q23 57 82 58h192q45 0 65.5 -31t0.5 -70l-115 -196v-2q-31 -45 -82 -45zM543 1765l-47 -141q-6 -23 16 -22h100q6 0 13 6l88 149q14 25 -15 25h-131q-18 -1 -24 -17zM969 750q88 -66 124.5 -140.5t36.5 -183.5 q0 -203 -143 -324.5t-381 -121.5q-135 0 -260 28.5t-194 73.5q-49 35 -50 104v203q0 57 39 77.5t90 -9.5q143 -86 375 -86q94 0 94 55q0 41 -194 129q-164 76 -242 127q-98 66 -140 140.5t-42 185.5q0 203 143.5 324.5t380.5 121.5q276 0 404 -104q43 -35 43 -101v-200 q0 -59 -41 -80t-92 12q-125 82 -314 82q-94 0 -94 -55q0 -35 174 -107q199 -85 283 -151zM606 61q203 0 323 98.5t120 266.5q0 90 -29 146.5t-100 111.5q-82 66 -265 141q-125 51 -175 89t-50 94q0 63 47 100t129 37q213 0 359 -94q4 -4 6 -4v2v200q0 27 -15 37 q-102 86 -350 86q-203 0 -322.5 -98t-119.5 -266q0 -90 31.5 -146.5t113.5 -109.5q80 -53 232 -123q80 -37 120.5 -58.5t80.5 -61.5t40 -83q0 -63 -47 -100t-129 -37q-256 0 -416 98l-6 4v-2v-203q0 -27 13 -34q59 -41 172.5 -66t236.5 -25z" glyph-name="Sacute" horiz-adv-x="1150" unicode="Ś"/><glyph d="M612 1520h-135q-41 0 -62.5 29.5t-6.5 70.5l61 186q23 57 82 58h192q45 0 65.5 -31t0.5 -70l-115 -196v-2q-31 -45 -82 -45zM543 1765l-47 -141q-6 -23 16 -22h100q6 0 13 6l88 149q14 25 -15 25h-131q-18 -1 -24 -17zM969 750q88 -66 124.5 -140.5t36.5 -183.5 q0 -203 -143 -324.5t-381 -121.5q-135 0 -260 28.5t-194 73.5q-49 35 -50 104v203q0 57 39 77.5t90 -9.5q143 -86 375 -86q94 0 94 55q0 41 -194 129q-164 76 -242 127q-98 66 -140 140.5t-42 185.5q0 203 143.5 324.5t380.5 121.5q276 0 404 -104q43 -35 43 -101v-200 q0 -59 -41 -80t-92 12q-125 82 -314 82q-94 0 -94 -55q0 -35 174 -107q199 -85 283 -151zM606 61q203 0 323 98.5t120 266.5q0 90 -29 146.5t-100 111.5q-82 66 -265 141q-125 51 -175 89t-50 94q0 63 47 100t129 37q213 0 359 -94q4 -4 6 -4v2v200q0 27 -15 37 q-102 86 -350 86q-203 0 -322.5 -98t-119.5 -266q0 -90 31.5 -146.5t113.5 -109.5q80 -53 232 -123q80 -37 120.5 -58.5t80.5 -61.5t40 -83q0 -63 -47 -100t-129 -37q-256 0 -416 98l-6 4v-2v-203q0 -27 13 -34q59 -41 172.5 -66t236.5 -25z" glyph-name="Sacute" horiz-adv-x="1150" unicode="ś"/><glyph d="M1130 416q0 -170 -102 -284t-283 -148q92 -47 93 -166q0 -82 -48.5 -134.5t-116 -66.5t-136 -8t-115.5 30.5t-47 79.5v41q0 39 23.5 59.5t60.5 12.5q-47 25 -39 82l12 68q-186 27 -280 90q-49 33 -50 102v203q0 59 39 79.5t92 -12.5q141 -84 373 -84q94 0 94 56 q0 41 -194 129q-164 76 -242 127q-100 66 -141 139.5t-41 183.5q0 203 143.5 325t380.5 122q272 0 402 -101q45 -37 45 -102v-201q0 -61 -41 -81.5t-92 14.5q-125 80 -314 80q-94 0 -94 -56q0 -35 176 -106q193 -82 281 -150q88 -70 124.5 -143.5t36.5 -179.5zM672 55 q178 16 277.5 111.5t99.5 249.5q0 88 -29 144t-100 114q-80 63 -263 139q-127 53 -177 90t-50 92q0 63 47 100.5t129 37.5q213 0 359 -93q4 -4 6 -4v2v201q0 27 -13 37q-111 84 -352 84q-203 0 -322.5 -98.5t-119.5 -266.5q0 -90 31.5 -144t113.5 -110q80 -53 232 -123 q80 -37 120.5 -58t80.5 -61t40 -83q0 -63 -47 -100t-129 -37q-256 0 -416 96l-6 4v-2v-203q0 -27 15 -37q76 -51 247 -74q35 -6 54.5 -31.5t13.5 -60.5l-10 -63q49 6 96 -2q59 -8 83 -48t0 -80t-83 -50q-43 -6 -143 20v-29v-6h2q55 -29 122.5 -33t121 31t53.5 107 q0 94 -94 104q-33 6 -54 33q-25 33 -4 63.5t68 36.5zM502 -174h-19q80 -23 105 -16q25 4 24.5 7t-24.5 7q-31 6 -86 2z" glyph-name="Scedilla" horiz-adv-x="1150" unicode="Ş"/><glyph d="M1130 416q0 -170 -102 -284t-283 -148q92 -47 93 -166q0 -82 -48.5 -134.5t-116 -66.5t-136 -8t-115.5 30.5t-47 79.5v41q0 39 23.5 59.5t60.5 12.5q-47 25 -39 82l12 68q-186 27 -280 90q-49 33 -50 102v203q0 59 39 79.5t92 -12.5q141 -84 373 -84q94 0 94 56 q0 41 -194 129q-164 76 -242 127q-100 66 -141 139.5t-41 183.5q0 203 143.5 325t380.5 122q272 0 402 -101q45 -37 45 -102v-201q0 -61 -41 -81.5t-92 14.5q-125 80 -314 80q-94 0 -94 -56q0 -35 176 -106q193 -82 281 -150q88 -70 124.5 -143.5t36.5 -179.5zM672 55 q178 16 277.5 111.5t99.5 249.5q0 88 -29 144t-100 114q-80 63 -263 139q-127 53 -177 90t-50 92q0 63 47 100.5t129 37.5q213 0 359 -93q4 -4 6 -4v2v201q0 27 -13 37q-111 84 -352 84q-203 0 -322.5 -98.5t-119.5 -266.5q0 -90 31.5 -144t113.5 -110q80 -53 232 -123 q80 -37 120.5 -58t80.5 -61t40 -83q0 -63 -47 -100t-129 -37q-256 0 -416 96l-6 4v-2v-203q0 -27 15 -37q76 -51 247 -74q35 -6 54.5 -31.5t13.5 -60.5l-10 -63q49 6 96 -2q59 -8 83 -48t0 -80t-83 -50q-43 -6 -143 20v-29v-6h2q55 -29 122.5 -33t121 31t53.5 107 q0 94 -94 104q-33 6 -54 33q-25 33 -4 63.5t68 36.5zM502 -174h-19q80 -23 105 -16q25 4 24.5 7t-24.5 7q-31 6 -86 2z" glyph-name="Scedilla" horiz-adv-x="1150" unicode="ş"/><glyph d="M387 1556l-121 201q-25 41 -6 74t66 33h129q49 0 80 -35l24 -29q14 -18 29 0l24 29q35 35 80 35h129q47 0 65.5 -33t-5.5 -74l-121 -201q-25 -37 -76 -36h-221q-51 -1 -76 36zM455 1782h-80q-29 0 -15 -25l89 -141q10 -14 24 -14h201q14 0 24 14l88 141q14 25 -14 25h-80 q-12 0 -18 -8l-43 -50q-23 -29 -56.5 -28.5t-60.5 30.5q-29 31 -41 50q-6 6 -18 6zM969 750q88 -66 124.5 -140.5t36.5 -183.5q0 -203 -143 -324.5t-381 -121.5q-135 0 -260 28.5t-194 73.5q-49 35 -50 104v203q0 57 39 77.5t90 -9.5q143 -86 375 -86q94 0 94 55 q0 41 -194 129q-164 76 -242 127q-98 66 -140 140.5t-42 185.5q0 203 143.5 324.5t380.5 121.5q276 0 404 -104q43 -35 43 -101v-200q0 -59 -41 -80t-92 12q-125 82 -314 82q-94 0 -94 -55q0 -35 174 -107q199 -85 283 -151zM606 61q203 0 323 98.5t120 266.5 q0 90 -29 146.5t-100 111.5q-82 66 -265 141q-125 51 -175 89t-50 94q0 63 47 100t129 37q213 0 359 -94q4 -4 6 -4v2v200q0 27 -15 37q-102 86 -350 86q-203 0 -322.5 -98t-119.5 -266q0 -90 31.5 -146.5t113.5 -109.5q80 -53 232 -123q80 -37 120.5 -58.5t80.5 -61.5 t40 -83q0 -63 -47 -100t-129 -37q-256 0 -416 98l-6 4v-2v-203q0 -27 13 -34q59 -41 172.5 -66t236.5 -25z" glyph-name="Scaron" horiz-adv-x="1150" unicode="Š"/><glyph d="M387 1556l-121 201q-25 41 -6 74t66 33h129q49 0 80 -35l24 -29q14 -18 29 0l24 29q35 35 80 35h129q47 0 65.5 -33t-5.5 -74l-121 -201q-25 -37 -76 -36h-221q-51 -1 -76 36zM455 1782h-80q-29 0 -15 -25l89 -141q10 -14 24 -14h201q14 0 24 14l88 141q14 25 -14 25h-80 q-12 0 -18 -8l-43 -50q-23 -29 -56.5 -28.5t-60.5 30.5q-29 31 -41 50q-6 6 -18 6zM969 750q88 -66 124.5 -140.5t36.5 -183.5q0 -203 -143 -324.5t-381 -121.5q-135 0 -260 28.5t-194 73.5q-49 35 -50 104v203q0 57 39 77.5t90 -9.5q143 -86 375 -86q94 0 94 55 q0 41 -194 129q-164 76 -242 127q-98 66 -140 140.5t-42 185.5q0 203 143.5 324.5t380.5 121.5q276 0 404 -104q43 -35 43 -101v-200q0 -59 -41 -80t-92 12q-125 82 -314 82q-94 0 -94 -55q0 -35 174 -107q199 -85 283 -151zM606 61q203 0 323 98.5t120 266.5 q0 90 -29 146.5t-100 111.5q-82 66 -265 141q-125 51 -175 89t-50 94q0 63 47 100t129 37q213 0 359 -94q4 -4 6 -4v2v200q0 27 -15 37q-102 86 -350 86q-203 0 -322.5 -98t-119.5 -266q0 -90 31.5 -146.5t113.5 -109.5q80 -53 232 -123q80 -37 120.5 -58.5t80.5 -61.5 t40 -83q0 -63 -47 -100t-129 -37q-256 0 -416 98l-6 4v-2v-203q0 -27 13 -34q59 -41 172.5 -66t236.5 -25z" glyph-name="Scaron" horiz-adv-x="1150" unicode="š"/><glyph d="M182 1423h869q45 0 72.5 -27.5t27.5 -72.5v-213q0 -45 -27.5 -71.5t-72.5 -26.5h-203q-10 0 -13.5 -3t-3.5 -14v-909q0 -74 -63 -94q119 -41 119 -176q0 -137 -138.5 -194.5t-277.5 18.5q-49 23 -49 79v41q0 37 24.5 57.5t59.5 16.5q-51 23 -37 82l16 72q-84 10 -84 98 v909q0 10 -3 13.5t-13 3.5h-203q-45 0 -72.5 26.5t-27.5 71.5v213q0 45 27.5 72.5t72.5 27.5zM1069 1110v213q0 18 -18 18h-869q-18 0 -18 -18v-213q0 -16 18 -16h203q45 0 71.5 -27t26.5 -72v-909q0 -16 17 -16q37 0 55 -27t12 -66l-14 -69q53 6 96 -2q59 -10 83 -50 t0.5 -80t-83.5 -48q-51 -8 -145 22v-31v-4q98 -57 199.5 -23t101.5 124q0 94 -94 106q-78 12 -68 90q10 57 80 58h10q16 0 17 16v909q0 45 26.5 72t71.5 27h203q18 0 18 16zM551 -174h-19q80 -23 105 -16q25 4 25 7t-25 7q-31 6 -86 2z" glyph-name="Tcommaaccent" horiz-adv-x="1232" unicode="Ţ"/><glyph d="M182 1423h869q45 0 72.5 -27.5t27.5 -72.5v-213q0 -45 -27.5 -71.5t-72.5 -26.5h-203q-10 0 -13.5 -3t-3.5 -14v-909q0 -74 -63 -94q119 -41 119 -176q0 -137 -138.5 -194.5t-277.5 18.5q-49 23 -49 79v41q0 37 24.5 57.5t59.5 16.5q-51 23 -37 82l16 72q-84 10 -84 98 v909q0 10 -3 13.5t-13 3.5h-203q-45 0 -72.5 26.5t-27.5 71.5v213q0 45 27.5 72.5t72.5 27.5zM1069 1110v213q0 18 -18 18h-869q-18 0 -18 -18v-213q0 -16 18 -16h203q45 0 71.5 -27t26.5 -72v-909q0 -16 17 -16q37 0 55 -27t12 -66l-14 -69q53 6 96 -2q59 -10 83 -50 t0.5 -80t-83.5 -48q-51 -8 -145 22v-31v-4q98 -57 199.5 -23t101.5 124q0 94 -94 106q-78 12 -68 90q10 57 80 58h10q16 0 17 16v909q0 45 26.5 72t71.5 27h203q18 0 18 16zM551 -174h-19q80 -23 105 -16q25 4 25 7t-25 7q-31 6 -86 2z" glyph-name="Tcommaaccent" horiz-adv-x="1232" unicode="ţ"/><glyph d="M356 1864h129q49 0 80 -35l25 -29q14 -18 28 0l25 29q35 35 80 35h129q47 0 65.5 -33t-6.5 -74l-120 -201q-25 -37 -76 -36h-221q-51 0 -76 36l-121 201q-25 41 -6.5 74t65.5 33zM391 1757l88 -141q10 -14 25 -14h201q14 0 24 14l88 141q14 25 -14 25h-80q-12 0 -18 -8 l-43 -50q-23 -29 -57 -28.5t-60 30.5q-29 31 -41 50q-6 6 -19 6h-79q-29 0 -15 -25zM385 1024h-203q-45 0 -72.5 26.5t-27.5 71.5v213q0 45 27.5 72t72.5 27h869q45 0 72.5 -27t27.5 -72v-213q0 -45 -27.5 -71.5t-72.5 -26.5h-203q-16 0 -17 -16v-910q0 -45 -26.5 -71.5 t-71.5 -26.5h-233q-45 0 -72 26.5t-27 71.5v910q0 16 -16 16zM182 1106h203q45 0 71.5 -26.5t26.5 -71.5v-910q0 -10 3 -13t14 -3h233q10 0 13.5 3t3.5 13v910q0 45 26.5 71.5t71.5 26.5h203q18 0 18 16v213q0 16 -18 17h-869q-18 0 -18 -17v-213q0 -16 18 -16z" glyph-name="Tcaron" horiz-adv-x="1232" unicode="Ť"/></font>
</defs>
</svg>
